<svg version="1.1" id="Capa_1" xmlns="http://www.w3.org/2000/svg" xmlns:xlink="http://www.w3.org/1999/xlink" x="0px" y="0px"
viewBox="0 0 480.669 480.669" style="enable-background:new 0 0 480.669 480.669;" xml:space="preserve">
        <style>
        .path {
        fill: none;
        stroke: #008ded;
        stroke-width: 10px;
        stroke-dasharray: 1000;
        stroke-dashoffset: 1000;
        animation: dash 5s linear alternate infinite;
        }

        @keyframes dash {
        from {
        stroke-dashoffset: 822;
        }
        to {
        stroke-dashoffset: 50;
        }
        }
    </style>
<linearGradient id="SVGID_1_" gradientUnits="userSpaceOnUse" x1="-26.8303" y1="557.5862" x2="-26.8303" y2="615.4742" gradientTransform="matrix(8 0 0 -8 454.977 4947.0225)">
<stop  offset="0" style="stop-color:#006DF0"/>
<stop  offset="1" style="stop-color:#00E7F0"/>
</linearGradient>
<path style="fill:url(#SVGID_1_);" d="M479.571,120.109c-1.06-1.837-2.807-3.178-4.856-3.728l-18.712-5.016
c-0.085-6.832-0.971-13.631-2.64-20.256l16.72-9.64c3.825-2.211,5.135-7.104,2.924-10.929c-0.001-0.002-0.003-0.004-0.004-0.007
l-16-27.68c-2.186-3.84-7.071-5.18-10.91-2.994c-0.006,0.003-0.012,0.007-0.018,0.01l-16.72,9.664
c-4.905-4.767-10.356-8.937-16.24-12.424l5.016-18.712c1.145-4.266-1.383-8.653-5.648-9.8l-30.96-8.32
c-4.266-1.149-8.656,1.378-9.805,5.645c-0.001,0.004-0.002,0.008-0.003,0.011l-5.008,18.736c-6.837,0.087-13.641,0.973-20.272,2.64
l-9.632-16.72c-1.062-1.839-2.812-3.18-4.864-3.728c-2.049-0.557-4.237-0.268-6.072,0.8l-27.672,16
c-0.304,0.229-0.59,0.48-0.856,0.752c-32.178-5.245-64.733-7.835-97.336-7.744c-96.96,0-200,22.4-200,64v336
c0,41.6,103.04,64,200,64s200-22.4,200-64V215.621c2.349,3.21,6.757,4.101,10.168,2.056l27.672-16
c3.834-2.196,5.162-7.084,2.966-10.918c-0.002-0.003-0.004-0.007-0.006-0.01l-9.664-16.72c4.767-4.906,8.94-10.357,12.432-16.24
l18.712,5.008c4.266,1.145,8.653-1.383,9.8-5.648l8.32-30.968C480.943,124.127,480.644,121.942,479.571,120.109L479.571,120.109z
M200.003,32.669c33.094-0.148,66.14,2.56,98.768,8.096l6.12,10.552c-4.765,4.904-8.935,10.352-12.424,16.232l-18.712-5.008
c-4.266-1.145-8.653,1.383-9.8,5.648l-8.32,30.968c-1.145,4.267,1.387,8.655,5.654,9.8c0.001,0,0.001,0,0.002,0l18.712,5.008
c0.041,3.13,0.257,6.255,0.648,9.36c-2.448,0.336-4.896,0.672-7.4,0.976c-2.76,0.336-5.504,0.68-8.32,0.976
c-4.296,0.456-8.672,0.8-13.072,1.192c-2.656,0.216-5.28,0.464-8,0.648c-4.888,0.336-9.864,0.576-14.848,0.8
c-2.312,0.104-4.584,0.256-6.904,0.336c-7.328,0.248-14.72,0.392-22.136,0.392C86.003,128.669,16.003,100.717,16.003,80.669
S86.003,32.669,200.003,32.669L200.003,32.669z M323.523,216.717l18.704,5.024c-1.104,0.376-2.24,0.744-3.384,1.112
c-2.208,0.704-4.448,1.4-6.808,2.08c-1.896,0.544-3.872,1.072-5.864,1.6c-2.472,0.656-5.008,1.296-7.632,1.912
c-2.133,0.501-4.293,0.992-6.48,1.472c-2.744,0.6-5.6,1.168-8.448,1.72c-2.304,0.448-4.632,0.888-7.032,1.312
c-3.024,0.528-6.16,1.016-9.32,1.504c-2.472,0.376-4.936,0.752-7.496,1.104c-3.344,0.456-6.824,0.864-10.312,1.264
c-2.584,0.296-5.128,0.608-7.784,0.872c-3.76,0.376-7.672,0.68-11.584,0.992c-2.592,0.208-5.12,0.44-7.776,0.616
c-4.432,0.288-9.04,0.488-13.6,0.688c-2.328,0.096-4.568,0.24-6.936,0.32c-7.083,0.24-14.339,0.36-21.768,0.36
c-114,0-184-27.952-184-48v-85.648c0.176,0.128,0.392,0.256,0.568,0.384c1.832,1.352,3.776,2.68,5.872,3.96
c0.272,0.176,0.576,0.336,0.856,0.504c1.92,1.144,3.952,2.256,6.064,3.352l1.6,0.8c2.384,1.184,4.877,2.333,7.48,3.448l1.392,0.568
c2.32,0.96,4.72,1.896,7.2,2.808c0.624,0.232,1.232,0.464,1.864,0.688c2.848,1.013,5.781,1.992,8.8,2.936l1.888,0.568
c2.667,0.805,5.395,1.584,8.184,2.336c0.68,0.184,1.352,0.376,2.04,0.552c3.237,0.848,6.552,1.648,9.944,2.4l2.312,0.512
c2.976,0.667,5.997,1.301,9.064,1.904c0.688,0.136,1.368,0.28,2.056,0.408c3.56,0.688,7.2,1.328,10.856,1.944l2.624,0.424
c3.264,0.533,6.563,1.029,9.896,1.488c0.632,0.088,1.256,0.184,1.888,0.264c3.8,0.52,7.64,0.992,11.52,1.44l2.904,0.32
c3.547,0.384,7.112,0.741,10.696,1.072l1.456,0.136c4,0.352,8,0.648,12,0.92l2.992,0.2c3.808,0.24,7.621,0.448,11.44,0.624
l0.952,0.048c4.08,0.176,8.163,0.309,12.248,0.4l2.992,0.064c4.12,0.08,8.24,0.136,12.352,0.136c7.2,0,14.4-0.152,21.536-0.384
c2.168-0.072,4.304-0.176,6.456-0.264c5.12-0.219,10.187-0.485,15.2-0.8c2.232-0.144,4.464-0.288,6.68-0.464
c5.712-0.432,11.336-0.944,16.872-1.536c1.192-0.128,2.4-0.216,3.6-0.352c0.32,0,0.664-0.064,0.984-0.096l-5.44,3.136
c-3.825,2.211-5.135,7.104-2.924,10.929c0.001,0.002,0.003,0.004,0.004,0.007l16,27.68c2.206,3.828,7.098,5.143,10.926,2.937
c0.001,0,0.001-0.001,0.002-0.001l16.72-9.664c4.905,4.767,10.356,8.937,16.24,12.424l-5.016,18.712
c-1.154,4.265,1.368,8.658,5.633,9.812C323.492,216.709,323.508,216.713,323.523,216.717L323.523,216.717z M380.491,199.733
c0.264,0,0.52,0,0.8-0.072c-0.12,0.168-0.176,0.336-0.304,0.504c-0.248,0.32-0.552,0.64-0.8,0.968
c-0.846,0.978-1.752,1.902-2.712,2.768c-0.392,0.352-0.8,0.704-1.192,1.056c-1.563,1.311-3.203,2.526-4.912,3.64
c-0.096,0.064-0.208,0.12-0.296,0.184c-1.392,0.896-3.016,1.784-4.616,2.672l2.84-10.784
C373.046,200.6,376.785,200.287,380.491,199.733L380.491,199.733z M16.003,219.021c0.176,0.128,0.392,0.256,0.568,0.384
c1.832,1.352,3.776,2.68,5.872,4c0.272,0.176,0.576,0.336,0.856,0.504c1.92,1.144,3.952,2.256,6.064,3.352l1.6,0.8
c2.384,1.184,4.877,2.333,7.48,3.448l1.392,0.568c2.32,0.96,4.72,1.896,7.2,2.808c0.624,0.232,1.232,0.464,1.864,0.688
c2.848,1.013,5.781,1.992,8.8,2.936l1.888,0.568c2.667,0.805,5.395,1.584,8.184,2.336c0.68,0.184,1.352,0.376,2.04,0.552
c3.237,0.848,6.552,1.661,9.944,2.44l2.312,0.512c2.976,0.661,5.997,1.296,9.064,1.904c0.688,0.136,1.368,0.28,2.056,0.408
c3.56,0.688,7.2,1.328,10.856,1.944l2.624,0.424c3.264,0.533,6.563,1.029,9.896,1.488c0.632,0.088,1.256,0.184,1.888,0.264
c3.8,0.52,7.64,0.992,11.52,1.44l2.904,0.32c3.547,0.384,7.112,0.741,10.696,1.072l1.456,0.136c4,0.352,8,0.648,12,0.92l2.992,0.2
c3.808,0.24,7.621,0.448,11.44,0.624l0.952,0.048c4.08,0.176,8.163,0.309,12.248,0.4l2.992,0.064c4.12,0.08,8.24,0.136,12.352,0.136
s8.232-0.056,12.352-0.136l2.992-0.064c4.091-0.096,8.173-0.229,12.248-0.4l0.952-0.048c3.824-0.176,7.637-0.384,11.44-0.624
l2.992-0.2c4-0.272,8-0.568,12-0.92l1.456-0.136c3.595-0.325,7.16-0.683,10.696-1.072l2.904-0.32c3.88-0.448,7.72-0.92,11.52-1.44
c0.632-0.08,1.256-0.176,1.888-0.264c3.333-0.469,6.632-0.965,9.896-1.488l2.664-0.464c3.672-0.616,7.296-1.256,10.856-1.944
c0.688-0.128,1.368-0.272,2.056-0.408c3.072-0.608,6.093-1.243,9.064-1.904l2.312-0.512c3.387-0.773,6.701-1.587,9.944-2.44
c0.688-0.176,1.36-0.368,2.04-0.552c2.795-0.752,5.523-1.531,8.184-2.336l1.888-0.568c3.029-0.944,5.963-1.923,8.8-2.936
c0.632-0.224,1.24-0.456,1.864-0.688c2.48-0.912,4.88-1.848,7.2-2.808l1.392-0.568c2.608-1.115,5.101-2.264,7.48-3.448l1.6-0.8
c2.112-1.096,4.144-2.208,6.064-3.352c0.28-0.168,0.584-0.328,0.856-0.504c2.096-1.28,4.04-2.608,5.872-4
c0.176-0.128,0.392-0.256,0.568-0.384v85.688c0,20.048-70,48-184,48s-184.04-27.952-184.04-48L16.003,219.021z M384.003,416.669
c0,20.048-70,48-184,48s-184-27.952-184-48v-85.648c0.176,0.128,0.392,0.256,0.568,0.384c1.832,1.352,3.776,2.68,5.872,4
c0.272,0.176,0.576,0.336,0.856,0.504c1.92,1.144,3.952,2.256,6.064,3.352l1.6,0.8c2.384,1.184,4.877,2.333,7.48,3.448l1.392,0.568
c2.32,0.96,4.72,1.896,7.2,2.808c0.624,0.232,1.232,0.464,1.864,0.688c2.848,1.019,5.781,1.997,8.8,2.936l1.888,0.568
c2.667,0.805,5.395,1.584,8.184,2.336c0.68,0.184,1.352,0.376,2.04,0.552c3.237,0.848,6.552,1.661,9.944,2.44l2.312,0.512
c2.976,0.661,5.997,1.296,9.064,1.904c0.688,0.136,1.368,0.28,2.056,0.408c3.56,0.688,7.2,1.328,10.856,1.944l2.624,0.424
c3.264,0.533,6.563,1.029,9.896,1.488c0.632,0.088,1.256,0.184,1.888,0.264c3.8,0.52,7.64,0.992,11.52,1.44l2.904,0.32
c3.547,0.384,7.112,0.741,10.696,1.072l1.456,0.136c4,0.352,8,0.648,12,0.92l2.992,0.2c3.808,0.24,7.621,0.448,11.44,0.624
l0.952,0.048c4.08,0.176,8.163,0.309,12.248,0.4l2.992,0.064c4.12,0.08,8.24,0.136,12.352,0.136s8.232-0.056,12.352-0.136
l2.992-0.064c4.091-0.096,8.173-0.229,12.248-0.4l0.952-0.048c3.824-0.176,7.637-0.384,11.44-0.624l2.992-0.2
c4-0.272,8-0.568,12-0.92l1.456-0.136c3.595-0.325,7.16-0.683,10.696-1.072l2.904-0.32c3.88-0.448,7.72-0.92,11.52-1.44
c0.632-0.08,1.256-0.176,1.888-0.264c3.333-0.469,6.632-0.965,9.896-1.488l2.664-0.464c3.672-0.616,7.296-1.256,10.856-1.944
c0.688-0.128,1.368-0.272,2.056-0.408c3.072-0.608,6.093-1.243,9.064-1.904l2.312-0.512c3.387-0.773,6.701-1.587,9.944-2.44
c0.688-0.176,1.36-0.368,2.04-0.552c2.795-0.752,5.523-1.531,8.184-2.336l1.888-0.568c3.029-0.944,5.963-1.923,8.8-2.936
c0.632-0.224,1.24-0.456,1.864-0.688c2.48-0.912,4.88-1.848,7.2-2.808l1.392-0.568c2.608-1.115,5.101-2.264,7.48-3.448l1.6-0.8
c2.112-1.096,4.144-2.208,6.064-3.352c0.28-0.168,0.584-0.328,0.856-0.504c2.096-1.28,4.04-2.608,5.872-4
c0.176-0.128,0.392-0.256,0.568-0.384L384.003,416.669z M458.667,145.269l-17.064-4.6c-3.68-0.988-7.545,0.756-9.24,4.168
c-4.082,8.253-9.727,15.635-16.624,21.736c-2.836,2.526-3.504,6.698-1.6,9.984l8.8,15.24l-13.824,8l-8.8-15.2
c-1.988-3.267-5.976-4.72-9.6-3.496c-0.368,0.062-0.731,0.147-1.088,0.256c-8.359,2.661-17.14,3.746-25.896,3.2
c-3.813-0.251-7.271,2.228-8.256,5.92l-4.568,17.056l-15.504-4.16l4.6-17.104c0.984-3.677-0.759-7.538-4.168-9.232
c-8.252-4.087-15.634-9.735-21.736-16.632c-2.527-2.84-6.704-3.508-9.992-1.6l-15.2,8.8l-8-13.832l15.2-8.8
c3.312-1.912,4.807-5.902,3.568-9.52c-0.742-2.147-1.327-4.345-1.752-6.576c0-0.184-0.08-0.344-0.112-0.528
c-1.525-6.531-2.064-13.253-1.6-19.944c0.244-3.804-2.23-7.253-5.912-8.24l-17.064-4.576l4.168-15.504l17,4.584
c3.68,0.988,7.545-0.756,9.24-4.168c4.082-8.253,9.727-15.635,16.624-21.736c2.84-2.527,3.508-6.704,1.6-9.992l-8.8-15.2l13.84-8
l8.8,15.2c1.898,3.283,5.84,4.783,9.44,3.592c8.741-2.907,17.959-4.104,27.152-3.528c3.789,0.195,7.207-2.265,8.224-5.92
l4.568-17.056l15.504,4.16l-4.592,17.048c-0.984,3.677,0.759,7.538,4.168,9.232c8.252,4.087,15.634,9.735,21.736,16.632
c2.527,2.84,6.704,3.508,9.992,1.6l15.2-8.8l8,13.832l-15.2,8.8c-3.283,1.898-4.784,5.84-3.592,9.44
c2.907,8.735,4.105,17.948,3.528,27.136c-0.24,3.802,2.233,7.245,5.912,8.232l17.064,4.576L458.667,145.269z"/>
<linearGradient id="SVGID_2_" gradientUnits="userSpaceOnUse" x1="-10.8748" y1="557.5862" x2="-10.8748" y2="615.4742" gradientTransform="matrix(8 0 0 -8 454.977 4947.0225)">
<stop  offset="0" style="stop-color:#006DF0"/>
<stop  offset="1" style="stop-color:#00E7F0"/>
</linearGradient>
<path class="path" d="M391.027,61.605c-16.444-7.349-35.409-6.404-51.04,2.544
c-21.583,12.392-32.352,37.578-26.4,61.744c1.258,5.18,3.241,10.157,5.888,14.784c15.515,26.734,49.716,35.908,76.528,20.528
c26.738-15.516,35.916-49.719,20.536-76.536C410.686,74.479,401.754,66.405,391.027,61.605L391.027,61.605z M329.139,122.157
c-5.263-21.455,7.863-43.115,29.318-48.378s43.115,7.863,48.378,29.318c1.608,6.556,1.531,13.413-0.224,19.932
c-0.096,0.344-0.272,0.656-0.368,0.992c-0.604,2.129-1.38,4.205-2.32,6.208c-1.045,2.107-2.274,4.117-3.672,6.008
c-0.136,0.184-0.224,0.408-0.36,0.592c-13.563,17.605-38.83,20.882-56.435,7.319c-4.065-3.132-7.493-7.012-10.101-11.431
C331.461,129.412,330.042,125.858,329.139,122.157L329.139,122.157z"/>
<g>
</g>
</svg>