<svg xmlns="http://www.w3.org/2000/svg" viewBox="0 0 70.92 59.42"><defs><style>.cls-1{isolation:isolate;}.cls-2{fill:#cf8e00;}.cls-3{fill:#d89300;}.cls-4{fill:#e99e09;}.cls-5{fill:#ffaa27;}.cls-6{fill:#d9c5ae;opacity:0.65;}.cls-6,.cls-9{mix-blend-mode:multiply;}.cls-7{fill:#faecd0;}.cls-8{fill:#3bcee2;}.cls-9{fill:#c1c1c1;opacity:0.5;}.cls-10{fill:#ff007e;}</style></defs><title>Asset 13</title><g class="cls-1"><g id="Layer_2" data-name="Layer 2"><g id="Layer_1-2" data-name="Layer 1"><path class="cls-2" d="M60.27,34.26c-1.15-.07-2.51.72-3.85,1.56-4.23,2.68-7.48,8.55-12.91,8.5-2.47,0-6.44-1.76-10.47-3.26l-.43,4.24A52.51,52.51,0,0,1,38.45,47a75.64,75.64,0,0,0,10.11,2.8c2.72-1.71,6.63-5.38,12.73-12.16C62.2,36.62,61.62,34.34,60.27,34.26Z"/><path class="cls-3" d="M42.31,45.65a75.64,75.64,0,0,0,10.11,2.8c2.72-1.71,6.64-5.38,12.73-12.16.91-1,.33-3.29-1-3.37-1.15-.07-2.5.71-3.84,1.56C56.05,37.16,52.8,43,47.37,43s-18-8.33-22.9-4.37l0-.06L24.08,42C30.26,42.68,36.42,43.54,42.31,45.65Z"/><path class="cls-4" d="M47,44.66a73.72,73.72,0,0,0,10.11,2.79c2.72-1.7,6.86-5.12,13-11.9A1.63,1.63,0,0,0,69,32.83a9.24,9.24,0,0,0-4,.66C61.28,35,57.51,42,52.07,42S34,33.64,29.18,37.6l-.05-.05L28.78,41C35,41.68,41.13,42.54,47,44.66Z"/><path class="cls-5" d="M0,49A12,12,0,0,0,10.82,59.42S19.63,50,21.6,49.14c5.36-2.22,13.82.63,16.12.81,3.74.3,12.12.47,16.45,1.2a1.89,1.89,0,0,0,1.49-.37,81,81,0,0,1,7.9-5.58c2.26-1.35,4.17-4.22,6.94-7.3a1.63,1.63,0,0,0-1.09-2.72,9.08,9.08,0,0,0-4,.65c-3.71,1.51-7.48,8.54-12.91,8.49S34.44,36,29.59,40c0,0-5.8-7.21-10.86-4.16S7.75,44.78,0,49Z"/><path class="cls-6" d="M37.76,39.64,31,35.54c-12.13-4.18-11,1.14-12.77,2.22l8.17,4.63s6-2.7,21.59.9C48,43.29,38.19,39.68,37.76,39.64Z"/><path class="cls-5" d="M52.94,38.4c.1-.42-.08-.86-.51-.89-3.36-.31-16-1.58-23.46-4.15-12.13-4.19-11.25,3.2-13,4.28l10.39,4.75S28,37.31,45.3,42.31C45.3,42.31,51.81,42.88,52.94,38.4Z"/><path class="cls-7" d="M47.93,37.24s-2.07.9-1,2.13c.57.64,1.56,1,3.37.68a2.62,2.62,0,0,0,2.18-1.82.49.49,0,0,0-.44-.57Z"/><path class="cls-7" d="M69.81,36.32c-1.22-.17-3.35.62-3.3,3.54,0,.68,1,1,1.67.43a28.9,28.9,0,0,0,2.2-2.17A1,1,0,0,0,69.81,36.32Z"/><path class="cls-8" d="M63.74,13.21a5.47,5.47,0,0,0-2.21.46,5.29,5.29,0,0,0-5.15-6.58,5.19,5.19,0,0,0-1.68.28,6.7,6.7,0,0,0-12.93-.9,8.75,8.75,0,1,0-16.24,6.28,5.79,5.79,0,0,0,.3,11.58H63.74a5.56,5.56,0,1,0,0-11.12Z"/><path class="cls-9" d="M67.14,27.18a7.79,7.79,0,0,0,.09-1.2,3.6,3.6,0,0,0-3.6-3.6,3.53,3.53,0,0,0-1.13.19A4.54,4.54,0,0,0,53.73,22a5.94,5.94,0,0,0-11.67,1.55,5.87,5.87,0,0,0,.66,2.71,3.93,3.93,0,0,0-3.63,3.05H63.81A5.59,5.59,0,0,0,67.14,27.18Z"/><path class="cls-10" d="M63.91,21.53a3.76,3.76,0,0,0-1.5.31,3.43,3.43,0,0,0,.11-.86,3.59,3.59,0,0,0-4.74-3.41A4.54,4.54,0,0,0,49,17a5.93,5.93,0,1,0-11,4.26,3.93,3.93,0,0,0,.2,7.85H63.91a3.77,3.77,0,1,0,0-7.54Z"/></g></g></g></svg>