<svg xmlns="http://www.w3.org/2000/svg" xmlns:xlink="http://www.w3.org/1999/xlink" viewBox="0 0 459.95 423.59">
                        <defs><style>

                            .contact-clock {
                                transform-origin:55% 50%;
                                -moz-transform-origin:55% 50%;
                                animation-count: 0.5;
                                animation: clockFlip 2.5s;
                            }

                            @keyframes clockFlip {
                                0% {transform: perspective(2000px) rotateY(90deg) skewY(-1deg)}
                                30% {transform:perspective(2000px) rotateY(-25deg) skewY(-0.8deg)}
                                50% {transform:perspective(2000px) rotateY(20deg) skewY(0.8deg)}
                                70% {transform:perspective(2000px) rotateY(-10deg) skewY(-0.8deg)}
                                100% {transform:perspective(2000px) rotateY(0deg)}
                            }

                            .contact_lap {
                                animation-name: contactLap;
                                animation-duration: 6s;
                                animation-iteration-count: 1;
                                transform-origin: 50% 50%;
                            }

                            @keyframes contactLap {
                                0% {transform: translate(150px, 0);}
                                20% {transform: translate(0, 5px);}
                            }

                            .lap_location {
                                animation-name: locationOpecity;
                                animation-duration: 3s;
                                animation-iteration-count: infinite;
                            }

                            @keyframes locationOpecity {
                                0% {opacity: 1.5;}
                                50% {opacity: 0.4;}
                                100% {opacity: 1.5;}
                            }

                            .contact_location {
                                animation-name: contact-locate;
                                animation-duration: 3s;
                                animation-iteration-count: infinite;
                                transform-origin: 50% 50%;
                            }

                            @keyframes contact-locate {
                                0% {transform: translate(0, 0);}
                                50% {transform: translate(0, 8px);}
                            }

                            .contact_block {
                                animation-name: contactBlocka-1;
                                animation-duration: 4s;
                                animation-iteration-count: infinite;
                                transform-origin: 50% 50%;
                            }

                            @keyframes contactBlocka-1 {
                                0% {transform: translate(0, 0);}
                                50% {transform: translate(20px, 0);}
                            }

                            .contact_block-sec {
                                animation-name: contactBlocka-2;
                                animation-duration: 4s;
                                animation-iteration-count: infinite;
                                transform-origin: 50% 50%;
                            }

                            @keyframes contactBlocka-2 {
                                0% {transform: translate(0, 0);}
                                50% {transform: translate(-20px, 0);}
                            }

                            .cls-1,.cls-2,.cls-3,.cls-4,.cls-41,.cls-47,.cls-5,.cls-6,.cls-62,.cls-7{fill:none;}
                        .cls-2,.cls-3,.cls-4,.cls-41,.cls-5,.cls-6,.cls-62,.cls-7{stroke-linecap:round;stroke-linejoin:round;}
                        .cls-2,.cls-3{stroke-width:15px;}.cls-2{stroke:url(#linear-gradient);}.cls-3{stroke:url(#linear-gradient-2);}
                        .cls-4{stroke-width:11px;stroke:url(#linear-gradient-3);}.cls-5{stroke-width:25px;stroke:url(#linear-gradient-4);}
                        .cls-6{stroke-width:35px;stroke:url(#linear-gradient-5);}.cls-7{stroke:#1363d6;}.cls-8{fill:url(#linear-gradient-6);}
                        .cls-9{fill:url(#linear-gradient-7);}.cls-10{fill:url(#linear-gradient-8);}.cls-11{fill:url(#linear-gradient-9);}
                        .cls-12{fill:url(#linear-gradient-10);}.cls-13{fill:#2f29aa;}.cls-14{fill:#1849d3;}.cls-15{fill:#18187c;}
                        .cls-16{fill:#2f76f4;}.cls-17{fill:#1a5fe8;}.cls-18{fill:#251e8c;}.cls-19{fill:#1b1b7a;}.cls-20{fill:#13135e;}.cls-21{fill:#252589;}
                        .cls-22{fill:#2f2fa3;}.cls-23{fill:url(#linear-gradient-11);}.cls-24{fill:#265edb;}.cls-25{fill:#c3c8f4;}.cls-26{fill:#1a1aa0;}.cls-27{fill:#2727c9;}
                        .cls-28{fill:#151575;}.cls-29{fill:url(#linear-gradient-12);}.cls-30{fill:url(#linear-gradient-13);}.cls-31{clip-path:url(#clip-path);}
                        .cls-32{fill:url(#linear-gradient-14);}.cls-33{fill:url(#linear-gradient-15);}.cls-34{fill:url(#linear-gradient-16);}.cls-35{clip-path:url(#clip-path-2);}
                        .cls-36{fill:url(#linear-gradient-17);}.cls-37{fill:url(#linear-gradient-18);}.cls-38,.cls-53,.cls-56,.cls-59{opacity:0.11;}.cls-38{fill:url(#linear-gradient-19);}
                        .cls-39,.cls-54,.cls-57,.cls-60{opacity:0.15;}.cls-39{fill:url(#linear-gradient-20);}.cls-40,.cls-55,.cls-58,.cls-61{opacity:0.25;}.cls-40{fill:url(#linear-gradient-21);}
                        .cls-41,.cls-62{stroke:#8af7f5;}.cls-41{stroke-width:0.5px;}.cls-42{fill:#4b72e0;}.cls-43{fill:#271a87;}.cls-44{fill:#2a2ab7;}.cls-45{fill:#8fc1f9;}
                        .cls-46{fill:#76b5f4;}.cls-47{stroke:#89b2ef;stroke-miterlimit:10;}.cls-48{fill:#5e94ea;}.cls-49{fill:#377de2;}.cls-50{fill:url(#linear-gradient-22);}
                        .cls-51{fill:url(#linear-gradient-23);}.cls-52{fill:url(#linear-gradient-24);}.cls-53{fill:url(#linear-gradient-25);}.cls-54{fill:url(#linear-gradient-26);}
                        .cls-55{fill:url(#linear-gradient-27);}.cls-56{fill:url(#linear-gradient-28);}.cls-57{fill:url(#linear-gradient-29);}.cls-58{fill:url(#linear-gradient-30);}
                        .cls-59{fill:url(#linear-gradient-31);}.cls-60{fill:url(#linear-gradient-32);}.cls-61{fill:url(#linear-gradient-33);}.cls-63{fill:url(#linear-gradient-34);}
                        .cls-64{fill:url(#linear-gradient-35);}.cls-65{fill:url(#linear-gradient-36);}.cls-66{fill:url(#linear-gradient-37);}</style>
                            <linearGradient id="linear-gradient" x1="5" y1="357.87" x2="225.04" y2="357.87" gradientTransform="matrix(-1, 0, 0, 1, 464.95, 0)" gradientUnits="userSpaceOnUse"><stop offset="0.1" stop-color="#1363d6" stop-opacity="0"/><stop offset="0.62" stop-color="#1363d6" stop-opacity="0.2"/><stop offset="0.9" stop-color="#1363d6" stop-opacity="0"/></linearGradient>
                            <linearGradient id="linear-gradient-2" x1="94.28" y1="314.89" x2="456.08" y2="314.89" xlink:href="#linear-gradient"/>
                            <linearGradient id="linear-gradient-3" x1="208.58" y1="280.55" x2="454.85" y2="280.55" xlink:href="#linear-gradient"/>
                            <linearGradient id="linear-gradient-4" x1="220.92" y1="225.04" x2="464.95" y2="225.04" xlink:href="#linear-gradient"/>
                            <linearGradient id="linear-gradient-5" x1="30.15" y1="324.74" x2="334.24" y2="324.74" xlink:href="#linear-gradient"/>
                            <linearGradient id="linear-gradient-6" x1="119.55" y1="293.61" x2="152.44" y2="236.63" gradientTransform="matrix(-1, 0, 0, 1, 464.95, 0)" gradientUnits="userSpaceOnUse"><stop offset="0" stop-color="#1363d6" stop-opacity="0.2"/><stop offset="1" stop-color="#1363d6"/></linearGradient>
                            <linearGradient id="linear-gradient-7" x1="134.59" y1="393.98" x2="161.83" y2="346.79" xlink:href="#linear-gradient-6"/>
                            <linearGradient id="linear-gradient-8" x1="241.86" y1="354.1" x2="292.32" y2="266.71" xlink:href="#linear-gradient-6"/>
                            <linearGradient id="linear-gradient-9" x1="348.45" y1="268.65" x2="371.64" y2="228.48" xlink:href="#linear-gradient-6"/>
                            <linearGradient id="linear-gradient-10" x1="329.57" y1="375.96" x2="357.05" y2="328.38" xlink:href="#linear-gradient-6"/>
                            <linearGradient id="linear-gradient-11" x1="141.4" y1="183.44" x2="196.38" y2="183.44" gradientTransform="matrix(-1, 0, 0, 1, 464.95, 0)" gradientUnits="userSpaceOnUse">
                                <stop offset="0" stop-color="#4851ff"/><stop offset="1" stop-color="#4851ff" stop-opacity="0.2"/></linearGradient>
                            <linearGradient id="linear-gradient-12" x1="336.85" y1="250.53" x2="336.85" y2="130.65" gradientTransform="matrix(-1, 0, 0, 1, 464.95, 0)" gradientUnits="userSpaceOnUse"><stop offset="0" stop-color="#2e52e8" stop-opacity="0.4"/><stop offset="1" stop-color="#fff" stop-opacity="0"/></linearGradient>
                            <linearGradient id="linear-gradient-13" x1="383.24" y1="250.53" x2="383.24" y2="130.65" gradientTransform="matrix(-1, 0, 0, 1, 464.95, 0)" gradientUnits="userSpaceOnUse"><stop offset="0" stop-color="#2e52e8" stop-opacity="0.5"/><stop offset="1" stop-color="#fff" stop-opacity="0"/></linearGradient>
                            <clipPath id="clip-path"><polygon class="cls-1" points="104.9 157.43 104.9 250.53 58.52 223.75 58.52 130.65 104.9 157.43"/></clipPath>
                            <linearGradient id="linear-gradient-14" x1="370.58" y1="127.99" x2="370.58" y2="257.05" gradientTransform="matrix(1, 0, 0, -1, -276.22, 385.04)" gradientUnits="userSpaceOnUse"><stop offset="0" stop-color="aqua" stop-opacity="0.3"/><stop offset="1" stop-color="#fff" stop-opacity="0"/></linearGradient>
                            <linearGradient id="linear-gradient-15" x1="382.95" y1="123.56" x2="382.95" y2="252.62" gradientTransform="matrix(1, 0, 0, -1, -300.95, 376.18)" xlink:href="#linear-gradient-14"/>
                            <linearGradient id="linear-gradient-16" x1="393.82" y1="120.18" x2="393.82" y2="249.23" gradientTransform="matrix(1, 0, 0, -1, -322.7, 369.41)" xlink:href="#linear-gradient-14"/>
                            <clipPath id="clip-path-2"><polygon class="cls-1" points="104.9 157.43 104.9 250.53 151.28 223.75 151.28 130.65 104.9 157.43"/></clipPath>
                            <linearGradient id="linear-gradient-17" x1="336.85" y1="127.99" x2="336.85" y2="257.05" gradientTransform="matrix(1, 0, 0, -1, -208.76, 385.04)" xlink:href="#linear-gradient-14"/>
                            <linearGradient id="linear-gradient-18" x1="352.6" y1="130.01" x2="352.6" y2="259.07" gradientTransform="matrix(1, 0, 0, -1, -240.25, 389.08)" xlink:href="#linear-gradient-14"/>
                            <linearGradient id="linear-gradient-19" x1="353.16" y1="132.21" x2="366.93" y2="108.37" gradientTransform="matrix(-0.14, -0.99, -0.99, 0.14, 274.43, 459.94)" gradientUnits="userSpaceOnUse"><stop offset="0" stop-color="#3dcaff"/><stop offset="0.6" stop-color="#6ee6f9"/><stop offset="1" stop-color="#8af7f5"/></linearGradient>
                            <linearGradient id="linear-gradient-20" x1="355.42" y1="128.3" x2="364.67" y2="112.28" xlink:href="#linear-gradient-19"/>
                            <linearGradient id="linear-gradient-21" x1="357.15" y1="125.31" x2="362.94" y2="115.27" gradientTransform="matrix(-1, 0, 0, 1, 464.95, 0)" xlink:href="#linear-gradient-19"/>
                            <linearGradient id="linear-gradient-22" x1="220.98" y1="229.97" x2="250.29" y2="229.97" xlink:href="#linear-gradient-11"/>
                            <linearGradient id="linear-gradient-23" x1="223.14" y1="237.26" x2="238.85" y2="237.26" xlink:href="#linear-gradient-11"/>
                            <linearGradient id="linear-gradient-24" x1="236.11" y1="241.47" x2="239.74" y2="241.47" xlink:href="#linear-gradient-11"/>
                            <linearGradient id="linear-gradient-25" x1="268.4" y1="321.89" x2="275.91" y2="308.88" gradientTransform="matrix(-1, 0, 0, 1, 464.95, 0)" xlink:href="#linear-gradient-19"/>
                            <linearGradient id="linear-gradient-26" x1="269.63" y1="319.76" x2="274.68" y2="311.02" gradientTransform="matrix(-1, 0, 0, 1, 464.95, 0)" xlink:href="#linear-gradient-19"/>
                            <linearGradient id="linear-gradient-27" x1="270.58" y1="318.13" x2="273.74" y2="312.65" gradientTransform="matrix(-1, 0, 0, 1, 464.95, 0)" xlink:href="#linear-gradient-19"/>
                            <linearGradient id="linear-gradient-28" x1="140.57" y1="369.91" x2="155.91" y2="343.34" gradientTransform="matrix(-0.14, -0.99, -0.99, 0.14, 690.58, 453.46)" xlink:href="#linear-gradient-19"/>
                            <linearGradient id="linear-gradient-29" x1="143.09" y1="365.55" x2="153.39" y2="347.7" gradientTransform="matrix(-0.14, -0.99, -0.99, 0.14, 690.58, 453.45)" xlink:href="#linear-gradient-19"/>
                            <linearGradient id="linear-gradient-30" x1="145.01" y1="362.22" x2="151.47" y2="351.03" gradientTransform="matrix(-0.14, -0.99, -0.99, 0.14, 690.58, 453.46)" xlink:href="#linear-gradient-19"/>
                            <linearGradient id="linear-gradient-31" x1="338.88" y1="342.55" x2="347.77" y2="327.15" gradientTransform="matrix(-1, 0, 0, 1, 464.95, 0)" xlink:href="#linear-gradient-19"/>
                            <linearGradient id="linear-gradient-32" x1="340.37" y1="339.97" x2="346.28" y2="329.73" gradientTransform="matrix(-0.14, -0.99, -0.99, 0.14, 501.25, 627.89)" xlink:href="#linear-gradient-19"/>
                            <linearGradient id="linear-gradient-33" x1="341.75" y1="337.59" x2="344.91" y2="332.11" gradientTransform="matrix(-1, 0, 0, 1, 464.95, 0)" xlink:href="#linear-gradient-19"/>
                            <linearGradient id="linear-gradient-34" x1="159.88" y1="44.99" x2="175.74" y2="17.52" gradientTransform="matrix(-1, 0, 0, 1, 464.95, 0)" gradientUnits="userSpaceOnUse">
                                <stop offset="0" stop-color="#05619c"/><stop offset="0.61" stop-color="#0d96c2"/><stop offset="1" stop-color="#11b2d6"/></linearGradient>
                            <linearGradient id="linear-gradient-35" x1="112.87" y1="83.08" x2="125.87" y2="60.55" gradientTransform="matrix(-1, 0, 0, 1, 464.95, 0)" gradientUnits="userSpaceOnUse">
                                <stop offset="0" stop-color="#003d83"/><stop offset="0.19" stop-color="#055d9a"/><stop offset="0.57" stop-color="#0d96c2"/><stop offset="0.85" stop-color="#12b9db"/>
                                <stop offset="1" stop-color="#14c7e5"/></linearGradient>
                            <linearGradient id="linear-gradient-36" x1="132.06" y1="65.11" x2="157.6" y2="20.86" gradientTransform="matrix(-1, 0, 0, 1, 464.95, 0)" gradientUnits="userSpaceOnUse"><stop offset="0" stop-color="#05619c"/><stop offset="0.45" stop-color="#0d96c2"/><stop offset="0.81" stop-color="#12badb"/><stop offset="1" stop-color="#14c7e5"/></linearGradient>
                            <linearGradient id="linear-gradient-37" x1="132.18" y1="94.23" x2="176.31" y2="17.79" gradientTransform="matrix(-1, 0, 0, 1, 464.95, 0)" xlink:href="#linear-gradient-19"/></defs>
                        <title>Asset 2</title><g id="Layer_2" data-name="Layer 2"><g id="OBJECTS"><line class="cls-2" x1="452.45" y1="299.65" x2="247.41" y2="416.09"/>
                        <line class="cls-3" x1="363.17" y1="216.42" x2="16.37" y2="413.36"/><line class="cls-4" x1="250.86" y1="213.74" x2="15.6" y2="347.35"/>
                        <line class="cls-5" x1="231.53" y1="162.85" x2="12.5" y2="287.23"/><line class="cls-6" x1="417.3" y1="248.33" x2="148.2" y2="401.15"/>
                        <polygon class="cls-7" points="404.99 265.12 328.95 221.22 252.91 265.12 328.95 309.02 404.99 265.12"/>
                        <polygon class="cls-8" points="263.16 265.12 328.95 227.13 394.74 265.12 328.95 303.1 263.16 265.12"/>
                        <path class="cls-9 contact_location" d="M332.1,334.75l46.32,26.75a2.73,2.73,0,0,1,0,4.73L309.89,405.8a8.15,8.15,0,0,1-8.08,0l-46.74-26.55a2.73,2.73,0,0,1,0-4.74L324,334.75A8.16,8.16,0,0,1,332.1,334.75Z"/>
                        <path class="cls-7 contact_location" d="M388.33,361.3,332.42,329a8.79,8.79,0,0,0-8.79,0l-78.55,45.35a3,3,0,0,0,0,5.13l56.4,32a8.79,8.79,0,0,0,8.74,0l78.09-45.08A3,3,0,0,0,388.33,361.3Z"/>
                        <path class="cls-10 contact_location" d="M183.19,261.26l100.36,57.93L213.43,359a5.27,5.27,0,0,1-5.2,0l-93.8-54.16a2.62,2.62,0,0,1,0-4.54Z"/>
                        <path class="cls-7 contact_location" d="M293.86,319.23,183.22,255.35l-78.9,44.8a2.74,2.74,0,0,0,0,4.76l102.91,59.42a7.24,7.24,0,0,0,7.18,0Z"/>
                        <polygon class="cls-7" points="161.53 248.57 104.9 215.87 48.27 248.57 104.9 281.26 161.53 248.57"/>
                        <polygon class="cls-11" points="58.52 248.57 104.9 221.79 151.28 248.57 104.9 275.35 58.52 248.57"/>
                        <path class="cls-12 contact_location" d="M83.12,342.69l22.47-12.77a4.71,4.71,0,0,1,4.68,0l49.9,28.81a1.67,1.67,0,0,1,0,2.9l-22.48,12.77a4.72,4.72,0,0,1-4.67,0l-49.9-28.81A1.67,1.67,0,0,1,83.12,342.69Z"/>
                        <path class="cls-7 contact_location" d="M170.8,359l-59.38-34.28a7,7,0,0,0-6.94,0l-32,18.17a1.46,1.46,0,0,0,0,2.54l59.39,34.28a7,7,0,0,0,6.93,0l32-18.18A1.46,1.46,0,0,0,170.8,359Z"/>
                        <line class="cls-7" x1="264.03" y1="336.17" x2="287.62" y2="349.78"/><line class="cls-7" x1="137.06" y1="262.86" x2="153.39" y2="272.29"/>
                        <line class="cls-7" x1="149.18" y1="330.98" x2="126.29" y2="344.19"/><line class="cls-7" x1="295.66" y1="290.03" x2="272.4" y2="303.46"/>
                        <polygon class="cls-13" points="328.95 284.93 263.16 246.94 263.16 81.95 328.95 119.94 328.95 284.93"/>
                        <polygon class="cls-14" points="263.16 81.95 328.95 43.97 394.74 81.95 328.95 119.94 263.16 81.95"/>
                        <polygon class="cls-15" points="287.42 81.95 370.49 78.2 370.49 81.95 328.95 105.93 287.42 81.95"/>
                        <polygon class="cls-13" points="287.42 81.95 287.42 78.2 328.95 102.18 328.95 105.93 287.42 81.95"/>
                        <polygon class="cls-16" points="287.42 78.2 328.95 54.22 370.49 78.2 328.95 102.18 287.42 78.2"/>
                        <polygon class="cls-17" points="351.11 73.17 352.15 73.77 321.27 91.6 320.23 90.99 351.11 73.17"/>
                        <polygon class="cls-17" points="328.51 95.78 327.47 95.17 358.35 77.34 359.39 77.95 328.51 95.78"/>
                        <polygon class="cls-17" points="354.73 75.26 355.77 75.86 324.89 93.69 323.85 93.08 354.73 75.26"/>
                        <polygon class="cls-17" points="347.49 71.08 348.53 71.68 317.65 89.51 316.61 88.9 347.49 71.08"/>
                        <polygon class="cls-17" points="329.39 60.63 330.44 61.23 299.56 79.06 298.52 78.46 329.39 60.63"/>
                        <polygon class="cls-17" points="336.63 64.81 337.68 65.41 306.8 83.24 305.75 82.64 336.63 64.81"/>
                        <polygon class="cls-17" points="343.87 68.99 344.91 69.59 314.04 87.42 312.99 86.81 343.87 68.99"/>
                        <polygon class="cls-17" points="333.01 62.72 334.06 63.32 303.18 81.15 302.13 80.55 333.01 62.72"/>
                        <polygon class="cls-17" points="340.25 66.9 341.29 67.5 310.42 85.33 309.37 84.72 340.25 66.9"/>
                        <polygon class="cls-18" points="330.45 120.8 393.24 84.55 393.24 246.08 330.45 282.33 330.45 120.8"/>
                        <path class="cls-15" d="M391.74,87.15V245.21L332,279.73V121.67l59.79-34.52m3-5.2-65.79,38v165l65.79-38V82Z"/>
                        <path class="cls-19" d="M342.07,141.72v6.64L337,151.29v-6.64Zm10.56.54,34.08-19.68v-6.64l-34.08,19.68Zm-7.85-2.11v6.64l5.15-3v-6.64Z"/>
                        <path class="cls-20" d="M341.35,148v-5.87l.72-.41v6.64L337,151.29v-.77Zm11.28-6.52v.78l34.08-19.68v-6.64l-.72.42v5.86ZM344.78,146v.77l5.15-3v-6.64l-.72.42v5.86Z"/>
                        <path class="cls-21 contact_location" d="M340.06,146a2.39,2.39,0,0,1-1.81,1.5c-.63,0-.85-.67-.48-1.5a2.39,2.39,0,0,1,1.81-1.5C340.21,144.48,340.43,145.15,340.06,146Z"/>
                        <path class="cls-20 contact_location" d="M337.81,147.25a2.41,2.41,0,0,0,1.81-1.5,1.27,1.27,0,0,0,0-1.26c.58,0,.76.7.41,1.49a2.39,2.39,0,0,1-1.81,1.5.6.6,0,0,1-.51-.24Z"/>
                        <path class="cls-19 contact_location" d="M342.07,155.58v6.64L337,165.16v-6.64Zm10.56.54,34.08-19.68V129.8l-34.08,19.68Zm-7.85-2.1v6.64l5.15-3V151Z"/>
                        <path class="cls-20 contact_location" d="M341.35,161.86V156l.72-.42v6.64L337,165.16v-.78Zm11.28-6.52v.78l34.08-19.68V129.8l-.72.42v5.86Zm-7.85,4.54v.78l5.15-3V151l-.72.42v5.86Z"/>
                        <path class="cls-21 contact_location" d="M340.06,159.84a2.39,2.39,0,0,1-1.81,1.5c-.63,0-.85-.67-.48-1.5a2.39,2.39,0,0,1,1.81-1.5C340.21,158.34,340.43,159,340.06,159.84Z"/>
                        <path class="cls-20 contact_location" d="M337.81,161.11a2.39,2.39,0,0,0,1.81-1.5,1.27,1.27,0,0,0,0-1.26c.58.06.76.7.41,1.49a2.39,2.39,0,0,1-1.81,1.5.6.6,0,0,1-.51-.24Z"/>
                        <path class="cls-19 contact_location" d="M342.07,169.44v6.64L337,179v-6.64Zm10.56.54,34.08-19.67v-6.64l-34.08,19.67Zm-7.85-2.1v6.64l5.15-3v-6.64Z"/>
                        <path class="cls-20" d="M341.35,175.72v-5.86l.72-.42v6.64L337,179v-.78Zm11.28-6.51V170l34.08-19.67v-6.64l-.72.41V150Zm-7.85,4.53v.78l5.15-3v-6.64l-.72.41v5.87Z"/>
                        <path class="cls-21" d="M340.06,173.71a2.39,2.39,0,0,1-1.81,1.5c-.63,0-.85-.67-.48-1.5a2.4,2.4,0,0,1,1.81-1.51C340.21,172.2,340.43,172.88,340.06,173.71Z"/>
                        <path class="cls-20" d="M337.81,175a2.39,2.39,0,0,0,1.81-1.5,1.27,1.27,0,0,0,0-1.26c.58.06.76.7.41,1.5a2.39,2.39,0,0,1-1.81,1.5.58.58,0,0,1-.51-.25Z"/>
                        <path class="cls-19" d="M342.07,183.31V190L337,192.88v-6.64Zm10.56.54,34.08-19.68v-6.64l-34.08,19.68Zm-7.85-2.11v6.64l5.15-3v-6.64Z"/>
                        <path class="cls-20" d="M341.35,189.59v-5.87l.72-.41V190L337,192.88v-.77Zm11.28-6.52v.78l34.08-19.68v-6.64L386,158v5.86Zm-7.85,4.54v.77l5.15-3v-6.64l-.72.42v5.86Z"/>
                        <path class="cls-21" d="M340.06,187.57a2.39,2.39,0,0,1-1.81,1.5c-.63,0-.85-.67-.48-1.5a2.39,2.39,0,0,1,1.81-1.5C340.21,186.07,340.43,186.74,340.06,187.57Z"/>
                        <path class="cls-20" d="M337.81,188.84a2.39,2.39,0,0,0,1.81-1.5,1.27,1.27,0,0,0,0-1.26c.58,0,.76.7.41,1.49a2.39,2.39,0,0,1-1.81,1.5.6.6,0,0,1-.51-.24Z"/>
                        <path class="cls-19" d="M342.07,197.17v6.64L337,206.75v-6.64Zm10.56.54L386.71,178v-6.64l-34.08,19.68Zm-7.85-2.1v6.64l5.15-3v-6.64Z"/>
                        <path class="cls-20" d="M341.35,203.45v-5.86l.72-.42v6.64L337,206.75V206Zm11.28-6.52v.78L386.71,178v-6.64l-.72.42v5.86Zm-7.85,4.54v.78l5.15-3v-6.64l-.72.42v5.86Z"/>
                        <path class="cls-21" d="M340.06,201.43a2.39,2.39,0,0,1-1.81,1.5c-.63,0-.85-.67-.48-1.5a2.39,2.39,0,0,1,1.81-1.5C340.21,199.93,340.43,200.6,340.06,201.43Z"/>
                        <path class="cls-20" d="M337.81,202.7a2.39,2.39,0,0,0,1.81-1.5,1.27,1.27,0,0,0,0-1.26c.58.06.76.7.41,1.49a2.39,2.39,0,0,1-1.81,1.5.6.6,0,0,1-.51-.24Z"/>
                        <path class="cls-19" d="M342.07,211v6.64L337,220.61V214Zm10.56.54,34.08-19.67v-6.64l-34.08,19.68Zm-7.85-2.1v6.64l5.15-3V206.5Z"/>
                        <path class="cls-20" d="M341.35,217.31v-5.86l.72-.42v6.64L337,220.61v-.78Zm11.28-6.51v.77l34.08-19.67v-6.64l-.72.41v5.87Zm-7.85,4.53v.78l5.15-3V206.5l-.72.41v5.87Z"/>
                        <path class="cls-21" d="M340.06,215.3a2.39,2.39,0,0,1-1.81,1.5c-.63,0-.85-.67-.48-1.5a2.4,2.4,0,0,1,1.81-1.51C340.21,213.79,340.43,214.47,340.06,215.3Z"/>
                        <path class="cls-20" d="M337.81,216.56a2.39,2.39,0,0,0,1.81-1.5,1.26,1.26,0,0,0,0-1.25c.58.05.76.69.41,1.49a2.39,2.39,0,0,1-1.81,1.5.58.58,0,0,1-.51-.25Z"/>
                        <path class="cls-19" d="M342.07,224.9v6.64L337,234.47v-6.63Zm10.56.54,34.08-19.68v-6.64L352.63,218.8Zm-7.85-2.1V230l5.15-3v-6.64Z"/>
                        <path class="cls-20" d="M341.35,231.18v-5.87l.72-.41v6.64L337,234.47v-.77Zm11.28-6.52v.78l34.08-19.68v-6.64l-.72.42v5.86Zm-7.85,4.54V230l5.15-3v-6.64l-.72.42v5.86Z"/>
                        <path class="cls-21" d="M340.06,229.16a2.39,2.39,0,0,1-1.81,1.5c-.63,0-.85-.67-.48-1.5a2.39,2.39,0,0,1,1.81-1.5C340.21,227.66,340.43,228.33,340.06,229.16Z"/>
                        <path class="cls-20" d="M337.81,230.43a2.39,2.39,0,0,0,1.81-1.5,1.27,1.27,0,0,0,0-1.26c.58.05.76.7.41,1.49a2.39,2.39,0,0,1-1.81,1.5.6.6,0,0,1-.51-.24Z"/>
                        <polygon class="cls-22" points="383.47 239.91 386.71 238.03 386.71 211.6 383.47 213.48 383.47 239.91"/>
                        <polygon class="cls-22" points="376.82 243.71 380.07 241.83 380.07 215.4 376.82 217.27 376.82 243.71"/>
                        <polygon class="cls-22" points="370.19 247.5 373.43 245.62 373.43 219.19 370.19 221.07 370.19 247.5"/>
                        <polygon class="cls-22" points="363.54 251.29 366.79 249.42 366.79 222.99 363.54 224.86 363.54 251.29"/>
                        <polygon class="cls-22" points="356.9 255.09 360.15 253.21 360.15 226.78 356.9 228.66 356.9 255.09"/>
                        <polygon class="cls-22" points="350.26 258.88 353.51 257.01 353.51 230.58 350.26 232.45 350.26 258.88"/>
                        <polygon class="cls-22" points="343.62 262.68 346.87 260.8 346.87 234.37 343.62 236.25 343.62 262.68"/>
                        <polygon class="cls-22" points="336.98 266.47 340.23 264.6 340.23 238.17 336.98 240.04 336.98 266.47"/>
                        <polygon class="cls-22" points="350.26 131.3 350.26 117.39 353.51 115.51 353.51 129.43 350.26 131.3"/>
                        <polygon class="cls-22" points="356.9 127.47 356.9 113.59 360.15 111.72 360.15 125.59 356.9 127.47"/>
                        <polygon class="cls-22" points="336.98 138.97 336.98 124.97 340.23 123.1 340.23 137.09 336.98 138.97"/>
                        <polygon class="cls-22" points="343.62 135.13 343.62 121.18 346.87 119.3 346.87 133.26 343.62 135.13"/>
                        <polygon class="cls-22" points="383.47 112.13 383.47 98.41 386.71 96.54 386.71 110.25 383.47 112.13"/>
                        <polygon class="cls-22" points="363.54 123.63 363.54 109.8 366.79 107.92 366.79 121.76 363.54 123.63"/>
                        <polygon class="cls-22" points="376.82 115.97 376.82 102.21 380.07 100.33 380.07 114.09 376.82 115.97"/>
                        <polygon class="cls-22" points="370.19 119.8 370.19 106 373.43 104.13 373.43 117.92 370.19 119.8"/>
                        <path class="cls-23 contact_location" d="M320.23,133.38V140l-5.09-2.94v-6.64Zm-15.65-9L270.5,104.66v6.64L304.58,131Zm2.7,1.56v6.64l5.16,3v-6.64Zm13,17.85v6.64l-5.09-2.94v-6.64Zm-15.65-9L270.5,115v6.64l34.08,19.67Zm2.7,1.57v6.63l5.16,3v-6.64Zm13,17.84v6.64l-5.09-2.94v-6.64Zm-15.65-9L270.5,125.41v6.64l34.08,19.67Zm2.7,1.56v6.64l5.16,3v-6.64Zm-38.47-9.86-.24-.14V97l54.73,31.61.25.14v39.61Zm.74-38.06v37.35l53,30.61V129.34Zm50.68,85.37v6.64l-5.09-2.93v-6.64Zm-15.65-9L270.5,155.39V162l34.08,19.68Zm2.7,1.56v6.64l5.16,3V179.6Zm13,17.85v6.64l-5.09-2.94v-6.64Zm-15.65-9L270.5,165.76v6.64l34.08,19.68Zm2.7,1.56v6.64l5.16,3V190Zm13,17.85v6.64l-5.09-2.94v-6.64Zm-15.65-9L270.5,176.14v6.63l34.08,19.68Zm2.7,1.56V204l5.16,3v-6.64Zm-38.47-9.85-.24-.14V147.76l54.73,31.6.25.14v39.62Zm.74-38.06v37.35l53,30.61V180.07Zm50.68,85.37v6.64l-5.09-2.94v-6.64Zm-15.65-9L270.5,206.12v6.64l34.08,19.68Zm2.7,1.56V234l5.16,3v-6.64Zm13,17.84v6.64l-5.09-2.93v-6.64Zm-15.65-9L270.5,216.49v6.64l34.08,19.68Zm2.7,1.56v6.64l5.16,3V240.7Zm13,17.85v6.64l-5.09-2.94v-6.64Zm-15.65-9L270.5,226.86v6.64l34.08,19.68Zm2.7,1.56v6.64l5.16,3v-6.64Zm-38.47-9.86-.24-.14V198.49l54.73,31.6.25.14v39.62Zm.74-38.05v37.35l53,30.61V230.8Z"/><polygon class="cls-15" points="104.9 250.53 151.28 223.75 151.28 230.28 104.9 257.06 104.9 250.53"/><polygon class="cls-14" points="62.52 223.75 104.9 199.28 147.28 223.75 104.9 248.22 62.52 223.75"/><path class="cls-24" d="M104.9,201.59l38.38,22.16L104.9,245.91,66.51,223.75l38.39-22.16m0-4.62L58.51,223.75l46.39,26.78,46.38-26.78L104.9,197Z"/>
                        <polygon class="cls-13" points="58.52 230.28 58.52 223.75 104.9 250.53 104.9 257.06 58.52 230.28"/>
                        <polygon class="cls-25" points="71.12 222.66 104.9 203.16 138.68 222.66 104.9 242.16 71.12 222.66"/>
                        <polygon class="cls-25" points="58.52 124.12 104.9 97.34 151.28 124.12 104.9 150.9 58.52 124.12"/>
                        <polygon class="cls-15" points="104.9 150.9 151.28 124.12 151.28 130.65 104.9 157.43 104.9 150.9"/>
                        <polygon class="cls-13" points="58.52 130.65 58.52 124.12 104.9 150.9 104.9 157.43 58.52 130.65"/>
                        <polygon class="cls-14" points="62.52 124.12 104.9 99.65 147.28 124.12 104.9 148.59 62.52 124.12"/>
                        <path class="cls-24" d="M104.9,102l38.38,22.16L104.9,146.29,66.51,124.12,104.9,102m0-4.62L58.51,124.12,104.9,150.9l46.38-26.78L104.9,97.34Z"/>
                        <polygon class="cls-24" points="85.98 119.82 85.09 120.34 111.46 135.56 112.35 135.05 85.98 119.82"/>
                        <polygon class="cls-24" points="105.28 139.13 106.17 138.62 79.8 123.39 78.91 123.91 105.28 139.13"/>
                        <polygon class="cls-24" points="82.89 121.61 82 122.12 108.37 137.34 109.26 136.83 82.89 121.61"/>
                        <polygon class="cls-24" points="89.07 118.04 88.18 118.55 114.55 133.78 115.44 133.26 89.07 118.04"/>
                        <polygon class="cls-24" points="104.52 109.12 103.63 109.63 130 124.86 130.89 124.34 104.52 109.12"/>
                        <polygon class="cls-24" points="98.34 112.69 97.45 113.2 123.82 128.42 124.71 127.91 98.34 112.69"/>
                        <polygon class="cls-24" points="92.16 116.25 91.27 116.77 117.64 131.99 118.53 131.48 92.16 116.25"/>
                        <polygon class="cls-24" points="101.43 110.9 100.54 111.42 126.91 126.64 127.8 126.13 101.43 110.9"/>
                        <polygon class="cls-24" points="95.25 114.47 94.36 114.99 120.73 130.21 121.62 129.69 95.25 114.47"/>
                        <polygon class="cls-26" points="104.9 242.16 138.68 222.66 138.68 137.93 104.9 157.43 104.9 242.16"/>
                        <polygon class="cls-27" points="104.9 242.16 71.12 222.66 71.12 137.93 104.9 157.43 104.9 242.16"/>
                        <polygon class="cls-26" points="97.38 155.73 100.67 157.63 100.67 159.56 97.38 157.65 97.38 155.73"/>
                        <polygon class="cls-26" points="97.38 161.49 100.67 163.39 100.67 165.31 97.38 163.41 97.38 161.49"/>
                        <polygon class="cls-26" points="96.35 155.14 96.35 157.06 77.75 146.32 77.75 144.4 96.35 155.14"/>
                        <polygon class="cls-26" points="96.35 172.41 96.35 174.33 77.75 163.59 77.75 161.67 96.35 172.41"/>
                        <polygon class="cls-26" points="96.35 166.65 96.35 168.57 77.75 157.84 77.75 155.91 96.35 166.65"/>
                        <polygon class="cls-26" points="96.35 160.9 96.35 162.82 77.75 152.08 77.75 150.16 96.35 160.9"/>
                        <polygon class="cls-26" points="97.38 184.52 100.67 186.42 100.67 188.34 97.38 186.44 97.38 184.52"/>
                        <polygon class="cls-26" points="97.38 178.76 100.67 180.66 100.67 182.58 97.38 180.68 97.38 178.76"/>
                        <polygon class="cls-26" points="97.38 173 100.67 174.91 100.67 176.83 97.38 174.92 97.38 173"/>
                        <polygon class="cls-26" points="97.38 167.25 100.67 169.15 100.67 171.07 97.38 169.17 97.38 167.25"/>
                        <polygon class="cls-26" points="96.35 212.71 96.35 214.63 77.75 203.89 77.75 201.97 96.35 212.71"/>
                        <polygon class="cls-26" points="96.35 218.47 96.35 220.39 77.75 209.65 77.75 207.73 96.35 218.47"/>
                        <polygon class="cls-26" points="97.38 190.27 100.67 192.18 100.67 194.1 97.38 192.19 97.38 190.27"/>
                        <polygon class="cls-26" points="96.35 206.95 96.35 208.87 77.75 198.14 77.75 196.21 96.35 206.95"/>
                        <polygon class="cls-26" points="96.35 224.22 96.35 226.15 77.75 215.41 77.75 213.49 96.35 224.22"/>
                        <polygon class="cls-26" points="77.75 221.16 77.75 219.24 96.35 229.98 96.35 231.9 77.75 221.16"/>
                        <polygon class="cls-26" points="96.35 183.93 96.35 185.85 77.75 175.11 77.75 173.19 96.35 183.93"/>
                        <polygon class="cls-26" points="96.35 178.17 96.35 180.09 77.75 169.35 77.75 167.43 96.35 178.17"/>
                        <polygon class="cls-26" points="96.35 201.2 96.35 203.12 77.75 192.38 77.75 190.46 96.35 201.2"/>
                        <polygon class="cls-26" points="96.35 189.68 96.35 191.6 77.75 180.86 77.75 178.94 96.35 189.68"/>
                        <polygon class="cls-26" points="96.35 195.44 96.35 197.36 77.75 186.62 77.75 184.7 96.35 195.44"/>
                        <polygon class="cls-26" points="76.73 163 74.03 161.44 74.03 159.52 76.73 161.08 76.73 163"/>
                        <polygon class="cls-26" points="76.73 186.03 74.03 184.47 74.03 182.55 76.73 184.11 76.73 186.03"/>
                        <polygon class="cls-26" points="76.73 174.52 74.03 172.96 74.03 171.04 76.73 172.59 76.73 174.52"/>
                        <polygon class="cls-26" points="76.73 180.27 74.03 178.72 74.03 176.79 76.73 178.35 76.73 180.27"/>
                        <polygon class="cls-26" points="76.73 197.54 74.03 195.99 74.03 194.07 76.73 195.62 76.73 197.54"/>
                        <polygon class="cls-26" points="76.73 191.79 74.03 190.23 74.03 188.31 76.73 189.87 76.73 191.79"/>
                        <polygon class="cls-26" points="76.73 203.3 74.03 201.75 74.03 199.82 76.73 201.38 76.73 203.3"/>
                        <polygon class="cls-26" points="76.73 168.76 74.03 167.2 74.03 165.28 76.73 166.84 76.73 168.76"/>
                        <polygon class="cls-26" points="76.73 143.81 76.73 145.73 74.03 144.17 74.03 142.25 76.73 143.81"/>
                        <polygon class="cls-26" points="76.73 151.49 74.03 149.93 74.03 148.01 76.73 149.57 76.73 151.49"/>
                        <polygon class="cls-26" points="76.73 157.25 74.03 155.69 74.03 153.77 76.73 155.32 76.73 157.25"/>
                        <polygon class="cls-26" points="97.38 219.06 100.67 220.96 100.67 222.88 97.38 220.98 97.38 219.06"/>
                        <polygon class="cls-26" points="97.38 207.54 100.67 209.45 100.67 211.37 97.38 209.47 97.38 207.54"/>
                        <polygon class="cls-26" points="97.38 196.03 100.67 197.93 100.67 199.85 97.38 197.95 97.38 196.03"/>
                        <polygon class="cls-26" points="97.38 213.3 100.67 215.21 100.67 217.13 97.38 215.22 97.38 213.3"/>
                        <polygon class="cls-26" points="97.38 201.79 100.67 203.69 100.67 205.61 97.38 203.71 97.38 201.79"/>
                        <polygon class="cls-26" points="97.38 230.57 100.67 232.48 100.67 234.4 97.38 232.49 97.38 230.57"/>
                        <polygon class="cls-26" points="76.73 214.81 74.03 213.26 74.03 211.34 76.73 212.89 76.73 214.81"/>
                        <polygon class="cls-26" points="97.38 224.82 100.67 226.72 100.67 228.64 97.38 226.74 97.38 224.82"/>
                        <polygon class="cls-26" points="76.73 220.57 74.03 219.02 74.03 217.09 76.73 218.65 76.73 220.57"/>
                        <polygon class="cls-26" points="76.73 209.06 74.03 207.5 74.03 205.58 76.73 207.14 76.73 209.06"/>
                        <polygon class="cls-28" points="115.17 206.06 115.17 207.98 112.68 209.41 112.68 207.49 115.17 206.06"/>
                        <polygon class="cls-28" points="115.17 200.3 115.17 202.22 112.68 203.65 112.68 201.73 115.17 200.3"/>
                        <polygon class="cls-28" points="115.17 194.54 115.17 196.46 112.68 197.9 112.68 195.97 115.17 194.54"/>
                        <polygon class="cls-28" points="115.17 211.81 115.17 213.74 112.68 215.17 112.68 213.25 115.17 211.81"/>
                        <polygon class="cls-28" points="115.17 223.33 115.17 225.25 112.68 226.68 112.68 224.76 115.17 223.33"/>
                        <polygon class="cls-28" points="115.17 217.57 115.17 219.49 112.68 220.93 112.68 219 115.17 217.57"/>
                        <polygon class="cls-28" points="115.17 177.27 115.17 179.19 112.68 180.63 112.68 178.7 115.17 177.27"/>
                        <polygon class="cls-28" points="115.17 165.76 115.17 167.68 112.68 169.11 112.68 167.19 115.17 165.76"/>
                        <polygon class="cls-28" points="115.17 160 115.17 161.92 112.68 163.35 112.68 161.43 115.17 160"/>
                        <polygon class="cls-28" points="115.17 171.51 115.17 173.44 112.68 174.87 112.68 172.95 115.17 171.51"/>
                        <polygon class="cls-28" points="115.17 188.78 115.17 190.71 112.68 192.14 112.68 190.22 115.17 188.78"/>
                        <polygon class="cls-28" points="112.68 230.52 115.17 229.09 115.17 231.01 112.68 232.44 112.68 230.52"/>
                        <polygon class="cls-28" points="115.17 183.03 115.17 184.95 112.68 186.38 112.68 184.46 115.17 183.03"/>
                        <polygon class="cls-28" points="116.19 213.14 116.19 211.22 118.67 209.79 118.67 211.71 116.19 213.14"/>
                        <polygon class="cls-28" points="116.19 190.12 116.19 188.19 118.67 186.76 118.67 188.68 116.19 190.12"/>
                        <polygon class="cls-28" points="116.19 167.09 116.19 165.16 118.67 163.73 118.67 165.65 116.19 167.09"/>
                        <polygon class="cls-28" points="116.19 184.36 116.19 182.44 118.67 181 118.67 182.93 116.19 184.36"/>
                        <polygon class="cls-28" points="116.19 172.84 116.19 170.92 118.67 169.49 118.67 171.41 116.19 172.84"/>
                        <polygon class="cls-28" points="118.67 152.22 118.67 154.14 116.19 155.57 116.19 153.65 118.67 152.22"/>
                        <polygon class="cls-28" points="116.19 161.33 116.19 159.41 118.67 157.97 118.67 159.9 116.19 161.33"/>
                        <polygon class="cls-28" points="116.19 201.63 116.19 199.71 118.67 198.28 118.67 200.2 116.19 201.63"/>
                        <polygon class="cls-28" points="116.19 218.9 116.19 216.98 118.67 215.55 118.67 217.47 116.19 218.9"/>
                        <polygon class="cls-28" points="116.19 224.66 116.19 222.74 118.67 221.3 118.67 223.22 116.19 224.66"/>
                        <polygon class="cls-28" points="115.17 154.24 115.17 156.16 112.68 157.6 112.68 155.68 115.17 154.24"/>
                        <polygon class="cls-28" points="116.19 207.39 116.19 205.47 118.67 204.03 118.67 205.95 116.19 207.39"/>
                        <polygon class="cls-28" points="116.19 195.87 116.19 193.95 118.67 192.52 118.67 194.44 116.19 195.87"/>
                        <polygon class="cls-28" points="116.19 230.41 116.19 228.49 118.67 227.06 118.67 228.98 116.19 230.41"/>
                        <polygon class="cls-28" points="116.19 178.6 116.19 176.68 118.67 175.25 118.67 177.17 116.19 178.6"/>
                        <polygon class="cls-28" points="111.66 210 109.29 211.37 109.29 209.45 111.66 208.08 111.66 210"/>
                        <polygon class="cls-28" points="111.66 192.73 109.29 194.1 109.29 192.18 111.66 190.81 111.66 192.73"/>
                        <polygon class="cls-28" points="119.7 151.63 135.93 142.25 135.93 144.17 119.7 153.55 119.7 151.63"/>
                        <polygon class="cls-28" points="111.66 204.25 109.29 205.61 109.29 203.69 111.66 202.32 111.66 204.25"/>
                        <polygon class="cls-28" points="111.66 227.27 109.29 228.64 109.29 226.72 111.66 225.35 111.66 227.27"/>
                        <polygon class="cls-28" points="111.66 233.03 109.29 234.4 109.29 232.48 111.66 231.11 111.66 233.03"/>
                        <polygon class="cls-28" points="111.66 215.76 109.29 217.13 109.29 215.21 111.66 213.84 111.66 215.76"/>
                        <polygon class="cls-28" points="111.66 221.52 109.29 222.88 109.29 220.96 111.66 219.59 111.66 221.52"/>
                        <polygon class="cls-28" points="111.66 163.95 109.29 165.31 109.29 163.39 111.66 162.03 111.66 163.95"/>
                        <polygon class="cls-28" points="111.66 186.97 109.29 188.34 109.29 186.42 111.66 185.05 111.66 186.97"/>
                        <polygon class="cls-28" points="111.66 156.27 111.66 158.19 109.29 159.56 109.29 157.63 111.66 156.27"/>
                        <polygon class="cls-28" points="111.66 169.7 109.29 171.07 109.29 169.15 111.66 167.78 111.66 169.7"/>
                        <polygon class="cls-28" points="111.66 181.22 109.29 182.58 109.29 180.66 111.66 179.3 111.66 181.22"/>
                        <polygon class="cls-28" points="111.66 175.46 109.29 176.83 109.29 174.91 111.66 173.54 111.66 175.46"/>
                        <polygon class="cls-28" points="111.66 198.49 109.29 199.85 109.29 197.93 111.66 196.57 111.66 198.49"/>
                        <polygon class="cls-28" points="119.7 168.9 135.93 159.52 135.93 161.44 119.7 170.82 119.7 168.9"/>
                        <polygon class="cls-28" points="119.7 174.66 135.93 165.28 135.93 167.2 119.7 176.58 119.7 174.66"/>
                        <polygon class="cls-28" points="119.7 180.41 135.93 171.04 135.93 172.96 119.7 182.33 119.7 180.41"/>
                        <polygon class="cls-28" points="119.7 163.14 135.93 153.77 135.93 155.69 119.7 165.06 119.7 163.14"/>
                        <polygon class="cls-28" points="119.7 186.17 135.93 176.79 135.93 178.72 119.7 188.09 119.7 186.17"/>
                        <polygon class="cls-28" points="119.7 157.38 135.93 148.01 135.93 149.93 119.7 159.31 119.7 157.38"/>
                        <polygon class="cls-28" points="119.7 197.68 135.93 188.31 135.93 190.23 119.7 199.6 119.7 197.68"/>
                        <polygon class="cls-28" points="119.7 191.93 135.93 182.55 135.93 184.47 119.7 193.85 119.7 191.93"/>
                        <polygon class="cls-28" points="119.7 214.95 135.93 205.58 135.93 207.5 119.7 216.88 119.7 214.95"/>
                        <polygon class="cls-28" points="119.7 220.71 135.93 211.34 135.93 213.26 119.7 222.63 119.7 220.71"/>
                        <polygon class="cls-28" points="119.7 209.2 135.93 199.82 135.93 201.75 119.7 211.12 119.7 209.2"/>
                        <polygon class="cls-28" points="119.7 226.47 135.93 217.09 135.93 219.02 119.7 228.39 119.7 226.47"/>
                        <polygon class="cls-28" points="119.7 203.44 135.93 194.07 135.93 195.99 119.7 205.36 119.7 203.44"/>
                        <polygon class="cls-29" points="104.9 157.43 104.9 250.53 151.28 223.75 151.28 130.65 104.9 157.43"/>
                        <polygon class="cls-30" points="104.9 157.43 104.9 250.53 58.52 223.75 58.52 130.65 104.9 157.43"/>
                        <g class="cls-31"><rect class="cls-32" x="89.65" y="127.99" width="9.43" height="129.06" transform="translate(188.72 385.04) rotate(-180)"/>
                            <rect class="cls-33" x="80.19" y="123.56" width="3.62" height="129.06" transform="translate(164 376.18) rotate(-180)"/>
                            <rect class="cls-34" x="66.84" y="120.18" width="8.57" height="129.06" transform="translate(142.24 369.41) rotate(-180)"/></g>
                        <g class="cls-35"><rect class="cls-36" x="123.53" y="127.99" width="9.12" height="129.06" transform="translate(256.18 385.04) rotate(-180)"/>
                            <rect class="cls-37" x="109.78" y="130.01" width="5.13" height="129.06" transform="translate(224.69 389.08) rotate(-180)"/></g>
                        <ellipse class="cls-38" cx="104.9" cy="120.29" rx="10.24" ry="18.09" transform="translate(-28.9 207.31) rotate(-81.95)"/>
                        <ellipse class="cls-39" cx="104.9" cy="120.29" rx="6.88" ry="12.16" transform="translate(-28.9 207.31) rotate(-81.95)"/>
                        <path class="cls-40 contact_location" d="M100.85,116.24c3.53-.95,8.2.1,10.44,2.34s1.19,4.82-2.34,5.76-8.2-.1-10.44-2.34S97.32,117.18,100.85,116.24Z"/>
                        <path class="cls-41 contact_location" d="M103.16,118.55a5.11,5.11,0,0,1,4.49,1c1,1,.51,2.07-1,2.48a5.07,5.07,0,0,1-4.49-1C101.19,120.06,101.64,119,103.16,118.55Z"/>
                        <path class="cls-42" d="M285.9,228.14v75l-2.35,1.31-98-59.25-1.3-75.08s1.61-.88,2.2-1.22a2,2,0,0,1,2,0l94.83,54.75A5.23,5.23,0,0,1,285.9,228.14Z"/>
                        <path class="cls-43" d="M283.55,229.45v75L183.19,246.52V171.85a1.94,1.94,0,0,1,2.91-1.68l94.83,54.75A5.24,5.24,0,0,1,283.55,229.45Z"/>
                        <polygon class="cls-44" points="278.67 228.23 278.67 296.75 186.1 243.43 186.1 174.91 278.67 228.23"/>
                        <path class="cls-42" d="M183.19,249.39l100.36,55.07v2.87l-70.12,39.82a5.22,5.22,0,0,1-5.2,0L114.43,293a2.6,2.6,0,0,1-1.31-2.25v-2.9Z"/>
                        <path class="cls-45" d="M183.19,246.52l100.36,57.94-70.12,39.82a5.24,5.24,0,0,1-5.2,0l-93.8-54.16a2.62,2.62,0,0,1,0-4.54Z"/>
                        <polygon class="cls-46" points="147.33 276.88 185.23 255.35 268.14 303.22 230.24 324.74 147.33 276.88"/>
                        <polygon class="cls-13" points="180.69 259.41 184.83 257.06 263.86 302.68 259.72 305.04 180.69 259.41"/>
                        <polygon class="cls-13" points="174.87 262.72 179.02 260.37 258.05 306 253.9 308.35 174.87 262.72"/>
                        <polygon class="cls-13" points="169.06 266.04 173.2 263.68 252.23 309.31 248.08 311.67 169.06 266.04"/>
                        <polygon class="cls-13" points="163.24 269.35 167.38 267 246.41 312.62 242.27 314.98 163.24 269.35"/>
                        <polygon class="cls-13" points="157.42 272.66 161.57 270.31 240.6 315.94 236.45 318.29 157.42 272.66"/>
                        <polygon class="cls-13" points="151.61 275.98 155.75 273.62 234.78 319.25 230.64 321.6 151.61 275.98"/>
                        <line class="cls-47" x1="258.05" y1="298.87" x2="247.18" y2="305.04"/>
                        <line class="cls-47" x1="253.04" y1="295.97" x2="247.61" y2="299.06"/>
                        <line class="cls-47" x1="243.31" y1="303.5" x2="237.88" y2="306.58"/>
                        <line class="cls-47" x1="234.27" y1="305.04" x2="228.83" y2="308.12"/><line class="cls-47" x1="231.55" y1="309.69" x2="226.12" y2="312.77"/>
                        <line class="cls-47" x1="227.71" y1="314.98" x2="222.27" y2="318.06"/><line class="cls-47" x1="223.65" y1="311.66" x2="218.21" y2="314.75"/>
                        <line class="cls-47" x1="188.08" y1="291.86" x2="182.64" y2="294.94"/><line class="cls-47" x1="183.4" y1="288.95" x2="177.97" y2="292.04"/>
                        <line class="cls-47" x1="178.73" y1="286.05" x2="173.3" y2="289.13"/><line class="cls-47" x1="174.06" y1="283.14" x2="168.63" y2="286.22"/>
                        <line class="cls-47" x1="160.14" y1="275.4" x2="154.71" y2="278.49"/><line class="cls-47" x1="218.44" y1="308.93" x2="213.01" y2="312.02"/>
                        <line class="cls-47" x1="248.59" y1="293.4" x2="243.16" y2="296.49"/><line class="cls-47" x1="244.15" y1="290.83" x2="238.71" y2="293.92"/>
                        <line class="cls-47" x1="239.7" y1="288.26" x2="234.27" y2="291.35"/><line class="cls-47" x1="235.25" y1="285.69" x2="229.82" y2="288.77"/>
                        <line class="cls-47" x1="230.81" y1="283.12" x2="225.37" y2="286.2"/><line class="cls-47" x1="226.36" y1="280.55" x2="220.93" y2="283.63"/>
                        <line class="cls-47" x1="221.92" y1="277.97" x2="216.48" y2="281.06"/><line class="cls-47" x1="217.47" y1="275.4" x2="212.04" y2="278.49"/>
                        <line class="cls-47" x1="213.02" y1="272.83" x2="207.59" y2="275.92"/><line class="cls-47" x1="208.58" y1="270.26" x2="203.14" y2="273.35"/>
                        <line class="cls-47" x1="204.13" y1="267.69" x2="198.7" y2="270.77"/><line class="cls-47" x1="199.68" y1="265.12" x2="194.25" y2="268.2"/>
                        <line class="cls-47" x1="195.24" y1="262.55" x2="189.8" y2="265.63"/><line class="cls-47" x1="190.79" y1="259.97" x2="185.36" y2="263.06"/>
                        <path class="cls-48" d="M184.12,303.13l26.52,15.31a.72.72,0,0,1,0,1.25L195.93,328a2.15,2.15,0,0,1-2.15,0l-26.51-15.31a.71.71,0,0,1,0-1.24l14.7-8.35A2.17,2.17,0,0,1,184.12,303.13Z"/>
                        <path class="cls-49" d="M210.64,319l-26.52-15.31a2.15,2.15,0,0,0-2.15,0L167.27,312a.74.74,0,0,0-.31.37.7.7,0,0,1,.31-.88l14.7-8.35a2.17,2.17,0,0,1,2.15,0l26.52,15.31a.71.71,0,0,1,.31.88A.72.72,0,0,0,210.64,319Z"/>
                        <path class="cls-50 lap_location" d="M214.66,220.09v-5.85L244,231v5.85Zm.51-5v4.66L243.45,236v-4.66Zm-.51,13.79v-5.85L244,239.86v5.85Zm.51-5v4.66l28.28,16.2v-4.67Z"/>
                        <path class="cls-51 lap_location" d="M240.16,240.11a2,2,0,0,1,1.5.95c.3.52.12.95-.4.95a2,2,0,0,1-1.5-.95C239.46,240.54,239.64,240.11,240.16,240.11Zm-3.78-1a2,2,0,0,0,1.5,1c.52,0,.7-.42.4-1a2,2,0,0,0-1.5-.95C236.26,238.21,236.08,238.64,236.38,239.16Zm-3.38-1.9a2,2,0,0,0,1.5,1c.52,0,.7-.42.4-1a2,2,0,0,0-1.5-.94C232.88,236.32,232.7,236.74,233,237.26Zm-3.38-1.89a2,2,0,0,0,1.5.95c.52,0,.7-.43.4-.95a2,2,0,0,0-1.5-1C229.5,234.42,229.32,234.84,229.62,235.37Zm-3.38-1.9a2,2,0,0,0,1.5.95c.52,0,.7-.43.4-.95a2,2,0,0,0-1.5-.95C226.12,232.52,225.94,232.94,226.24,233.47Z"/>
                        <polygon class="cls-52" points="226.71 240.16 226.84 240.65 226.19 240.83 228.83 242.34 228.58 242.79 226.03 241.32 226.26 241.98 225.78 242.15 225.21 240.56 226.71 240.16"/>
                        <path class="cls-53 contact_location" d="M187.54,310.14c4.57-1.23,10.63.13,13.53,3s1.54,6.24-3,7.47-10.63-.13-13.53-3S183,311.36,187.54,310.14Z"/>
                        <path class="cls-54" d="M189.26,311.86c3.07-.83,7.15.09,9.1,2s1,4.19-2,5-7.15-.09-9.1-2S186.19,312.68,189.26,311.86Z"/>
                        <path class="cls-55" d="M190.58,313.18a6.48,6.48,0,0,1,5.7,1.27c1.22,1.22.65,2.63-1.28,3.15a6.51,6.51,0,0,1-5.7-1.28C188.08,315.1,188.65,313.69,190.58,313.18Z"/>
                        <path class="cls-41" d="M191.84,314.44a2.78,2.78,0,0,1,2.45.55c.52.52.28,1.13-.55,1.35a2.81,2.81,0,0,1-2.45-.55C190.77,315.26,191,314.66,191.84,314.44Z"/>
                        <path class="cls-42 contact_location" d="M332.1,322.35l47.69,27.24v1.87a2.71,2.71,0,0,1-1.36,2.37L309.9,393.39a8.12,8.12,0,0,1-8.09,0l-46.74-26.54a2.7,2.7,0,0,1-1.38-2.31c0-.94,0-1.92,0-1.92L324,322.35A8.14,8.14,0,0,1,332.1,322.35Z"/>
                        <path class="cls-43 contact_location" d="M332.1,320.48l46.32,26.74a2.74,2.74,0,0,1,0,4.74l-68.53,39.56a8.12,8.12,0,0,1-8.08,0L255.07,365a2.74,2.74,0,0,1,0-4.75L324,320.48A8.11,8.11,0,0,1,332.1,320.48Z"/>
                        <polygon class="cls-44" points="326.55 324.34 371.23 350.14 308.37 386.43 263.32 360.85 326.55 324.34"/>
                        <path class="cls-13" d="M278.67,373.43a3.82,3.82,0,0,1,3.37.75c.72.73.39,1.56-.75,1.86a3.82,3.82,0,0,1-3.37-.75C277.2,374.57,277.54,373.73,278.67,373.43Z"/>
                        <ellipse class="cls-56" cx="316.71" cy="356.62" rx="11.41" ry="20.17" transform="translate(-80.76 620.26) rotate(-81.95)"/>
                        <ellipse class="cls-57" cx="316.71" cy="356.62" rx="7.67" ry="13.55" transform="translate(-80.76 620.26) rotate(-81.95)"/>
                        <ellipse class="cls-58" cx="316.71" cy="356.62" rx="4.8" ry="8.49" transform="translate(-80.76 620.27) rotate(-81.95)"/>
                        <path class="cls-41" d="M314.77,354.68a5.7,5.7,0,0,1,5,1.12c1.07,1.08.57,2.31-1.12,2.76a5.64,5.64,0,0,1-5-1.12C312.57,356.37,313.07,355.14,314.77,354.68Z"/>
                        <path class="cls-42" d="M82.27,329.76l23.32-12.71a4.71,4.71,0,0,1,4.68,0L161,346a9.29,9.29,0,0,0,0,1.19,1.65,1.65,0,0,1-.83,1.63l-22.48,12.76a4.69,4.69,0,0,1-4.67,0l-49.9-28.81a1.65,1.65,0,0,1-.81-1.12A8.8,8.8,0,0,1,82.27,329.76Z"/>
                        <path class="cls-43" d="M83.12,328.26l22.47-12.76a4.71,4.71,0,0,1,4.68,0l49.9,28.81a1.67,1.67,0,0,1,0,2.9L137.68,360a4.72,4.72,0,0,1-4.67,0l-49.9-28.81A1.68,1.68,0,0,1,83.12,328.26Z"/>
                        <polygon class="cls-44" points="86.5 330.87 109.91 317.57 156.77 344.63 133.36 357.92 86.5 330.87"/>
                        <path class="cls-59" d="M115.4,328.63c5.42-1.45,12.59.16,16,3.59s1.83,7.39-3.59,8.85-12.58-.16-16-3.59S110,330.08,115.4,328.63Z"/>
                        <ellipse class="cls-60" cx="121.62" cy="334.85" rx="4.4" ry="7.77" transform="translate(-226.96 408.37) rotate(-81.95)"/>
                        <path class="cls-61 contact_location" d="M119.41,332.64a6.49,6.49,0,0,1,5.7,1.27c1.22,1.23.65,2.63-1.28,3.15a6.45,6.45,0,0,1-5.7-1.28C116.91,334.56,117.48,333.15,119.41,332.64Z"/>
                        <path class="cls-41 lap_location" d="M120.67,333.9a2.78,2.78,0,0,1,2.45.55c.52.52.28,1.13-.55,1.35a2.77,2.77,0,0,1-2.45-.55C119.6,334.73,119.84,334.12,120.67,333.9Z"/>
                        <path class="cls-62 contact_block-sec" d="M317.13,64.71l-116.1,67a16.3,16.3,0,0,0-8.15,14.11v168.9"/>
                        <path class="cls-62 contact_location" d="M192.79,218.22l-63,36.38a16.31,16.31,0,0,0-8.15,14.12v66"/>
                        <path class="cls-62 contact-clock" d="M308.69,58l101,58.3a4.83,4.83,0,0,1,0,8.37l-84.75,48.93a16.3,16.3,0,0,0-8.15,14.11v168.9"/>
                        <path class="cls-62 contact-clock" d="M104.9,120.52V65.67a16.3,16.3,0,0,1,8.15-14.11L198.2,2.4a14.18,14.18,0,0,1,14.17,0l83.69,48.32"/>
                        <path class="cls-63 contact_location" d="M296.22,18.67a15.48,15.48,0,0,1,6,5.38c1.16-.71,3.25-2,5.27-3.27V43.57h-16c-7-6.14-14.61-18.93-14.61-18.93s6.25-3.17,9.11-5S292.18,16.59,296.22,18.67Z"/>
                        <path class="cls-64 contact_location" d="M343.64,58.89c1.75-1.48,7.19-1.59,10.65.4,5.26,3,8.61,10,7.53,15.15a6.84,6.84,0,0,1-3.37,5c-1.91,1-10.93,6.32-10.93,6.32L326,69.54S340.72,58.13,343.64,58.89Z"/>
                        <path class="cls-65 contact_location" d="M296.38,42.59l1.55-14.87,2.29-2.25,2.1-1.46c1.17-.71,3.24-2,5.24-3.25,4.74-3,9.9-4,17.22.19,11.11,6.41,20.12,20.62,20.12,31.72a14.5,14.5,0,0,1-1.26,6.22l-11.41,6.59Z"/>
                        <path class="cls-66 contact_location" d="M342.56,65.43c-3.1-1.79-8.43-2.11-10.32,0a14.65,14.65,0,0,0,1.25-6.22c0-11.1-9-25.31-20.11-31.72-10.92-6.31-19.79-2.71-20.08,8C291.89,32,290,28,284.82,25.26c-6.56-3.38-12.58.48-12.58,7,0,7.56,3.23,15.76,10.8,20.13l56.77,32.78c5.26,3,9.52,1,10.6-4.1S347.82,68.46,342.56,65.43Z"/></g></g>
                    </svg>