<svg xmlns="http://www.w3.org/2000/svg" xmlns:xlink="http://www.w3.org/1999/xlink" viewBox="0 0 153.1 136.64"><defs><style>.cls-1{fill:none;}.cls-2,.cls-5{fill:#4375f1;}.cls-3{clip-path:url(#clip-path);}.cls-4{fill:#507cc7;opacity:0.4;}.cls-11,.cls-14,.cls-4,.cls-5,.cls-8{isolation:isolate;}.cls-5{opacity:0.5;}.cls-6,.cls-8{fill:#e2b187;}.cls-7{clip-path:url(#clip-path-2);}.cls-14,.cls-8{opacity:0.31;}.cls-9{fill:#edba8f;}.cls-10{clip-path:url(#clip-path-3);}.cls-11{fill:#af703f;opacity:0.28;}.cls-12{fill:#dc466f;}.cls-13{clip-path:url(#clip-path-4);}.cls-14{fill:#a172ae;}.cls-15{clip-path:url(#clip-path-5);}.cls-16{fill:#43464a;}.cls-17{fill:#c22373;}.cls-18{fill:#fff;}.cls-19{fill:#e79d90;}</style><clipPath id="clip-path"><path class="cls-1" d="M10.72,98.92c-12.88,15.61,18.3,34.38,51,14.61s28.25-41,19-42.2-1.44-13.2.21-22.68c1.17-6.93-4.61-8.88-7.83-9.42a37.94,37.94,0,0,0,5.53-13.65c.11-.7.3-1.7.38-2.7,1.31-6.51.59-13.28-4.69-17.69A20.13,20.13,0,0,0,60.89.34a.27.27,0,0,0-.22-.19C53.1-.58,45.58,1.28,40.21,6.82a26.45,26.45,0,0,0-2.88,3.55c-1.61,1.28-2.74,2.31-3.23,2.77A24.59,24.59,0,0,0,32.71,8.7c-.11-.29-.59-.17-.47.13a26.36,26.36,0,0,1,1.29,4.07,19,19,0,0,0-7.42-4.37c-.3-.11-.43.37-.13.47a18.3,18.3,0,0,1,7.4,4.48C1.82,16,12.62,38.8,17.62,47a34.84,34.84,0,0,0-8.21,3c-.29.14,0,.57.25.43a34,34,0,0,1,8.23-3l.65,1a20.7,20.7,0,0,0-9.19,8.2c-.17.25.26.52.42.25a20.3,20.3,0,0,1,9.05-8c.47.7.76,1.08.76,1.08S10.36,53.68,2.25,73.47,10.73,98.92,10.72,98.92ZM72.59,39.13c-.5-.07-1-.11-1.49-.13a35.24,35.24,0,0,0,6.7-11.77A39.53,39.53,0,0,1,72.59,39.13ZM58.26.5c-7.75.93-15,5.38-19.56,8.8.53-.68,1.09-1.32,1.66-1.93C45.1,2.37,51.57.36,58.26.5Z"/></clipPath><clipPath id="clip-path-2"><path class="cls-1" d="M70.47,89.61c2.09,9.91,21.27,24.59,21.27,24.59,2.93,2.1,11.06,5.53,17.28,7.77a11.73,11.73,0,0,1,4.94-7c-7.08-3.49-15.68-7.57-15.68-7.57s-19.87-36.35-23-40-11.74-4.5-11.74-4.5l-3,5.28S68.38,79.7,70.47,89.61Z"/></clipPath><clipPath id="clip-path-3"><path class="cls-1" d="M41.1,35.33,39,56.72l-7.31,4.7,16.7,19.3,7.83-2.6L64,69.25l-3.66-6.79c-6.78-6.78-5.21-12.52-5.21-12.52Z"/></clipPath><clipPath id="clip-path-4"><path class="cls-1" d="M67.8,63.56c7.56,20.87,17.16,32.33,10,39.26a16.62,16.62,0,0,0-5.15,13.52l4.45,20.3-50.12,0,4.69-18.27-13.88-46c1.56-5.76,2.82-5.13,8.76-8.76C29.22,61.93,39,56.72,39,56.72c15.65,11.48,18.75,2.6,18.75,2.6S67.17,61.83,67.8,63.56Z"/></clipPath><clipPath id="clip-path-5"><path class="cls-1" d="M34.62,16.9,32,23.84l2.67,7.91c-4.3-2.95-4.9,3.32-2,7.27s6,1.3,6,1.3l1.66,4.94c3.16,6.1,15.26,7.74,18.89,5.1,3.07-2.23,4.8-4.63,5.67-12.28,1.92-16.75-12.6-27.64-12.6-27.64Z"/></clipPath></defs><title>Asset 1</title><g id="Layer_2" data-name="Layer 2"><g id="Layer_1-2" data-name="Layer 1"><g id="Layer_2-2" data-name="Layer 2"><g id="OBJECTS"><path class="cls-2" d="M10.72,98.92c-12.88,15.61,18.3,34.38,51,14.61s28.25-41,19-42.2-1.44-13.2.21-22.68c1.17-6.93-4.61-8.88-7.83-9.42a37.94,37.94,0,0,0,5.53-13.65c.11-.7.3-1.7.38-2.7,1.31-6.51.59-13.28-4.69-17.69A20.13,20.13,0,0,0,60.89.34a.27.27,0,0,0-.22-.19C53.1-.58,45.58,1.28,40.21,6.82a26.45,26.45,0,0,0-2.88,3.55c-1.61,1.28-2.74,2.31-3.23,2.77A24.59,24.59,0,0,0,32.71,8.7c-.11-.29-.59-.17-.47.13a26.36,26.36,0,0,1,1.29,4.07,19,19,0,0,0-7.42-4.37c-.3-.11-.43.37-.13.47a18.3,18.3,0,0,1,7.4,4.48C1.82,16,12.62,38.8,17.62,47a34.84,34.84,0,0,0-8.21,3c-.29.14,0,.57.25.43a34,34,0,0,1,8.23-3l.65,1a20.7,20.7,0,0,0-9.19,8.2c-.17.25.26.52.42.25a20.3,20.3,0,0,1,9.05-8c.47.7.76,1.08.76,1.08S10.36,53.68,2.25,73.47,10.73,98.92,10.72,98.92ZM72.59,39.13c-.5-.07-1-.11-1.49-.13a35.24,35.24,0,0,0,6.7-11.77A39.53,39.53,0,0,1,72.59,39.13ZM58.26.5c-7.75.93-15,5.38-19.56,8.8.53-.68,1.09-1.32,1.66-1.93C45.1,2.37,51.57.36,58.26.5Z"/><g class="cls-3"><path class="cls-4" d="M33.59,40,62,22.51h0C73.73,46.13,59.22,53,59.22,53l2.31,9.9,13.52,4.29L89.57,85.67s-51.14,52.13-65,40.58-8.25-54.44-8.25-54.44l20.79-16.5s1.65-10.22.85-11.86S33.59,40,33.59,40"/><path class="cls-5" d="M59.84,18.68s-9.9-.69-2.64,1,9.9-2.31,9.9-2.31l-7.22,1.31"/></g><path class="cls-6" d="M70.47,89.61c2.09,9.91,21.27,24.59,21.27,24.59,2.93,2.1,11.06,5.53,17.28,7.77a11.73,11.73,0,0,1,4.94-7c-7.08-3.49-15.68-7.57-15.68-7.57s-19.87-36.35-23-40-11.74-4.5-11.74-4.5l-3,5.28S68.38,79.7,70.47,89.61Z"/><g class="cls-7"><path class="cls-8" d="M73.94,104.7,65.82,87s-1.89-19.37,9.23-4.63c12.21,16.16,4.29,22.43,4.29,22.43Z"/></g><path class="cls-6" d="M109,122c10.88,3.92,22.88,7.26,22.88,7.26,1.56,1.05,3.13.52,5.74,0s3.65-3.66,6.78-2.09,10.44.52,8.35,0-7.83-3.65-8.87-4.17-9.39,2.09-10.44,1.57l-19.5-9.6A11.68,11.68,0,0,0,109,122Z"/><path class="cls-9" d="M41.1,35.33,39,56.72l-7.31,4.7,16.7,19.3,7.83-2.6L64,69.25l-3.66-6.79c-6.78-6.78-5.21-12.52-5.21-12.52Z"/><g class="cls-10"><path class="cls-11" d="M41.4,44.09c.33,8.91,14.85,9.57,14.85,9.57C57.9,50,41.07,35.18,41.4,44.09Z"/></g><path class="cls-12" d="M67.8,63.56c7.56,20.87,17.16,32.33,10,39.26a16.62,16.62,0,0,0-5.15,13.52l4.45,20.3-50.12,0,4.69-18.27-13.88-46c1.56-5.76,2.82-5.13,8.76-8.76C29.22,61.93,39,56.72,39,56.72c15.65,11.48,18.75,2.6,18.75,2.6S67.17,61.83,67.8,63.56Z"/><g class="cls-13"><path class="cls-14" d="M32.18,80.73s-17.81,32-2.64,42.5,48.17,8,48.17,8,13.21-8.6,1.54-8-39.15-8.86-39.15-8.86c1-22.1-7.94-33.65-7.94-33.65"/></g><path class="cls-9" d="M76.67,130C85.1,133.42,88,127.69,88,127.69l2.61,2.61c-1.05,1-.52,3.13-.52,3.13L93,131l0,0a1,1,0,0,0,.07-1.41l-3-3.4A17.88,17.88,0,0,1,99,131.86c1.6,2,2.6-.52,2.6-.52C99.51,127.16,92.2,123,92.2,123c.52-.52,6.26-.48,8.35,2.61s4.7,2.09,4.7,2.09c-.85-.85-3.25-4.31-4.13-5.58a1.7,1.7,0,0,0-.89-.65l-7-2.12s-.53.52.52,0a19.53,19.53,0,0,0,3.13-2.61c.52.52,5.22.52,5.22.52a10,10,0,0,0,4.71,1.62c.89,0-2.64-2.73-3.73-3.55a1.26,1.26,0,0,0-.69-.27l-6.22-.57a1.69,1.69,0,0,0-1.19.34l-5.39,4-12.92,5.49Z"/><path class="cls-9" d="M49.49,128.49A166.13,166.13,0,0,0,77.33,130l.23-5.57s-12.51-1.92-23.65-4.24A10.48,10.48,0,0,0,49.49,128.49Z"/><path class="cls-9" d="M28.05,122.48s6.47,3.78,21.47,6a10.48,10.48,0,0,1,4.42-8.28c-7.08-1.47-13.58-3.11-16-4.53,0,0,1.76-19.87-5.54-35,0,0-5.7-16.08-12.45-13.15S21.76,113.08,28.05,122.48Z"/><path class="cls-9" d="M34.62,16.9,32,23.84l2.67,7.91c-4.3-2.95-4.9,3.32-2,7.27s6,1.3,6,1.3l1.66,4.94c3.16,6.1,15.26,7.74,18.89,5.1,3.07-2.23,4.8-4.63,5.67-12.28,1.92-16.75-12.6-27.64-12.6-27.64Z"/><g class="cls-15"><path class="cls-11" d="M62.78,19.47l.83-7.66-13.87-5s-20.82,20.78-14,24.74,8-6.92,8-6.92l-3,2.63C51,27.59,52.29,12.09,52.29,12.09c5,9.57,10.4,7.33,10.4,7.33"/></g><path class="cls-2" d="M28.18,29.17l5.28,1.65,2.64,2s6.18-.87,6-6a13.27,13.27,0,0,0,8.36-5.21,14,14,0,0,0,2.13-8.79c1.42,1.82,7.64,9.05,14.88,5.87,8.24-3.63-9.9-9.9-9.9-9.9L42.72,12.42,32.16,17.7Zm22-7.74a13,13,0,0,1-8.09,5.06v-.21S50.58,22,52.16,15.9a12.32,12.32,0,0,1-2,5.53Z"/><path class="cls-16" d="M35.18,35.22h-1c-5-10.55,0-22.1,0-22.1C38.1,5.2,42.1,7,42.1,7,33.1,15.68,35.18,35.22,35.18,35.22Z"/><circle class="cls-17" cx="34.14" cy="36.17" r="4.62"/><path class="cls-16" d="M50.82,30.29c.35-.08.86.67,1.12,1.76s.2,2-.16,2.09-.86-.71-1.12-1.77S50.47,30.37,50.82,30.29Z"/><path class="cls-16" d="M60,28.62c.37-.08.73.86.82,1.92s-.12,2-.49,2-.73-.83-.82-1.92S59.67,28.7,60,28.62Z"/><path class="cls-18" d="M57.49,47.53C49.65,46.66,49.65,41,49.65,41a11.68,11.68,0,0,0,10.89,3C58.79,47.52,57.49,47.52,57.49,47.53Z"/><path class="cls-2" d="M61.32,25.46a2.18,2.18,0,0,0-.6-.61,2,2,0,0,0-.73-.31,1.27,1.27,0,0,0-.39,0h-.8a1.84,1.84,0,0,1-.47-.07v-.06a1.51,1.51,0,0,1,.38-.33,1.88,1.88,0,0,1,.47-.17,1.65,1.65,0,0,1,1,.16,2.08,2.08,0,0,1,1.23,1.41Z"/><path class="cls-2" d="M48.19,25.46a2.32,2.32,0,0,1,.6-.61,2,2,0,0,1,.73-.31,1.27,1.27,0,0,1,.39,0h.8a1.91,1.91,0,0,0,.47-.07v-.06a1.55,1.55,0,0,0-.39-.33,2.54,2.54,0,0,0-.46-.17,1.65,1.65,0,0,0-1,.16,1.92,1.92,0,0,0-.8.58,2.27,2.27,0,0,0-.43.83Z"/><path class="cls-19" d="M57.37,32.42a.21.21,0,0,1,.13-.18.22.22,0,0,1,.29.11c.76,1.72,2.68,4.67,3.5,5.22,1,.69-3.47,2.43-3.47,2.43A23,23,0,0,1,57.37,32.42Z"/><circle class="cls-16" cx="34.14" cy="36.17" r="1.98"/><path class="cls-16" d="M38.26,45.53c-.12-.26-3.78-7.24-4.12-8l.61-.35c.31.68,3.41,6.67,4,7.82H53.28v.74H38.36Z"/><ellipse class="cls-16" cx="53.94" cy="45.25" rx="1.98" ry="0.82"/></g></g></g></g></svg>