<svg xmlns="http://www.w3.org/2000/svg" viewBox="0 0 930 731.88"><defs>
                        <style>.cls-1{fill:#292949;}.cls-2{fill:#c67a6d;}.cls-3{fill:#3b3387;}.cls-4{fill:#8cabef;}.cls-5{fill:#474ebb;}.cls-6{fill:#babcbe;}.cls-7{fill:#686e72;}.cls-8{fill:#e1cfb5;}
                        .cls-13,.cls-9{fill:#fff;}.cls-10{fill:#efbfa5;}.cls-11{fill:#353a85;}.cls-12{fill:#272525;}.cls-12,.cls-16{opacity:0.1;}.cls-13{opacity:0.2;}.cls-14{fill:#eed5d5;}
                        .cls-15{fill:#cac8d6;}.cls-17{fill:#f7f7f7;}
                        .contact_location {
                             animation-name: contact-locate;
                             animation-duration: 3s;
                             animation-iteration-count: infinite;
                             transform-origin: 50% 50%;
                         }

                        @keyframes contact-locate {
                            0% {transform: translate(0, 0);}
                            50% {transform: translate(0, 8px);}
                        }
                        .contact_block-sec {
                            animation-name: contactBlocka-2;
                            animation-duration: 4s;
                            animation-iteration-count: infinite;
                            -webkit-transform-origin: 50% 50%;
                            transform-origin: 50% 50%;
                        }
                        -webkit-@keyframes contactBlocka-2 {
                            0% {transform: translate(0, 0);}
                            50% {transform: translate(-20px, 0);}
                        }
                        @keyframes contactBlocka-2 {
                            0% {transform: translate(0, 0);}
                            50% {transform: translate(-20px, 0);}
                        }
                        
                        .contact_block-sec-2 {
                            animation-name: contactBlocka-22;
                            animation-duration: 2s;
                            animation-iteration-count: infinite;
                            transform-origin: 50% 50%;
                        }

                        @keyframes contactBlocka-22 {
                            0% {transform: translate(0, 0);}
                            50% {transform: translate(-20px, 0);}
                        }
                        </style></defs><title>Asset 2</title><g id="Layer_2" data-name="Layer 2"><g id="object">
                        <path class="cls-1" d="M98.46,323.48a3.11,3.11,0,0,0,.1,2.4,3,3,0,0,0,1.82,1.08c16.17,4.88,33.52.57,49.85-3.74,2.73-.72,5.46-1.44,8.18-2.22a10,10,0,0,0,3.73-1.7,7.57,7.57,0,0,0,2.23-5.15c.39-4.54-1.31-9-3.09-13.16a271.85,271.85,0,0,0-15.68-31.22A14.41,14.41,0,0,0,143,266.2a9.74,9.74,0,0,0-8.31-1.81,26.35,26.35,0,0,0-8,3.54c-8.87,5.26-14.78,10.66-16.6,20.83C107.86,300.87,101.32,311.58,98.46,323.48Z"/>
                        <path class="cls-2" d="M160.2,265.72c-6.91-24.56-37.74-17.53-44.93,3.48-4.33,12.67,3.52,29.67,15.55,36.06a62.31,62.31,0,0,0,.56,11.86h12.94a90.6,90.6,0,0,0-.18-9.61,21.08,21.08,0,0,0,4.56-1.35c7.05-3,11.72-10.2,13.26-17.71S162.27,273.11,160.2,265.72Z"/>
                        <polygon class="cls-3 contact_block-sec" points="131.1 716.79 130.31 724.87 113.72 731.88 106.61 723.26 115.3 715.72 131.89 708.71 131.1 716.79"/>
                        <polygon class="cls-4 contact_block-sec" points="144.96 552.98 132.18 714.24 116.2 716.38 102.97 578.93 92.03 535.33 144.96 552.98"/>
                        <polygon class="cls-4" points="178.32 509.77 190.53 700.42 178.18 704.99 147.8 559.99 131.09 518.01 178.32 509.77"/>
                        <polygon class="cls-3" points="179.48 711.33 196.8 716.56 203.13 706.94 193.69 700.25 177.93 703.18 179.48 711.33"/>
                        <path class="cls-5" d="M161.35,311a38.76,38.76,0,0,0-10.08.4,154.32,154.32,0,0,0-29.6,7.16,48.59,48.59,0,0,0-9,3.95c-13.66,8.15-12.55,20.92-15.06,35.13-1.75,9.91-4.31,20.09-5,30.14-1.8,26.22-10,52.75-21.41,76.75-4.79,10.12-10.5,19.89-13.91,30.54-5.65,17.66-5.63,38.45-4,56.73,16.07,4.35,31.12,12.51,47.65,14.63,13.6,1.74,27.34-.73,41-1.92,16.16-1.41,32.42-1,48.59-2.26s32.51-4.16,46.83-11.68c-1.48.78-22-54-23.41-58.9-2.42-8.22-3.71-16.71-5.07-25.17-6.72-41.75-15.2-83.4-28.83-123.55-3.5-10.31-4.2-29.15-17.26-31.72C162.3,311.12,161.82,311.05,161.35,311Z"/>
                        <path class="cls-1" d="M137.48,259.11c7.48,1.34,16.7,7.65,18.51,15.43.87,3.75-.37,7.2.72,11.17,2.12,7.85-7.5,19.41,2,24.86,4.9,2.8,11,1.89,16.59.9a4.1,4.1,0,0,0,1.91-.68,2.86,2.86,0,0,0,.7-3.07,11.72,11.72,0,0,0-1.68-2.9c-6.54-9.7-5-23.63-7.5-34.69s-8.55-22-19.64-26.55a25.13,25.13,0,0,0-10.92,15.63Z"/>
                        <path class="cls-1" d="M110.23,320.22c3.54-2.16,7-4.43,9-8.48,3.3-6.54,1.91-16.7,2.3-23.79.42-7.48,1.11-15.62,6.3-21.08,3.4-3.56,7.57-4.54,12.29-5,3.23-.32,3.46.87,6-1.07,2-1.49,3.44-5.56,3.72-7.89.48-3.93-1.44-7.87-4.29-10.67a19,19,0,0,0-15.32-5.82c-21.11,1.31-35.86,15-40,35.77-2,10,1,20.69-1.19,30.34-1.38,6-4.81,10.14-5.81,16.44-2.57,16.36-9.77,37.61-7.66,54.12a2.33,2.33,0,0,0,.71,1.65c1,.75,2.36-.38,3.1-1.4q6.52-8.9,13-17.81a31.13,31.13,0,0,0,4.42-7.4c2.46-6.74.18-15,4.42-20.79C103.63,324.15,107,322.23,110.23,320.22Z"/>
                        <polygon class="cls-5" points="88.52 327.3 44.93 407.87 93.62 443.63 104.92 432.58 77.34 407.36 119.25 374.91 114.3 322.06 88.52 327.3"/>
                        <path class="cls-6" d="M149,306.51a16,16,0,0,0,16-16h3.18A19.21,19.21,0,0,1,149,309.69Z"/>
                        <rect class="cls-7" x="137.6" y="305.22" width="11.97" height="6.43" rx="2.98" transform="translate(287.17 616.87) rotate(180)"/>
                        <path class="cls-6" d="M164.84,278.72V265.54a25.79,25.79,0,1,0-51.57,0v13.18H107.6V265.44a31.46,31.46,0,0,1,62.91,0v13.28Z"/>
                        <path class="cls-6" d="M100.07,276.39a5.69,5.69,0,0,0-1,3.71v4.81a5.68,5.68,0,0,0,1,3.71l1.59,1.86v-16Z"/>
                        <rect class="cls-7 " x="101.66" y="270.67" width="14.08" height="23.66" rx="5.52"/>
                        <path class="cls-6" d="M178.48,276.39a5.64,5.64,0,0,1,1,3.71v4.81a5.63,5.63,0,0,1-1,3.71l-1.59,1.86v-16Z"/>
                        <rect class="cls-7" x="162.82" y="270.67" width="14.08" height="23.66" rx="5.52" transform="translate(339.72 565.01) rotate(180)"/>
                        <polygon class="cls-8" points="479.65 362.53 463.72 356.29 460.83 359.41 460.83 364.56 452.73 364.56 453.45 373.88 460.83 376.69 476.36 374.6 479.65 362.53"/>
                        <path class="cls-3" d="M612.85,688.38c1.59-1.75,3.44-2.7,5.53-2.37A6.22,6.22,0,0,1,623,689.5a12,12,0,0,1,.79,4c.58,7,.53,23.64-8.8,26-3.92,1-7.17-1.78-8.21-5.3C605.22,708.9,607.56,694.21,612.85,688.38Z"/>
                        <path class="cls-2" d="M609.54,582.7l.48,42.73c-.56,19,2.4,38.06,1.83,57-.13,4.36-1.27,9-.17,13.29s4.52,5,8.05,2.84c4.72-2.87,4-9.58,4.75-14.47,2.16-13.44,4.7-26.81,7-40.24,1.11-6.58-1.18-15.8-.68-22.46l6.9-35.81Z"/>
                        <polygon class="cls-5" points="658.35 513.66 639.76 596.27 635.81 674.28 606.32 673.61 598.3 455.42 655.46 456.45 658.35 513.66"/>
                        <path class="cls-3" d="M570.68,686.82c1.65-1.65,3.54-2.49,5.61-2a6.37,6.37,0,0,1,4.47,3.77,12,12,0,0,1,.62,4c.28,7-.48,23.68-9.88,25.53-4,.78-7.07-2.2-8-5.79C562.19,706.92,565.15,692.35,570.68,686.82Z"/>
                        <path class="cls-2" d="M586.22,588.7l-2.5,42.66c-.21,11.85-1.79,23.61-3,35.39-1.14,10.93.63,22.33-5.08,32.27-1.8,3.12-5.42,5.2-8,1.41-1.95-2.92-.79-7.79-1.17-11.11-1.53-13.52-3.43-27-5-40.52-.8-6.62,1.92-15.73,1.73-22.4L558,590.31Z"/>
                        <polygon class="cls-5" points="548.91 508.61 546.51 588.8 559.09 669.88 589.09 670.78 587.76 583.03 603.63 510.25 608.96 462.61 561.37 457 548.91 508.61"/>
                        <polygon class="cls-9" points="586.56 292.9 637.83 291.67 667.56 346.96 656.99 398.75 655.11 460.72 581.97 461.72 557.9 457.81 564.29 391.59 560.63 303.14 586.56 292.9"/>
                        <polygon class="cls-9" points="584.71 326.4 558 379.79 529.2 385.51 471.55 376.69 478.62 358.66 531.49 358.66 561.35 303.14 584.71 326.4"/>
                        <path class="cls-2" d="M589.77,249.94c7.73-22.47,37.39-14.05,43.51,6,4,13-6.09,30-19.62,33.74a12.43,12.43,0,0,0-.1,1.4,44,44,0,0,1-.58,6.25c-.12.78-12-1.49-13.27-1.75a1.83,1.83,0,0,1-1.23-.6c-.47-.75.3-2.94.39-3.76.1-1,.2-1.95.31-2.93C592.5,285,588.29,278.06,587.12,271S587.44,256.69,589.77,249.94Z"/>
                        <path class="cls-1" d="M609.12,229.63a11.83,11.83,0,0,1,2.68,6,9.43,9.43,0,0,1,.23,3.91c-1.1,5.1-6.16,4.84-10.07,6.48a26.08,26.08,0,0,0-11.69,10.06c-4.23,6.73-2.33,15.4-.62,22.82.61,2.62,1.83,6.51-.2,8.84s-6.83,2-9.3.79c-2.26-1.12-4.11-3.18-6.59-3.59s-6.17.71-7.39-1.7a17.14,17.14,0,0,0-.8-2.1c-1.45-2.07-5.06.36-7.1-1.1-1.25-.9-1.25-2.82-.82-4.33s1.14-3.05.84-4.59c-.25-1.33-1.21-2.38-1.8-3.58a7.05,7.05,0,0,1,1-7.49c3.23-3.74,9.48-3,12.94-6.55,1.8-1.83,2.5-4.47,3.17-7s1.48-5.14,3.41-6.83c2.38-2.1,5.82-1.74,8.17-4.22,1.38-1.46,2.3-3.36,3.85-4.63,2-1.67,6-3,8.57-3.81A11.14,11.14,0,0,1,609.12,229.63Z"/>
                        <path class="cls-1" d="M627.89,265.49c.14,7.4-3.54,15.4-.13,21.91s12,7.75,19.31,8.1c1.21.05,16.62,1.38,16.69,1.09,1.15-5.15,2.35-10.41,5-14.93s7.19-8.27,12.35-8.59c-1.49-.26-2.24-2.08-2.06-3.62a24.16,24.16,0,0,1,1.42-4.39,10.37,10.37,0,0,0-2.7-10.41c-5.46-5.08-15.34-3-20-8.81-2.9-3.62-2.55-8.87-4.07-13.29-2.94-8.54-12.3-10.33-19.29-14.19-7.38-4.08-14.33-6.31-22.86-4.89C601,215.23,593.16,226,597.23,236.1c5.23,13,26.12,11.86,30,25A16.39,16.39,0,0,1,627.89,265.49Z"/>
                        <polygon class="cls-5" points="622.66 292.6 606.76 315.09 599.28 314.47 586.82 291.67 622.66 292.6"/><polygon class="cls-10" points="266.11 259.53 256.21 241.45 265.94 222.81 276.09 228.18 274.87 243.5 280.22 248.72 278.14 261.86 266.11 259.53"/><polygon class="cls-6" points="418.18 430.42 419.52 546.77 407.12 696.54 390.26 696.54 370.09 558.36 347.02 419.95 418.18 430.42"/><polygon class="cls-1" points="390.36 703.65 408.59 712.76 417.71 703.65 408.59 694.53 390.36 694.53 390.36 703.65"/><polygon class="cls-6" points="302.59 430.42 302.26 497.73 313.63 696.54 330.49 696.54 358.69 564.61 373.75 419.95 302.59 430.42"/><polygon class="cls-1" points="330.39 703.65 312.16 712.76 303.05 703.65 312.16 694.53 330.39 694.53 330.39 703.65"/>
                        <path class="cls-11" d="M285.06,471c-.36,10.68-.13,25,4.37,25.5a4.42,4.42,0,0,0,2.39-.63c7.82-3.8,13.39-9.17,21.1-12.84,8.08-3.85,17.26-5.86,26.23-7.25a272.56,272.56,0,0,1,40.46-3.54c11.57-.1,23.61,5.18,34.55,8.08,4.21,1.12,7.64,4.19,11.14,6.6,5.17,3.55,7.43,5,6.73-2.3-1.15-11.86-2.35-23.71-3.81-35.53-2.9-23.58-6.86-47.1-13.56-69.93-2.56-8.72-5.52-17.32-8.47-25.91q-5.38-15.7-10.78-31.4c-4.47-13-12-22.18-25.21-26.73-11.41-3.93-25.58-5-36.67.5-12.34,6.12-18.21,27-24.2,38.11-5.25,9.76-11.87,36.39-13.84,46.91-2.36,12.67-4.55,25.28-6.27,37.85a390,390,0,0,0-3.64,41.62C285.54,461.59,285.23,465.85,285.06,471Z"/>
                        <path class="cls-9" d="M346,297.41l22.78.22s24.44,85.43,25.34,100.15c.88,14.46,7.06,73.07,7.06,73.07s-25.23.59-54.3,4.13c-28.42,6.08-30.8,2.49-30.8,2.49s15.33-61.6,15.84-79.3c.52-18.1,2.84-77.89,2.84-77.89Z"/>
                        <path class="cls-10" d="M351.73,297.19a2.85,2.85,0,0,0,.93.53,5.19,5.19,0,0,0,2.22.06l9-1.07c-1-9.23,4.4-11.32,9.66-17.25s3.69-14.13,3.39-21.5a15.7,15.7,0,0,0-1.06-6c-1.52-3.26-5.06-5.07-8.5-6.14-8.78-2.72-18.82-2.05-26.54,2.92a14.12,14.12,0,0,0-5.1,5.17c-1.71,3.36-1.28,7.36-.8,11.11a37.52,37.52,0,0,0,5.69,16.24c3,4.52,8.81,6.68,9.47,12.1A6.12,6.12,0,0,0,351.73,297.19Z"/>
                        <path class="cls-1" d="M335.22,258.31c.52,2.32,1.6,4.67,1,7-3.69-1.25-6.1-5-7.4-8.84A13.6,13.6,0,0,1,328,251a6.43,6.43,0,0,1,2.39-4.72c2-1.44,5.66-.88,6.24,1.75S334.45,254.82,335.22,258.31Z"/>
                        <path class="cls-1" d="M315.67,237.94A8.25,8.25,0,0,1,319.3,231c2.14-1.44,4.61-2.64,5.91-4.94,1-1.79,1.15-4,2.15-5.78,1.82-3.24,5.75-4.2,9.17-5.29,8.55-2.75,13.16-5.92,22.22-2.41,6.44,2.5,14.76,2.84,20.74,6.49a21,21,0,0,1,6.37,6.69c6,9.45,7.49,22.73,3.55,32.58a39.91,39.91,0,0,1-3.19,6.17c-2.39,3.88-5,8.66-9.19,10.56-.27-1.83-1.63-2.84-2-4.64a13.94,13.94,0,0,1-.14-4c.26-5.18,1.85-13.37-3.33-15.94-6.54-3.24-18.8-.31-25.1,2.44-5.58,2.43-15,5.59-20.93,3C320,253.52,315.48,243.88,315.67,237.94Z"/><polygon class="cls-11" points="333.52 295.57 293.31 329.35 283.93 260.3 262.62 256.17 258.89 350.01 281.69 371.43 323.17 350.94 333.52 295.57"/><circle class="cls-3" cx="496.34" cy="463.45" r="143.88" transform="translate(-182.34 486.71) rotate(-45)"/>
                        <path class="cls-9 contact_location" d="M530.11,367.47q-6.47-5.72-17.89-5.72a36.85,36.85,0,0,0-17.15,4,31.2,31.2,0,0,0-12,10.56,25.76,25.76,0,0,0-4.35,14.54,18.68,18.68,0,0,0,6.46,14.66q6.45,5.72,18.14,5.71a37,37,0,0,0,17-3.85,30.21,30.21,0,0,0,11.92-10.56,26,26,0,0,0,4.35-14.41A19,19,0,0,0,530.11,367.47Z"/>
                        <path class="cls-9 contact_location" d="M526.53,538.15s-22.9,9.13-20.83-2.64l15.69-88.91a18.09,18.09,0,0,0-17.81-21.24H460l-1.3,5.54s16.41.89,13.91,15.07c-5.7,32.28-16.09,91.15-16.1,91.21a23.65,23.65,0,0,0,7.37,21.5c8.89,8.07,21.09,7.54,31.86,4.11,3.59-1.15,34.87-15.15,34.82-15.26Z"/>
                        <path class="cls-12" d="M579.45,346A143.84,143.84,0,0,1,378.93,546.56,143.85,143.85,0,1,0,579.45,346Z"/>
                        <path class="cls-13" d="M528.57,340.59h1.94a117.81,117.81,0,0,0-135.9,42.52,1.92,1.92,0,0,0-1.32,1.86v0A116.52,116.52,0,0,0,373,450.88c0,.54,0,1.09,0,1.63A163.92,163.92,0,0,1,528.57,340.59Z"/>
                        <path class="cls-14" d="M1,212.57c-3.12,25.21-.38,65.21,26.74,119.2s57.57,80.06,79.66,92.62c15.78,9,35.71,9.16,52.72.61l9.51-4.77c7.71-3.88,11-12.87,7.41-20.09l-22.71-45.2c-3.62-7.22-12.82-9.92-20.54-6l-13.28,6.67a14.45,14.45,0,0,1-13.56-.14C86.32,343.61,70.11,310.5,70.11,310.5s-16.89-32.78-14-56.4a14.43,14.43,0,0,1,8-11l13.28-6.67c7.72-3.87,11-12.87,7.41-20.08L62,171.17c-3.62-7.21-12.82-9.92-20.53-6L32,169.9C15,178.45,3.24,194.55,1,212.57Z"/>
                        <path class="cls-12" d="M17.94,310.31c2.86,6.89,6.09,14,9.82,21.46,27.11,54,57.57,80.06,79.66,92.62,15.78,9,35.71,9.16,52.72.61l9.51-4.77a16.34,16.34,0,0,0,5.87-5.05C90.48,429.62,19.27,312.51,17.94,310.31Z"/>
                        <path class="cls-2 contact_location" d="M101.84,447.42c2.58,3.28,12.5,8.2,16.84,7,10-2.79-1.86-9.67-5.43-13a27,27,0,0,0,4.34-2.87c1.19-1.06-12.36-7.51-14.41-7.3-4.9.52-5.57,3.59-8.38,7.23C97.21,441.41,99.51,444.44,101.84,447.42Z"/>
                        <path class="cls-6" d="M366.24,283.05a16.86,16.86,0,0,0,16.86-16.87h3.36a20.22,20.22,0,0,1-20.22,20.22Z"/><rect class="cls-7" x="354.22" y="281.7" width="12.6" height="6.76" rx="3.14" transform="translate(721.05 570.16) rotate(180)"/>
                        <path class="cls-6" d="M382.9,253.8V239.93a27.15,27.15,0,1,0-54.29,0V253.8h-6v-14a33.11,33.11,0,0,1,66.22,0v14Z"/>
                        <path class="cls-6" d="M314.72,251.35a6,6,0,0,0-1,3.9v5.07a6,6,0,0,0,1,3.9l1.68,2V249.39Z"/><rect class="cls-7" x="316.4" y="245.33" width="14.82" height="24.91" rx="5.81"/>
                        <path class="cls-6" d="M397.26,251.35a6,6,0,0,1,1,3.9v5.07a6,6,0,0,1-1,3.9l-1.67,2V249.39Z"/><rect class="cls-7" x="380.77" y="245.33" width="14.82" height="24.91" rx="5.81" transform="translate(776.36 515.57) rotate(180)"/>
                        <path class="cls-6" d="M618.7,289.26a16,16,0,0,0,16-16h3.19a19.23,19.23,0,0,1-19.23,19.23Z"/><rect class="cls-7" x="607.28" y="287.98" width="11.98" height="6.43" rx="2.99" transform="translate(1226.54 582.39) rotate(180)"/>
                        <path class="cls-6" d="M634.55,261.45V248.26a25.82,25.82,0,1,0-51.63,0v13.19h-5.67V248.16a31.49,31.49,0,0,1,63,0v13.29Z"/>
                        <path class="cls-6" d="M569.72,259.12a5.64,5.64,0,0,0-1,3.71v4.82a5.64,5.64,0,0,0,1,3.71l1.59,1.86v-16Z"/>
                        <path class="cls-7" d="M576.84,253.4h3a5.53,5.53,0,0,1,5.53,5.53v12.64a5.53,5.53,0,0,1-5.53,5.53h-3a5.52,5.52,0,0,1-5.52-5.52V258.92a5.52,5.52,0,0,1,5.52-5.52Z"/>
                        <path class="cls-6" d="M648.2,259.12a5.64,5.64,0,0,1,1,3.71v4.82a5.64,5.64,0,0,1-1,3.71l-1.59,1.86v-16Z"/>
                        <path class="cls-7" d="M638,253.4h3a5.53,5.53,0,0,1,5.53,5.53v12.64a5.53,5.53,0,0,1-5.53,5.53h-3a5.53,5.53,0,0,1-5.53-5.53V258.92A5.52,5.52,0,0,1,638,253.4Z" transform="translate(1279.14 530.48) rotate(-180)"/><polygon class="cls-10" points="428.86 199.5 424.1 180.26 407.72 173.35 404.62 184.42 413.41 195.48 414.63 205.28 428.86 199.5"/><polygon class="cls-11" points="373.75 296.92 424.98 276.32 408.92 195.57 427.4 193.38 458.36 277.64 451.98 303.17 394.01 342.23 373.75 296.92"/>
                        <path class="cls-11 contact_location" d="M546.86,0,269.17,1.2a26.23,26.23,0,0,0-26,26.26l.59,137.82a26.23,26.23,0,0,0,26.27,26l192.39-.83,45.73,61.7,8-61.93,31.59-.13a26.23,26.23,0,0,0,26-26.27L573.12,26A26.23,26.23,0,0,0,546.86,0Z"/><polygon class="cls-2" points="640.65 421.38 645.53 428.52 635.64 441.41 624.63 440.51 619.22 432.02 626.13 427.06 625.17 425.05 626.56 422.04 640.65 421.38"/><polygon class="cls-9" points="639.53 295.49 696.31 360.81 699.09 389.43 643.08 433.64 633.03 419.1 669.25 380.42 634.16 346.07 639.53 295.49"/>
                        <path class="cls-1" d="M806.12,718.82l14.48-13.38c4.2-2.13,8.65-3.61,12.25-3.56,2.61,0,4.78.87,6.09,2.85a7,7,0,0,1,.66,6.45,8.9,8.9,0,0,1-1.26,2h0c-.43.54-.9,1-1.37,1.55l-1,1c-3,3.25-8,8.54-10,9.73-2.92,1.76-9.35,6.43-17,1.17l.09-.07A7.33,7.33,0,0,1,806.12,718.82Z"/>
                        <path class="cls-10" d="M817.49,602.34l1.17,16.78,5.73,81.71-5.73,9.51s-1.17,7.6,7.6,7c2.61-.18,11.85-11.93,11.85-11.93l-1.34-5.38,6.5-61.36-.06-17.82,3.12-19.78Z"/>
                        <path class="cls-1 contact_block-sec-2" d="M909.28,698.07c2.69-.85,5.2-.72,7.22.87a7.58,7.58,0,0,1,2.84,6.4,13.74,13.74,0,0,1-1.49,4.59c-3.5,7.58-13.3,24.71-24.56,21.57-4.72-1.32-6.51-6.15-5.55-10.41C889.18,714.67,900.26,700.9,909.28,698.07Z"/>
                        <path class="cls-10 contact_block-sec-2" d="M852.56,592.54l2,24.16L902,702.12s-6.82,11.91-2.49,13,17-2.57,17-16c-5-16.29-24.59-71.61-24.59-71.61l-9.18-14.28.13-26.82Z"/>
                        <path class="cls-4" d="M906.16,511.64c.38-7.13-1.9-25.72-4.24-32.38-8.54-24.29-10.18-36.26-10.18-56s-3.81-81.54-3.81-81.54L870,322.5l-36.53,1-20.28,6.69s-4.3,78.86-5.52,104.28c-.87,18.14-2.13,33.85-3.78,54.86,0,0-4.65,47.94,2.53,99.32,0,0,1.6,17.07,2.32,18.56.1.51.15.78.15.78h81.52V578.73q4-14.1,7.73-28.31C901.31,538.39,905.47,524.86,906.16,511.64Z"/>
                        <path class="cls-5" d="M889,328l6.94,8.28s-3.62,74.34-4.18,86.94,15.67,62.93,15.67,62.93l-67.25,8.77s-9.89-53.76-12.73-80.46,37.84-91.82,37.84-91.82Z"/>
                        <path class="cls-5" d="M821.57,326.76l-13.72,6.51s1.93,80.25-1.59,100.63c-2.15,12.42-10.5,52.66-10.5,52.66L817.48,494s13.36-50.33,16-77-.24-93.12-.24-93.12Z"/>
                        <path class="cls-1" d="M824.23,297.36c-1.78,6.89,2.31,13.7,5.89,19.52,1.46,2.38,3.73,5.68,1.84,8.39-2.11,3-7.36,2.43-9.67.16a14,14,0,0,1-3.12-5.89c-3.12-9.5-7.47-22.8-6.62-32.78.69-8,10.5-22.22,20.61-17.14a10.47,10.47,0,0,1,4,4.37,8.2,8.2,0,0,1,1.3,3.24c.48,4.64-4,5.83-6.93,8.32A23.44,23.44,0,0,0,824.23,297.36Z"/>
                        <path class="cls-10" d="M841.1,322.13c-6.75-.86-12.39-5.58-15.42-11.26s-3.74-12.23-3.62-18.6c.4-21.22,28.53-22.4,39.47-7.15C871.07,298.41,860.74,324.62,841.1,322.13Z"/>
                        <path class="cls-1" d="M860.31,295.13c.23,2.57,1.54,5.3,1.9,7.94.67,4.86-.42,11.16,1.36,15.6a30,30,0,0,0,14.59-7.14c3.73-3.46,3.06-8.6,3.89-13.7.77-4.71,1.76-9.44,1.49-14.21-1.47-26.1-27.52-40.37-50.46-28.6-8.68,4.46-12.48,15.78-6.09,23.21,6.86,8,20.82,4.53,29,10.47C857.86,290,859.26,292.38,860.31,295.13Z"/>
                        <path class="cls-10" d="M840.54,319.94c.34,1.58.68,3.16,1,4.74.15.72.09,2.79.72,3.29a1.65,1.65,0,0,0,1.23.17c1.22-.15,12.14-1.54,12-2.24a38.6,38.6,0,0,0-1.25-5.46c-.47-1.44-.65-4.14-1.52-5.23a19.55,19.55,0,0,1-6,2.67q-3.15.9-6.35,1.69Z"/><polygon class="cls-10" points="796.85 227.02 803.54 207.29 821.3 201.49 823.57 213.36 813.39 224.17 811.25 234.33 796.85 227.02"/><polygon class="cls-5" points="832.99 344.65 795.33 309.94 818.08 224.66 798.93 220.73 759.06 306.25 763.49 333.55 820.75 379.57 832.99 344.65"/>
                        <path class="cls-6" d="M836.86,321.13a16.39,16.39,0,0,1-16.39-16.39h-3.26a19.65,19.65,0,0,0,19.65,19.65Z"/><rect class="cls-7" x="836.29" y="319.82" width="12.25" height="6.57" rx="3.05"/>
                        <path class="cls-6" d="M820.67,292.7V279.21a26.38,26.38,0,0,1,52.76,0V292.7h5.8V279.11a32.18,32.18,0,0,0-64.36,0V292.7Z"/>
                        <path class="cls-15" d="M886.93,290.32a5.76,5.76,0,0,1,1,3.79V299a5.76,5.76,0,0,1-1,3.79l-1.63,1.91V288.41Z"/><rect class="cls-7" x="870.9" y="284.47" width="14.4" height="24.21" rx="5.65" transform="translate(1756.2 593.15) rotate(180)"/>
                        <path class="cls-15" d="M806.71,290.32a5.76,5.76,0,0,0-1,3.79V299a5.76,5.76,0,0,0,1,3.79l1.62,1.91V288.41Z"/><rect class="cls-7" x="808.33" y="284.47" width="14.4" height="24.21" rx="5.65"/>
                        <path class="cls-14 contact_block-sec" d="M743.91,267.72a30.67,30.67,0,1,0-14.37,59.63,31.46,31.46,0,0,0,9.61.86,30.7,30.7,0,0,0,4.76-60.49Z"/><g class="cls-16">
                        <path class="contact_block-sec" d="M763,281.48a29.76,29.76,0,0,0-19.05-13.76,32.12,32.12,0,0,0-7.86-.93A30.76,30.76,0,0,1,725,325.08c-.58,0-1.17.06-1.76.06a32.66,32.66,0,0,0,6.31,2.21,31.46,31.46,0,0,0,9.61.86A30.87,30.87,0,0,0,763,281.48Z"/></g>
                        <path class="cls-14" d="M900.47,56.47C886.32,35.27,864,20.86,834.09,13.66s-56.46-4.59-79,7.76C735.49,32.16,721.75,49,714.24,71.59a14.36,14.36,0,0,0,10.25,18.48l17.8,4.29a14.34,14.34,0,0,0,16.84-9.07c4.43-12.21,11.32-20.76,21-26.14,11.77-6.5,26.44-7.71,43.58-3.58s29.45,12,36.73,23.55,8.86,25.78,4.83,42.54c-5.57,23.1-15.93,37.07-30.81,41.51-15.67,4.68-38.21,3.38-67-3.87l-7.7-1.86A14.37,14.37,0,0,0,742.45,168l-16.16,67.08a14.35,14.35,0,0,0,10.58,17.3l18.06,4.35a14.2,14.2,0,0,0,4.33.37,14.37,14.37,0,0,0,13-10.95l10.47-43.44a1,1,0,0,1,1.21-.77c33.86,7.2,61.5,6,82.17-3.7,22-10.27,36.94-31.36,44.49-62.67S914.69,77.79,900.47,56.47Z"/><g class="cls-16">
                        <path d="M900.47,56.47C886.32,35.27,864,20.86,834.09,13.66c-18.5-4.46-35.74-5.15-51.53-2.1a138.72,138.72,0,0,1,26.22,3.83C838.68,22.6,861,37,875.16,58.21s17.61,47.94,10.1,79.13S862.74,189.73,840.77,200a85.5,85.5,0,0,1-21,6.51c18,.49,33.5-2.26,46.31-8.25,22-10.27,36.94-31.36,44.49-62.67S914.69,77.79,900.47,56.47Z"/></g>
                        <path class="cls-1" d="M855.56,571.38l-118.77-3.86a1.74,1.74,0,0,1-1.69-1.8l6.56-202a1.74,1.74,0,0,1,1.8-1.68l118.77,3.85a1.75,1.75,0,0,1,1.69,1.8l-6.56,202A1.74,1.74,0,0,1,855.56,571.38Z"/><rect class="cls-17" x="747.71" y="374.59" width="104.18" height="166.6" transform="translate(15.27 -25.7) rotate(1.86)"/><rect class="cls-17" x="782.9" y="552.44" width="27.38" height="8.71" rx="1.1" transform="translate(18.48 -25.54) rotate(1.86)"/><polygon class="cls-10" points="881.44 456.8 872.97 475.83 854.74 479.97 853.58 467.94 864.71 458.11 867.78 448.19 881.44 456.8"/><polygon class="cls-5" points="873.09 340.38 898.44 395.49 867.78 448.19 880.35 459.85 923.49 405.71 930 387.1 895.92 336.3 873.09 340.38"/>
                        <polygon class="cls-2" points="206.42 292.31 204.63 284.48 206.56 282.6 210.41 285.98 215.4 275.94 223.6 271.04 227.86 275.67 220.83 286.41 216.24 293.19 212.34 307.43 205.59 305.36 206.42 292.31"/>
                        <path class="cls-5" d="M196.21,334.26q4-19.32,6.06-39a35.2,35.2,0,0,1,16.07,2.49A331.36,331.36,0,0,1,215.16,367a4,4,0,0,1-1.14,2.67,3.81,3.81,0,0,1-2.38.56c-8.08,0-16-2.37-23.6-5a328.74,328.74,0,0,1-34.21-14,78.81,78.81,0,0,0,.79-21.36c-1-9.83,1.28-23.28,13.37-15.7C171.27,316.21,196.77,331.54,196.21,334.26Z"/></g></g></svg>