<svg xmlns="http://www.w3.org/2000/svg" viewBox="0 0 387.43 283.01"><defs><style>.cls-1,.cls-2{fill:#173d7a;}.cls-1{opacity:0.5;}.cls-3{fill:#d4ecff;}.cls-4{fill:#396caa;}.cls-5{fill:#5793ce;}.cls-6{fill:#ffc2b0;}.cls-7{fill:#fff;}.cls-8{fill:#ea9c92;}.cls-9{fill:#fe9e1f;}.cls-10{fill:#fe9e1f;}
    
    .contact-clock {
	transform-origin:55% 50%;
	-moz-transform-origin:55% 50%;
	animation-count: 0.5;
	animation: clockFlip 2.5s;
}

@keyframes clockFlip {
  0% {transform: perspective(2000px) rotateY(90deg) skewY(-1deg)}
  30% {transform:perspective(2000px) rotateY(-25deg) skewY(-0.8deg)}
  50% {transform:perspective(2000px) rotateY(20deg) skewY(0.8deg)}
  70% {transform:perspective(2000px) rotateY(-10deg) skewY(-0.8deg)}
  100% {transform:perspective(2000px) rotateY(0deg)}
}

.contact_lap {
	animation-name: contactLap;
    animation-duration: 6s;
    animation-iteration-count: 1;
    transform-origin: 50% 50%;
}

@keyframes contactLap {
	0% {transform: translate(150px, 0);}
	20% {transform: translate(0, 5px);}
}

.lap_location {
	animation-name: locationOpecity;
    animation-duration: 3s;
    animation-iteration-count: infinite;
}

@keyframes locationOpecity {
	0% {opacity: 1.5;}
	50% {opacity: 0.4;}
	100% {opacity: 1.5;}
}

.contact_location {
	animation-name: contact-locate;
    animation-duration: 3s;
    animation-iteration-count: infinite;
    transform-origin: 50% 50%;
}

@keyframes contact-locate {
	0% {transform: translate(0, 0);}
	50% {transform: translate(0, 8px);}
}

.contact_block {
	animation-name: contactBlocka-1;
    animation-duration: 4s;
    animation-iteration-count: infinite;
    transform-origin: 50% 50%;
}

@keyframes contactBlocka-1 {
	0% {transform: translate(0, 0);}
	50% {transform: translate(20px, 0);}
}

.contact_block-sec {
	animation-name: contactBlocka-2;
    animation-duration: 4s;
    animation-iteration-count: infinite;
    transform-origin: 50% 50%;
}

@keyframes contactBlocka-2 {
	0% {transform: translate(0, 0);}
	50% {transform: translate(-20px, 0);}
}
    
    </style></defs><title>Asset 1</title><g id="Layer_2" data-name="Layer 2"><g id="Ñëîé_1" data-name="Ñëîé 1"><ellipse class="cls-1" cx="46.38" cy="246.9" rx="18.88" ry="10.9"/><path class="cls-2" d="M45.27,241.15c.21.53,3.84,4.95,7.47,6.06a8.42,8.42,0,0,0,3.34.46A1.1,1.1,0,0,0,57,246.2a13.77,13.77,0,0,0-7-7.68C43.85,235.47,45.27,241.15,45.27,241.15Z"/><path class="cls-2" d="M44.06,242.85a29.92,29.92,0,0,1,1.79,5.9c.25,1.64-.65,3.76-1.39,5.17a1.5,1.5,0,0,1-2.35.41,8.71,8.71,0,0,1-3-5.63c-.42-4.53,0-5.32,0-5.32Z"/><path class="cls-3" d="M35.31,188.13a85,85,0,0,0,0,12c.47,6.32,2.17,35.86,2.48,43,0,0-.16,2.15,4,1.68s3.83-2.87,3.83-2.87,5.85-.07,6-3.52,6-41.18,6-54.74Z"/><path class="cls-4" d="M45.63,241.94a12.18,12.18,0,0,0,1.67-.17h0l1.15-45.92Z"/><path class="cls-5" d="M41.49,146.23c-9.45,3.91-9.26,9.5-9.26,9.5s1.85,20.48,1.22,34.16c-.26,5.72,30.38,6.15,25.81-9.1-5.39-18-3.37-32.55-5.89-34.75S43.94,145.21,41.49,146.23Z"/><ellipse class="cls-6" cx="43.17" cy="149.96" rx="4.87" ry="3.59" transform="translate(-36.04 15.51) rotate(-14.45)"/><path class="cls-7" d="M42.47,154.24c-2.23,0-4.13-1.13-4.59-2.91h0c-.58-2.23,1.33-4.66,4.25-5.42s5.76.46,6.34,2.69a3.77,3.77,0,0,1-.87,3.34A6.38,6.38,0,0,1,44.22,154,7.13,7.13,0,0,1,42.47,154.24ZM39,151c.41,1.6,2.6,2.42,4.89,1.83a5.23,5.23,0,0,0,2.76-1.67,2.61,2.61,0,0,0,.64-2.29c-.41-1.6-2.61-2.42-4.89-1.84s-3.81,2.37-3.4,4Z"/><path class="cls-6" d="M45.28,145.8a23.73,23.73,0,0,0,.08,3.37c.06.94-3.24,1.82-4.09,1s-.51-1.74-.72-4.94S45.28,145.8,45.28,145.8Z"/><path class="cls-8" d="M40.55,145.2s.81,3,4.81,4.11l-.06-2.7Z"/><circle class="cls-6" cx="45.06" cy="139.47" r="7.27" transform="translate(-31.31 14.37) rotate(-13.5)"/><path class="cls-8" d="M43.39,139.74a22.54,22.54,0,0,0,6.78,1.73c2.77,0,2.16-2.3,2.16-2.3L44.1,138Z"/><path class="cls-9" d="M51,140.19a13,13,0,0,0-6.55-.86,3.2,3.2,0,0,0-1.85,1.1,1.1,1.1,0,0,1-.56.4c-.54.12-1.43-2.13-2.48-2.18s-1.76.7-.9,2.08.58,2.94.18,3.16-4.62-3-.9-10.39,13.19-3.4,14.66-1.91c0,0,1.55,1.35,2.81.15C55.4,131.74,56.81,142.32,51,140.19Z"/><path class="cls-6" d="M58,144.55l5.08-2.19A2.22,2.22,0,0,0,64.31,141l5-14.54,2.33.41L67.6,145a3,3,0,0,1-1.48,2l-8.46,4.76Z"/><path class="cls-6" d="M5.12,146.91,4,146.38a9.37,9.37,0,0,1-2.68-1.85l-.81-.8A1.57,1.57,0,0,1,.12,142h0a.88.88,0,0,1,1.19-.44l2.44,1.23s-.38-1.08-.2-1.36,2.07,1.8,2.94,3.28S5.12,146.91,5.12,146.91Z"/><path class="cls-6" d="M25.4,152.73l-4.34-.49a7.58,7.58,0,0,1-2.93-.94L6.49,144.71l-1.37,2.2L17,156.11a5.47,5.47,0,0,0,1.19.7l7.1,3Z"/><path class="cls-6" d="M71.66,126.89l.44-.52a4.06,4.06,0,0,0,1-2.08l.31-2.12a1.82,1.82,0,0,0-.69-1.73l-.06,0a1.1,1.1,0,0,0-1.61.52l-1,2.53s.33-1.31-.09-1.45-.9,1.52-.55,2.42a3.78,3.78,0,0,1,0,2.06Z"/><path class="cls-7" d="M47.94,144.48l1.88-.51a4.5,4.5,0,0,1-2.2,1.77c-1.31.36-1.52-.75-1.52-.75Z"/><path class="cls-5" d="M50.76,145s8.49-1.68,11.08-2.46,3.68,6.33,3.48,8.13-9,3.82-10.07,6.92S50.76,145,50.76,145Z"/><path class="cls-5" d="M37.78,148.12a66.55,66.55,0,0,1-16.58,4,1.14,1.14,0,0,0-.93.74,12.32,12.32,0,0,0-.55,6.24,2.3,2.3,0,0,0,2.27,1.8c3.25,0,10.25.29,11.38,3.33C34.86,168.17,37.78,148.12,37.78,148.12Z"/><path class="cls-7" d="M41.43,153.72l1.7,1.85a1.11,1.11,0,0,1,.29.89l-1.17,10.11a1.15,1.15,0,0,0,.22.8l3.66,4.78a.33.33,0,0,0,.58-.1l2-6.27a1.08,1.08,0,0,0,0-.73l-3.5-9.18a1,1,0,0,1,0-.63l.51-2.44Z"/><path class="cls-4" d="M22.85,159c1.86.22,6.41.61,9.92.9a3.22,3.22,0,0,1,2.83,4.06c-1.86,7.17.61,18.7.16,22.61-.53,4.67,2.3,6.47,2.31,6.48-2.79-.6-4.69-1.7-4.62-3.14a262.24,262.24,0,0,0-.64-26.58c-2-2.22-8-2.47-10.85-2.45A2.28,2.28,0,0,1,19.71,159a10.69,10.69,0,0,1,0-3.78C19.68,155.29,19.68,158.61,22.85,159Z"/><polygon class="cls-1" points="107.24 283.01 94.8 275.83 107.24 268.65 119.68 275.83 107.24 283.01"/><polygon class="cls-10 contact_location" points="119.68 266.72 107.24 273.9 107.24 259.54 119.68 252.36 119.68 266.72"/><polygon class="cls-9 contact_location" points="107.24 259.54 94.8 252.36 107.24 245.18 119.67 252.36 107.24 259.54"/><polygon class="cls-9 contact_location" points="107.24 273.9 94.8 266.72 94.8 252.36 107.24 259.54 107.24 273.9"/><polygon class="cls-7 contact_location" points="102.76 266.14 99.28 264.13 99.28 260.12 102.76 262.12 102.76 266.14"/><polygon class="cls-1 contact_location" points="375.73 227.13 364.04 220.38 375.73 213.63 387.43 220.38 375.73 227.13"/><polygon class="cls-2 contact_location" points="387.43 211.8 375.73 218.56 375.73 205.05 387.43 198.3 387.43 211.8"/><polygon class="cls-3 contact_location" points="375.73 205.05 364.04 198.3 375.73 191.55 387.43 198.3 375.73 205.05"/><polygon class="cls-5 contact_location" points="375.73 218.56 364.04 211.8 364.04 198.3 375.73 205.05 375.73 218.56"/><polygon class="cls-7 contact_location" points="371.52 211.26 368.25 209.37 368.25 205.59 371.52 207.48 371.52 211.26"/><ellipse class="cls-1" cx="325.07" cy="126.77" rx="19.65" ry="11.34"/><path class="cls-9 " d="M334.48,10.66s-.43,8.81-1.1,14.74-14.94-4.55-14.94-4.55V14.1Z"/><path class="cls-2 " d="M326.88,120.37c-.22.53-3.92,5-7.61,6.16a8.59,8.59,0,0,1-3.4.47,1.12,1.12,0,0,1-.91-1.49,14,14,0,0,1,7.09-7.82C328.32,114.58,326.88,120.37,326.88,120.37Z"/><path class="cls-2" d="M328.11,122.1a30.8,30.8,0,0,0-1.82,6c-.27,1.67.65,3.83,1.4,5.27a1.54,1.54,0,0,0,2.4.41,8.85,8.85,0,0,0,3-5.73c.43-4.61,0-5.42,0-5.42Z"/><path class="cls-3" d="M337,66.39a88,88,0,0,1,0,12.24c-.49,6.44-2.21,36.51-2.53,43.75,0,0,.16,2.19-4.08,1.71s-3.9-2.92-3.9-2.92-6-.08-6.15-3.59-6.1-41.92-6.1-55.73Z"/><path class="cls-6" d="M312.06,36.33l-2.92,4.52L299.11,53a2.26,2.26,0,0,0,1.6,1.42c1,.23,9.41-7.82,13.05-11.35a2.8,2.8,0,0,0,.39-3.55Z"/><path class="cls-5" d="M317.75,17.78s-4.63-.12-6.24,6.58S308.63,39.44,310,40.14c4.22,2.09,6.88-.36,6.88-.36Z"/><path class="cls-5" d="M316.37,18.06a3.76,3.76,0,0,1,2.5-.13c3.95,1.13,18.79,5.49,21.24,7.58,2.83,2.42-4.24,16-4.14,20.45s.61,9.7,1,14.54.93,7.49-3,9.55a15.58,15.58,0,0,1-15.78-1.7c-5.06-3.86-4.14-6.5-3.93-9.3s1.93-14.9,1.78-18.34a13,13,0,0,1-3.1-3.56c-1.32-2.25,1-6.39,2-9.08s-.55-5.77-.25-8A2.52,2.52,0,0,1,316.37,18.06Z"/><path class="cls-7" d="M327.72,27.21,326,29.15a1.12,1.12,0,0,0-.27.91l1.47,10.3a1.13,1.13,0,0,1-.2.82l-3.61,5a.34.34,0,0,1-.59-.09l-2.21-6.35a1.2,1.2,0,0,1,0-.75L324,29.51a1.2,1.2,0,0,0,0-.65l-.59-2.47Z"/><path class="cls-7" d="M321.11,22.69c-.31,2.45,1.93,4.75,5,5.15s5.84-1.27,6.15-3.72-1.93-4.75-5-5.14S321.43,20.25,321.11,22.69Z"/><path class="cls-6" d="M322.7,22.9c-.22,1.74,1.38,3.39,3.59,3.67s4.16-.9,4.39-2.65-1.38-3.4-3.58-3.68S322.93,21.15,322.7,22.9Z"/><path class="cls-6" d="M324.89,17.16s2.68-2.21,3.21-1.09,1,5.91,1,5.91l-5.32,1.43.8-4.86S323.48,17.65,324.89,17.16Z"/><circle class="cls-6" cx="324.51" cy="11.44" r="7.95"/><path class="cls-8" d="M328.47,17.46c0,.25.09.52.14.79-.54,2.77-4.68,4-4.68,4l.61-3.68s-.5-.42-.35-.85C325.82,17.19,327.88,16.73,328.47,17.46Z"/><circle class="cls-6" cx="324.51" cy="11.44" r="7.95"/><polygon class="cls-6" points="344.09 45.08 343.2 66.34 340.09 66.67 338.07 47.52 344.09 45.08"/><path class="cls-4" d="M333.87,43.3c.17-.74,1.53-1.35,1.74-2.31a86.27,86.27,0,0,0,1.32-12.26l.87,10c-1,3-1.86,5.67-1.83,7.25.06,2.61.26,5.5.49,8.42h0S332.84,47.84,333.87,43.3Z"/><path class="cls-5" d="M339.52,25.07s2.48.95,3.89,8.59,2.46,15.29-.05,16.27-4.6,1.73-5.34-.31-1.19-11.89-1.29-15.43S336.51,25.77,339.52,25.07Z"/><path class="cls-6" d="M299.86,52.08a6.6,6.6,0,0,0-2.32,1.55A15.23,15.23,0,0,0,296,55.76c-.77,1.15-1.42,3.65-.95,4s3.17-4.18,3.61-3.13,0,2,.55,2,2.5-4.51,4-5.92S299.86,52.08,299.86,52.08Z"/><path class="cls-4" d="M326.51,121.17a11.74,11.74,0,0,1-1.7-.18h0l-1.17-46.75Z"/><path class="cls-4" d="M331,95.92l1.65-2.16,17.4-10.07a2.44,2.44,0,0,0,1-1.94l0-14.24,1-1.31-.94-.54h0a.63.63,0,0,0-.68,0L330.71,77.12a2.43,2.43,0,0,0-1,1.93l0,15.51a.9.9,0,0,0,.37.83h0Z"/><path class="cls-4" d="M343,87.75l1.23-.72,6.79-11.78V67.51l1-1.31-.94-.54h0a.63.63,0,0,0-.68,0L330.71,77.12A2,2,0,0,0,330,78Z"/><path class="cls-4" d="M351.61,66.78l.44-.58-.94-.54h0a.63.63,0,0,0-.68,0l-.35.2Z"/><path class="cls-4" d="M330.53,77.24a2.59,2.59,0,0,0-.82,1.66L331.64,80l.92-1.6Z"/><path class="cls-3" d="M331.65,77.66l19.72-11.42c.56-.32,1,0,1,.77l0,15.51a2.42,2.42,0,0,1-1,1.93L331.67,95.87c-.56.32-1,0-1-.77l0-15.51A2.42,2.42,0,0,1,331.65,77.66Z"/><path class="cls-7" d="M331.35,77.48l19.72-11.41a.58.58,0,0,1,.8.07.73.73,0,0,0-.5.1L331.65,77.66a2.42,2.42,0,0,0-1,1.93l0,15.51a1,1,0,0,0,.21.69c-.3-.06-.51-.37-.51-.87V79.41A2.44,2.44,0,0,1,331.35,77.48Z"/><polygon class="cls-7" points="335.7 88.78 336.64 88.24 336.64 80.17 335.7 80.72 335.7 88.78"/><polygon class="cls-7" points="337.9 87.52 338.83 86.98 338.83 78.91 337.9 79.45 337.9 87.52"/><polygon class="cls-7" points="340.09 86.25 341.03 85.71 341.03 77.64 340.09 78.18 340.09 86.25"/><path class="cls-6" d="M343.17,66.17a47,47,0,0,1,.7,6.55c-.12,1.59-1,4.21-1.62,4.16s0-6.4-1.15-5.76-1.26,1.71-1.77,1.33.89-5.8.52-8.15S343.17,66.17,343.17,66.17Z"/><path class="cls-8" d="M321.46,12.13c-4,1.42-4.77.56-4.81.51,0-.24-.06-.48-.08-.73a7.9,7.9,0,0,1,.27-2.54L327.18,8A11.23,11.23,0,0,1,321.46,12.13Z"/><path class="cls-9" d="M316.29,4c.94-.81,4.33-4.79,10.4-3.85,3.8.59,7,3.18,7.71,9.09A13.59,13.59,0,0,1,330.72,20a4.25,4.25,0,0,1-.43-.21c-1.52-1-1.68-1.56-1.68-1.56l-.34-3a.85.85,0,0,1,.76-.84,1.51,1.51,0,0,0,1.11-.68,1.78,1.78,0,0,0-1.27-3,1.33,1.33,0,0,1-1.4-1,.71.71,0,0,0-.93-.48c-2,.72-6.87,2.27-10,1.37C312.49,9.49,315.35,4.8,316.29,4Z"/><path class="cls-7" d="M320.82,15.72l-2.43-.67a5.89,5.89,0,0,0,2.85,2.3c1.7.46,2-1,2-1Z"/><polygon class="cls-4" points="339.04 72.29 341.11 71.11 340.33 72.38 339.29 72.77 339.04 72.29"/><path class="cls-7" d="M329.15,13.92a.83.83,0,1,0,.82-.83A.82.82,0,0,0,329.15,13.92Z"/><path class="cls-1" d="M196.8,206.57l-29.87-17.24c-1.83-1.06-1.6-2.91.52-4.13l28.83-16.65a8,8,0,0,1,7.15-.3L233.3,185.5c1.83,1.06,1.6,2.9-.51,4.13L204,206.28A8,8,0,0,1,196.8,206.57Z"/><path class="cls-4" d="M243.21,172.36h0v-12.9l-28.94,0-10-5.77c-2.29-1.33-6.3-1.16-9,.37L186,159.43l-29,0v13.27a2.6,2.6,0,0,0,1.54,2.4L196,196.67c2.3,1.33,6.31,1.16,9-.37L241,175.45C242.56,174.57,243.29,173.43,243.21,172.36Z"/><path class="cls-4" d="M200.12,152.78a10.24,10.24,0,0,0-4.8,1.26L186,159.43l-29,0v13.27a2.6,2.6,0,0,0,1.54,2.4L196,196.67a8,8,0,0,0,4.16.89Z"/><path class="cls-5" d="M160.3,159.41H157v13.27a2.6,2.6,0,0,0,1.54,2.4l1.74,1Z"/><path class="cls-5" d="M196.54,197a10.21,10.21,0,0,0,7.16-.09V181.81h-7.16Z"/><path class="cls-3" d="M196,183.45l-37.4-21.59c-2.29-1.33-2-3.64.65-5.17l36.11-20.85c2.65-1.53,6.66-1.7,9-.37l37.4,21.59c2.3,1.33,2,3.64-.64,5.17l-36.11,20.85C202.27,184.61,198.26,184.78,196,183.45Z"/><path class="cls-5" d="M196.63,179.56l-31.34-18.09c-1.92-1.11-1.68-3.05.54-4.33l30.26-17.47c2.23-1.29,5.59-1.43,7.51-.32l31.34,18.1c1.92,1.11,1.68,3.05-.54,4.33l-30.26,17.47A8.33,8.33,0,0,1,196.63,179.56Z"/><path class="cls-3" d="M229.45,175.77a3.35,3.35,0,0,1-1.51,2.62c-.83.48-1.51.09-1.51-.88a3.34,3.34,0,0,1,1.51-2.61C228.78,174.42,229.45,174.81,229.45,175.77Z"/><path class="cls-3" d="M234.31,173a3.32,3.32,0,0,1-1.51,2.62c-.83.48-1.51.09-1.51-.87a3.34,3.34,0,0,1,1.51-2.62C233.64,171.61,234.31,172,234.31,173Z"/><path class="cls-3" d="M239.17,170.16a3.31,3.31,0,0,1-1.51,2.61c-.83.48-1.51.09-1.51-.87a3.37,3.37,0,0,1,1.51-2.62C238.5,168.8,239.17,169.19,239.17,170.16Z"/><path class="cls-4" d="M243.21,151.74h0v-12.9l-28.94,0-10-5.77c-2.29-1.33-6.3-1.16-9,.37L186,138.81l-29,0v13.27a2.61,2.61,0,0,0,1.54,2.4L196,176.05c2.3,1.33,6.31,1.16,9-.37L241,154.83C242.56,154,243.29,152.81,243.21,151.74Z"/><path class="cls-4" d="M200.12,132.16a10.24,10.24,0,0,0-4.8,1.26L186,138.81l-29,0v13.27a2.61,2.61,0,0,0,1.54,2.4L196,176.05a8,8,0,0,0,4.16.89Z"/><path class="cls-5" d="M160.3,138.79H157v13.27a2.61,2.61,0,0,0,1.54,2.4l1.74,1Z"/><path class="cls-5" d="M196.54,176.33a10.16,10.16,0,0,0,7.16-.08V161.18h-7.16Z"/><path class="cls-3" d="M196,162.83l-37.4-21.59c-2.29-1.33-2-3.64.65-5.17l36.11-20.85c2.65-1.53,6.66-1.7,9-.37l37.4,21.59c2.3,1.32,2,3.64-.64,5.17l-36.11,20.85C202.27,164,198.26,164.15,196,162.83Z"/><path class="cls-5" d="M196.63,158.94l-31.34-18.09c-1.92-1.11-1.68-3,.54-4.33L196.09,119c2.23-1.28,5.59-1.42,7.51-.31l31.34,18.1c1.92,1.11,1.68,3-.54,4.33l-30.26,17.47A8.36,8.36,0,0,1,196.63,158.94Z"/><path class="cls-3" d="M229.45,155.15a3.31,3.31,0,0,1-1.51,2.61c-.83.49-1.51.09-1.51-.87a3.34,3.34,0,0,1,1.51-2.61C228.78,153.79,229.45,154.18,229.45,155.15Z"/><path class="cls-3" d="M234.31,152.34A3.33,3.33,0,0,1,232.8,155c-.83.48-1.51.09-1.51-.87a3.34,3.34,0,0,1,1.51-2.62C233.64,151,234.31,151.38,234.31,152.34Z"/><path class="cls-3" d="M239.17,149.54a3.31,3.31,0,0,1-1.51,2.61c-.83.48-1.51.09-1.51-.87a3.36,3.36,0,0,1,1.51-2.62C238.5,148.18,239.17,148.57,239.17,149.54Z"/><path class="cls-4" d="M243.21,131.12h0v-12.9l-28.94,0-10-5.77c-2.29-1.33-6.3-1.16-9,.37L186,118.18H157v13.27a2.61,2.61,0,0,0,1.54,2.4L196,155.43c2.3,1.33,6.31,1.16,9-.37L241,134.21C242.56,133.33,243.29,132.18,243.21,131.12Z"/><path class="cls-4" d="M200.12,111.54a10.24,10.24,0,0,0-4.8,1.26L186,118.18H157v13.27a2.61,2.61,0,0,0,1.54,2.4L196,155.43a8,8,0,0,0,4.16.89Z"/><path class="cls-5" d="M160.3,118.17H157v13.27a2.61,2.61,0,0,0,1.54,2.4l1.74,1Z"/><path class="cls-5" d="M196.54,155.71a10.21,10.21,0,0,0,7.16-.08V140.56h-7.16Z"/><path class="cls-3" d="M196,142.21l-37.4-21.59c-2.29-1.33-2-3.64.65-5.17L195.32,94.6c2.65-1.53,6.66-1.7,9-.38l37.4,21.6c2.3,1.32,2,3.64-.64,5.17l-36.11,20.85C202.27,143.37,198.26,143.53,196,142.21Z"/><path class="cls-5" d="M196.63,138.32l-31.34-18.09c-1.92-1.11-1.68-3,.54-4.34l30.26-17.47c2.23-1.28,5.59-1.42,7.51-.31l31.34,18.1c1.92,1.11,1.68,3.05-.54,4.33L204.14,138A8.36,8.36,0,0,1,196.63,138.32Z"/><path class="cls-3" d="M229.45,134.53a3.31,3.31,0,0,1-1.51,2.61c-.83.48-1.51.09-1.51-.87a3.37,3.37,0,0,1,1.51-2.62C228.78,133.17,229.45,133.56,229.45,134.53Z"/><path class="cls-3" d="M234.31,131.72a3.35,3.35,0,0,1-1.51,2.62c-.83.48-1.51.09-1.51-.88a3.34,3.34,0,0,1,1.51-2.61C233.64,130.37,234.31,130.76,234.31,131.72Z"/><path class="cls-3" d="M239.17,128.91a3.32,3.32,0,0,1-1.51,2.62c-.83.48-1.51.09-1.51-.87a3.34,3.34,0,0,1,1.51-2.62C238.5,127.56,239.17,128,239.17,128.91Z"/><path class="cls-4" d="M243.21,110.5h0V97.59H214.27l-10-5.78c-2.29-1.32-6.3-1.16-9,.38L186,97.56H157v13.27a2.62,2.62,0,0,0,1.54,2.4L196,134.81c2.3,1.32,6.31,1.16,9-.37L241,113.59C242.56,112.71,243.29,111.56,243.21,110.5Z"/><path class="cls-4" d="M200.12,90.92a10.24,10.24,0,0,0-4.8,1.26L186,97.56H157v13.27a2.62,2.62,0,0,0,1.54,2.4L196,134.81a8.15,8.15,0,0,0,4.16.89Z"/><path class="cls-5" d="M160.3,97.55H157v13.27a2.62,2.62,0,0,0,1.54,2.4l1.74,1Z"/><path class="cls-5" d="M196.54,135.09a10.21,10.21,0,0,0,7.16-.08V119.94h-7.16Z"/><path class="cls-3" d="M196,121.59,158.56,100c-2.29-1.32-2-3.64.65-5.17L195.32,74c2.65-1.53,6.66-1.69,9-.37l37.4,21.6c2.3,1.32,2,3.64-.64,5.17l-36.11,20.84C202.27,122.74,198.26,122.91,196,121.59Z"/><path class="cls-5" d="M196.63,117.7,165.29,99.6c-1.92-1.11-1.68-3,.54-4.33L196.09,77.8c2.23-1.28,5.59-1.42,7.51-.31l31.34,18.09c1.92,1.11,1.68,3-.54,4.34l-30.26,17.47A8.36,8.36,0,0,1,196.63,117.7Z"/><path class="cls-3" d="M229.45,113.9a3.32,3.32,0,0,1-1.51,2.62c-.83.48-1.51.09-1.51-.87a3.34,3.34,0,0,1,1.51-2.62C228.78,112.55,229.45,112.94,229.45,113.9Z"/><path class="cls-3" d="M234.31,111.1a3.31,3.31,0,0,1-1.51,2.61c-.83.49-1.51.1-1.51-.87a3.34,3.34,0,0,1,1.51-2.61C233.64,109.74,234.31,110.13,234.31,111.1Z"/><path class="cls-3" d="M239.17,108.29a3.32,3.32,0,0,1-1.51,2.62c-.83.48-1.51.09-1.51-.87a3.34,3.34,0,0,1,1.51-2.62C238.5,106.94,239.17,107.33,239.17,108.29Z"/><path class="cls-4" d="M243.21,89.88h0V77H214.27l-10-5.78c-2.29-1.32-6.3-1.16-9,.37L186,76.94l-29,0V90.2a2.62,2.62,0,0,0,1.54,2.4L196,114.19c2.3,1.32,6.31,1.16,9-.37L241,93C242.56,92.08,243.29,90.94,243.21,89.88Z"/><path class="cls-2" d="M200.12,70.29a10.48,10.48,0,0,0-4.8,1.26L186,76.94l-29,0V90.2a2.62,2.62,0,0,0,1.54,2.4L196,114.19a8.25,8.25,0,0,0,4.16.89Z"/><path class="cls-5" d="M160.3,76.93H157V90.2a2.62,2.62,0,0,0,1.54,2.4l1.74,1Z"/><path class="cls-5" d="M196.54,114.47a10.21,10.21,0,0,0,7.16-.08V99.32h-7.16Z"/><path class="cls-3" d="M196,101l-37.4-21.59c-2.29-1.32-2-3.64.65-5.17l36.11-20.85c2.65-1.53,6.66-1.69,9-.37l37.4,21.59c2.3,1.33,2,3.64-.64,5.17l-36.11,20.85C202.27,102.12,198.26,102.29,196,101Z"/><path class="cls-5" d="M196.63,97.08,165.29,79c-1.92-1.11-1.68-3,.54-4.33l30.26-17.47c2.23-1.28,5.59-1.42,7.51-.31L234.94,75c1.92,1.11,1.68,3.05-.54,4.34L204.14,96.77A8.36,8.36,0,0,1,196.63,97.08Z"/><rect class="cls-7" x="211.9" y="98.34" width="17.32" height="0.61" transform="translate(-19.77 123.57) rotate(-30.02)"/><path class="cls-3" d="M229.45,93.28a3.32,3.32,0,0,1-1.51,2.62c-.83.48-1.51.09-1.51-.87a3.34,3.34,0,0,1,1.51-2.62C228.78,91.93,229.45,92.32,229.45,93.28Z"/><path class="cls-3" d="M234.31,90.48a3.31,3.31,0,0,1-1.51,2.61c-.83.48-1.51.09-1.51-.87a3.37,3.37,0,0,1,1.51-2.62C233.64,89.12,234.31,89.51,234.31,90.48Z"/><path class="cls-3" d="M239.17,87.67a3.33,3.33,0,0,1-1.51,2.62c-.83.48-1.51.09-1.51-.88a3.34,3.34,0,0,1,1.51-2.61C238.5,86.32,239.17,86.71,239.17,87.67Z"/><path class="cls-4" d="M243.21,69.11h0V56.21l-28.94,0-10-5.77c-2.29-1.33-6.3-1.16-9,.37L186,56.18l-29,0V69.43a2.6,2.6,0,0,0,1.54,2.4L196,93.42c2.3,1.33,6.31,1.16,9-.37L241,72.2C242.56,71.32,243.29,70.18,243.21,69.11Z"/><path class="cls-2" d="M200.12,49.53a10.36,10.36,0,0,0-4.8,1.26L186,56.18l-29,0V69.43a2.6,2.6,0,0,0,1.54,2.4L196,93.42a8,8,0,0,0,4.16.89Z"/><path class="cls-5" d="M160.3,56.16H157V69.43a2.6,2.6,0,0,0,1.54,2.4l1.74,1Z"/><path class="cls-5" d="M196.54,93.71a10.21,10.21,0,0,0,7.16-.08V78.56h-7.16Z"/><path class="cls-3" d="M196,80.2l-37.4-21.59c-2.29-1.33-2-3.64.65-5.17l36.11-20.85c2.65-1.53,6.66-1.7,9-.37l37.4,21.59c2.3,1.33,2,3.64-.64,5.17L204.92,79.83C202.27,81.36,198.26,81.53,196,80.2Z"/><path class="cls-7" d="M241,56.44,204.92,77.29c-2.65,1.53-6.66,1.7-9,.37l-37.4-21.59a3.38,3.38,0,0,1-1.14-1c-.79,1.27-.43,2.65,1.14,3.56L196,80.2c2.3,1.33,6.31,1.16,9-.37L241,59c2.06-1.19,2.68-2.85,1.79-4.15A5,5,0,0,1,241,56.44Z"/><path class="cls-3" d="M229.45,72.52a3.35,3.35,0,0,1-1.51,2.62c-.83.48-1.51.09-1.51-.88a3.34,3.34,0,0,1,1.51-2.61C228.78,71.17,229.45,71.56,229.45,72.52Z"/><path class="cls-3" d="M214.57,80.7a3.36,3.36,0,0,1-1.51,2.62c-.84.48-1.51.09-1.51-.87a3.32,3.32,0,0,1,1.51-2.62C213.89,79.35,214.57,79.74,214.57,80.7Z"/><path class="cls-7" d="M214.57,102.1a3.37,3.37,0,0,1-1.51,2.62c-.84.48-1.51.09-1.51-.88a3.31,3.31,0,0,1,1.51-2.61C213.89,100.75,214.57,101.14,214.57,102.1Z"/><path class="cls-3" d="M234.31,69.71a3.32,3.32,0,0,1-1.51,2.62c-.83.48-1.51.09-1.51-.87a3.34,3.34,0,0,1,1.51-2.62C233.64,68.36,234.31,68.75,234.31,69.71Z"/><path class="cls-3" d="M239.17,66.91a3.31,3.31,0,0,1-1.51,2.61c-.83.49-1.51.1-1.51-.87A3.34,3.34,0,0,1,237.66,66C238.5,65.55,239.17,65.94,239.17,66.91Z"/><path class="cls-2" d="M198.17,66.81l-17.5-10.1c-1.07-.62-.94-1.7.3-2.42l16.9-9.76a4.68,4.68,0,0,1,4.19-.17l17.5,10.11c1.08.62.94,1.7-.3,2.41l-16.9,9.76A4.64,4.64,0,0,1,198.17,66.81Z"/><path class="cls-3" d="M199.85,58.35,197.43,57c-.15-.09-.13-.24,0-.34l2.34-1.35a.63.63,0,0,1,.58,0l2.42,1.4c.15.08.13.23,0,.33l-2.34,1.35A.63.63,0,0,1,199.85,58.35Z"/><path class="cls-4" d="M180.67,56.71l.05,0a2.2,2.2,0,0,1,.25-.17l16.9-9.76a4.64,4.64,0,0,1,4.19-.17l17.45,10.07c1-.71,1-1.67.05-2.24l-17.5-10.11a4.68,4.68,0,0,0-4.19.17L181,54.29C179.73,55,179.6,56.09,180.67,56.71Z"/><path class="cls-3" d="M194.51,83.26c0,1-.71,1.43-1.59.92a3.52,3.52,0,0,1-1.59-2.76c0-1,.71-1.42,1.59-.92A3.53,3.53,0,0,1,194.51,83.26Z"/><path class="cls-5" d="M189.57,80.43c0,1-.71,1.43-1.59.92a3.52,3.52,0,0,1-1.59-2.76c0-1,.71-1.42,1.59-.92A3.52,3.52,0,0,1,189.57,80.43Z"/><path class="cls-3" d="M194.51,89.22c0,1-.71,1.43-1.59.92a3.52,3.52,0,0,1-1.59-2.76c0-1,.71-1.42,1.59-.92A3.53,3.53,0,0,1,194.51,89.22Z"/><path class="cls-3" d="M189.57,86.39c0,1-.71,1.43-1.59.92a3.52,3.52,0,0,1-1.59-2.76c0-1,.71-1.43,1.59-.92A3.52,3.52,0,0,1,189.57,86.39Z"/><path class="cls-3" d="M194.51,103.75c0,1-.71,1.42-1.59.92a3.53,3.53,0,0,1-1.59-2.76c0-1,.71-1.43,1.59-.92A3.52,3.52,0,0,1,194.51,103.75Z"/><path class="cls-3" d="M189.57,100.91c0,1-.71,1.43-1.59.92a3.5,3.5,0,0,1-1.59-2.75c0-1,.71-1.43,1.59-.92A3.5,3.5,0,0,1,189.57,100.91Z"/><path class="cls-5" d="M194.51,109.71c0,1-.71,1.42-1.59.91a3.5,3.5,0,0,1-1.59-2.75c0-1,.71-1.43,1.59-.92A3.52,3.52,0,0,1,194.51,109.71Z"/><path class="cls-3" d="M189.57,106.87c0,1-.71,1.43-1.59.92a3.51,3.51,0,0,1-1.59-2.75c0-1,.71-1.43,1.59-.92A3.5,3.5,0,0,1,189.57,106.87Z"/><path class="cls-3" d="M194.51,124.26c0,1-.71,1.42-1.59.91a3.5,3.5,0,0,1-1.59-2.75c0-1,.71-1.43,1.59-.92A3.52,3.52,0,0,1,194.51,124.26Z"/><path class="cls-5" d="M189.57,121.42c0,1-.71,1.43-1.59.92a3.51,3.51,0,0,1-1.59-2.75c0-1,.71-1.43,1.59-.92A3.5,3.5,0,0,1,189.57,121.42Z"/><path class="cls-3" d="M194.51,130.21c0,1-.71,1.43-1.59.92a3.5,3.5,0,0,1-1.59-2.75c0-1,.71-1.43,1.59-.92A3.51,3.51,0,0,1,194.51,130.21Z"/><path class="cls-5" d="M189.57,127.38c0,1-.71,1.43-1.59.92a3.52,3.52,0,0,1-1.59-2.76c0-1,.71-1.42,1.59-.91A3.5,3.5,0,0,1,189.57,127.38Z"/><path class="cls-5" d="M194.51,145c0,1-.71,1.42-1.59.91a3.5,3.5,0,0,1-1.59-2.75c0-1,.71-1.43,1.59-.92A3.52,3.52,0,0,1,194.51,145Z"/><path class="cls-3" d="M189.57,142.13c0,1-.71,1.43-1.59.92a3.51,3.51,0,0,1-1.59-2.75c0-1,.71-1.43,1.59-.92A3.5,3.5,0,0,1,189.57,142.13Z"/><path class="cls-3" d="M194.51,150.92c0,1-.71,1.43-1.59.92a3.5,3.5,0,0,1-1.59-2.75c0-1,.71-1.43,1.59-.92A3.5,3.5,0,0,1,194.51,150.92Z"/><path class="cls-5" d="M189.57,148.09c0,1-.71,1.43-1.59.92a3.52,3.52,0,0,1-1.59-2.76c0-1,.71-1.42,1.59-.91A3.5,3.5,0,0,1,189.57,148.09Z"/><path class="cls-5" d="M194.51,165.47c0,1-.71,1.43-1.59.92a3.5,3.5,0,0,1-1.59-2.75c0-1,.71-1.43,1.59-.92A3.51,3.51,0,0,1,194.51,165.47Z"/><path class="cls-3" d="M189.57,162.64c0,1-.71,1.43-1.59.92a3.52,3.52,0,0,1-1.59-2.76c0-1,.71-1.42,1.59-.91A3.5,3.5,0,0,1,189.57,162.64Z"/><path class="cls-5" d="M194.51,171.43c0,1-.71,1.43-1.59.92a3.51,3.51,0,0,1-1.59-2.75c0-1,.71-1.43,1.59-.92A3.5,3.5,0,0,1,194.51,171.43Z"/><path class="cls-3" d="M189.57,168.6c0,1-.71,1.43-1.59.92a3.52,3.52,0,0,1-1.59-2.76c0-1,.71-1.42,1.59-.92A3.53,3.53,0,0,1,189.57,168.6Z"/><path class="cls-3" d="M194.51,186.24c0,1-.71,1.43-1.59.92a3.52,3.52,0,0,1-1.59-2.76c0-1,.71-1.43,1.59-.92A3.52,3.52,0,0,1,194.51,186.24Z"/><path class="cls-5" d="M189.57,183.41c0,1-.71,1.42-1.59.92a3.53,3.53,0,0,1-1.59-2.76c0-1,.71-1.43,1.59-.92A3.52,3.52,0,0,1,189.57,183.41Z"/><path class="cls-3" d="M194.51,192.2c0,1-.71,1.42-1.59.92a3.52,3.52,0,0,1-1.59-2.76c0-1,.71-1.43,1.59-.92A3.52,3.52,0,0,1,194.51,192.2Z"/><path class="cls-3" d="M189.57,189.37c0,1-.71,1.42-1.59.92a3.53,3.53,0,0,1-1.59-2.76c0-1,.71-1.43,1.59-.92A3.52,3.52,0,0,1,189.57,189.37Z"/><path class="cls-1" d="M255.55,240.39l-29.87-17.24c-1.83-1.06-1.6-2.91.52-4.13L255,202.37a8,8,0,0,1,7.15-.3l29.87,17.24c1.83,1.06,1.6,2.91-.51,4.13L262.7,240.09A7.92,7.92,0,0,1,255.55,240.39Z"/><path class="cls-4" d="M302,206.18h0v-12.9l-28.94,0-10-5.77c-2.29-1.33-6.3-1.16-8.95.37l-9.33,5.39-29,0V206.5a2.61,2.61,0,0,0,1.54,2.4l37.4,21.59c2.3,1.33,6.31,1.16,9-.37l36.11-20.85C301.31,208.39,302,207.25,302,206.18Z"/><path class="cls-2" d="M258.87,186.6a10.24,10.24,0,0,0-4.8,1.26l-9.33,5.39-29,0V206.5a2.61,2.61,0,0,0,1.54,2.4l37.4,21.59a8,8,0,0,0,4.16.89Z"/><path class="cls-5" d="M219.05,193.23h-3.28V206.5a2.61,2.61,0,0,0,1.54,2.4l1.74,1Z"/><path class="cls-5" d="M255.29,230.77a10.16,10.16,0,0,0,7.16-.08V215.62h-7.16Z"/><path class="cls-3" d="M254.71,217.27l-37.4-21.59c-2.29-1.33-2-3.64.65-5.17l36.11-20.85c2.65-1.53,6.66-1.7,8.95-.37l37.4,21.59c2.3,1.32,2,3.64-.64,5.17L263.67,216.9C261,218.43,257,218.59,254.71,217.27Z"/><path class="cls-5" d="M255.38,213.38,224,195.29c-1.92-1.11-1.68-3,.54-4.33l30.26-17.48c2.23-1.28,5.59-1.42,7.51-.31l31.34,18.1c1.92,1.11,1.68,3-.54,4.33l-30.26,17.47A8.36,8.36,0,0,1,255.38,213.38Z"/><path class="cls-3" d="M288.2,209.59a3.31,3.31,0,0,1-1.51,2.61c-.83.48-1.51.09-1.51-.87a3.37,3.37,0,0,1,1.51-2.62C287.53,208.23,288.2,208.62,288.2,209.59Z"/><path class="cls-3" d="M293.06,206.78a3.33,3.33,0,0,1-1.51,2.62c-.83.48-1.51.09-1.51-.87a3.34,3.34,0,0,1,1.51-2.62C292.39,205.43,293.06,205.82,293.06,206.78Z"/><path class="cls-3" d="M297.92,204a3.32,3.32,0,0,1-1.51,2.62c-.83.48-1.51.09-1.51-.87a3.36,3.36,0,0,1,1.51-2.62C297.25,202.62,297.92,203,297.92,204Z"/><path class="cls-4" d="M302,185.56h0v-12.9l-28.94,0-10-5.77c-2.29-1.33-6.3-1.16-8.95.37l-9.33,5.38h-29v13.27a2.61,2.61,0,0,0,1.54,2.4l37.4,21.59c2.3,1.33,6.31,1.16,9-.37l36.11-20.85C301.31,187.77,302,186.62,302,185.56Z"/><path class="cls-2" d="M258.87,166a10.24,10.24,0,0,0-4.8,1.26l-9.33,5.38h-29v13.27a2.61,2.61,0,0,0,1.54,2.4l37.4,21.59a8,8,0,0,0,4.16.89Z"/><path class="cls-5" d="M219.05,172.61h-3.28v13.27a2.61,2.61,0,0,0,1.54,2.4l1.74,1Z"/><path class="cls-5" d="M255.29,210.15a10.21,10.21,0,0,0,7.16-.08V195h-7.16Z"/><path class="cls-3" d="M254.71,196.65l-37.4-21.6c-2.29-1.32-2-3.64.65-5.17L254.07,149c2.65-1.53,6.66-1.7,8.95-.38l37.4,21.6c2.3,1.32,2,3.64-.64,5.17l-36.11,20.85C261,197.81,257,198,254.71,196.65Z"/><path class="cls-5" d="M255.38,192.76,224,174.67c-1.92-1.11-1.68-3,.54-4.34l30.26-17.47c2.23-1.28,5.59-1.42,7.51-.31l31.34,18.1c1.92,1.11,1.68,3-.54,4.33l-30.26,17.47A8.36,8.36,0,0,1,255.38,192.76Z"/><path class="cls-3" d="M288.2,189a3.31,3.31,0,0,1-1.51,2.61c-.83.48-1.51.09-1.51-.87a3.36,3.36,0,0,1,1.51-2.62C287.53,187.61,288.2,188,288.2,189Z"/><path class="cls-3" d="M293.06,186.16a3.35,3.35,0,0,1-1.51,2.62c-.83.48-1.51.09-1.51-.88a3.34,3.34,0,0,1,1.51-2.61C292.39,184.81,293.06,185.2,293.06,186.16Z"/><path class="cls-3" d="M297.92,183.35a3.32,3.32,0,0,1-1.51,2.62c-.83.48-1.51.09-1.51-.87a3.34,3.34,0,0,1,1.51-2.62C297.25,182,297.92,182.39,297.92,183.35Z"/><path class="cls-4" d="M302,164.94h0V152H273l-10-5.78c-2.29-1.32-6.3-1.16-8.95.37L244.74,152h-29v13.27a2.62,2.62,0,0,0,1.54,2.4l37.4,21.59c2.3,1.32,6.31,1.16,9-.37L299.78,168C301.31,167.15,302,166,302,164.94Z"/><path class="cls-2" d="M258.87,145.36a10.35,10.35,0,0,0-4.8,1.25L244.74,152h-29v13.27a2.62,2.62,0,0,0,1.54,2.4l37.4,21.59a8.15,8.15,0,0,0,4.16.89Z"/><path class="cls-5" d="M219.05,152h-3.28v13.27a2.62,2.62,0,0,0,1.54,2.4l1.74,1Z"/><path class="cls-5" d="M255.29,189.53a10.21,10.21,0,0,0,7.16-.08V174.38h-7.16Z"/><path class="cls-3" d="M254.71,176l-37.4-21.6c-2.29-1.32-2-3.64.65-5.17l36.11-20.85c2.65-1.53,6.66-1.69,8.95-.37l37.4,21.59c2.3,1.33,2,3.64-.64,5.18l-36.11,20.84C261,177.18,257,177.35,254.71,176Z"/><path class="cls-5" d="M255.38,172.14,224,154c-1.92-1.11-1.68-3,.54-4.33l30.26-17.47c2.23-1.28,5.59-1.42,7.51-.31L293.69,150c1.92,1.11,1.68,3-.54,4.34l-30.26,17.47A8.36,8.36,0,0,1,255.38,172.14Z"/><path class="cls-3" d="M288.2,168.34a3.32,3.32,0,0,1-1.51,2.62c-.83.48-1.51.09-1.51-.87a3.34,3.34,0,0,1,1.51-2.62C287.53,167,288.2,167.38,288.2,168.34Z"/><path class="cls-3" d="M293.06,165.54a3.31,3.31,0,0,1-1.51,2.61c-.83.49-1.51.1-1.51-.87a3.34,3.34,0,0,1,1.51-2.61C292.39,164.18,293.06,164.57,293.06,165.54Z"/><path class="cls-3" d="M297.92,162.73a3.33,3.33,0,0,1-1.51,2.62c-.83.48-1.51.09-1.51-.87a3.34,3.34,0,0,1,1.51-2.62C297.25,161.38,297.92,161.77,297.92,162.73Z"/><path class="cls-4" d="M302,144.32h0V131.41H273l-10-5.78c-2.29-1.32-6.3-1.16-8.95.37l-9.33,5.39-29,0v13.28a2.6,2.6,0,0,0,1.54,2.39l37.4,21.6c2.3,1.32,6.31,1.16,9-.37l36.11-20.85C301.31,146.52,302,145.38,302,144.32Z"/><path class="cls-2" d="M258.87,124.73a10.36,10.36,0,0,0-4.8,1.26l-9.33,5.39-29,0v13.28a2.6,2.6,0,0,0,1.54,2.39l37.4,21.6a8.15,8.15,0,0,0,4.16.88Z"/><path class="cls-5" d="M219.05,131.37h-3.28v13.28a2.6,2.6,0,0,0,1.54,2.39l1.74,1Z"/><path class="cls-5" d="M255.29,168.91a10.21,10.21,0,0,0,7.16-.08V153.76h-7.16Z"/><path class="cls-3" d="M254.71,155.4l-37.4-21.59c-2.29-1.32-2-3.64.65-5.17l36.11-20.85c2.65-1.53,6.66-1.69,8.95-.37L300.42,129c2.3,1.33,2,3.64-.64,5.17L263.67,155C261,156.56,257,156.73,254.71,155.4Z"/><path class="cls-5" d="M255.38,151.52,224,133.42c-1.92-1.11-1.68-3,.54-4.33l30.26-17.47c2.23-1.28,5.59-1.42,7.51-.31l31.34,18.09c1.92,1.11,1.68,3-.54,4.33l-30.26,17.48A8.36,8.36,0,0,1,255.38,151.52Z"/><path class="cls-3" d="M288.2,147.72a3.32,3.32,0,0,1-1.51,2.62c-.83.48-1.51.09-1.51-.87a3.34,3.34,0,0,1,1.51-2.62C287.53,146.37,288.2,146.76,288.2,147.72Z"/><path class="cls-3" d="M293.06,144.92a3.31,3.31,0,0,1-1.51,2.61c-.83.48-1.51.09-1.51-.87a3.37,3.37,0,0,1,1.51-2.62C292.39,143.56,293.06,144,293.06,144.92Z"/><path class="cls-3" d="M297.92,142.11a3.35,3.35,0,0,1-1.51,2.62c-.83.48-1.51.09-1.51-.88a3.34,3.34,0,0,1,1.51-2.61C297.25,140.76,297.92,141.15,297.92,142.11Z"/><path class="cls-4" d="M302,123.69h0v-12.9l-28.94,0L263,105c-2.29-1.33-6.3-1.16-8.95.37l-9.33,5.39-29,0V124a2.6,2.6,0,0,0,1.54,2.4l37.4,21.6c2.3,1.32,6.31,1.15,9-.38l36.11-20.84C301.31,125.9,302,124.76,302,123.69Z"/><path class="cls-2" d="M258.87,104.11a10.36,10.36,0,0,0-4.8,1.26l-9.33,5.39-29,0V124a2.6,2.6,0,0,0,1.54,2.4l37.4,21.6a8.15,8.15,0,0,0,4.16.88Z"/><path class="cls-5" d="M219.05,110.74h-3.28V124a2.6,2.6,0,0,0,1.54,2.4l1.74,1Z"/><path class="cls-5" d="M255.29,148.29a10.21,10.21,0,0,0,7.16-.08V133.14h-7.16Z"/><path class="cls-3" d="M254.71,134.78l-37.4-21.59c-2.29-1.33-2-3.64.65-5.17l36.11-20.85c2.65-1.53,6.66-1.7,8.95-.37l37.4,21.59c2.3,1.33,2,3.64-.64,5.17l-36.11,20.85C261,135.94,257,136.11,254.71,134.78Z"/><path class="cls-5" d="M255.38,130.9,224,112.8c-1.92-1.11-1.68-3,.54-4.33L254.84,91a8.33,8.33,0,0,1,7.51-.31l31.34,18.09c1.92,1.11,1.68,3-.54,4.33l-30.26,17.47A8.33,8.33,0,0,1,255.38,130.9Z"/><rect class="cls-7" x="270.65" y="132.16" width="17.32" height="0.61" transform="matrix(0.87, -0.5, 0.5, 0.87, -28.8, 157.52)"/><path class="cls-3" d="M288.2,127.1a3.35,3.35,0,0,1-1.51,2.62c-.83.48-1.51.09-1.51-.88a3.34,3.34,0,0,1,1.51-2.61C287.53,125.75,288.2,126.14,288.2,127.1Z"/><path class="cls-3" d="M293.06,124.29a3.32,3.32,0,0,1-1.51,2.62c-.83.48-1.51.09-1.51-.87a3.36,3.36,0,0,1,1.51-2.62C292.39,122.94,293.06,123.33,293.06,124.29Z"/><path class="cls-3" d="M297.92,121.49a3.31,3.31,0,0,1-1.51,2.61c-.83.49-1.51.1-1.51-.87a3.34,3.34,0,0,1,1.51-2.61C297.25,120.13,297.92,120.52,297.92,121.49Z"/><path class="cls-4" d="M302,102.93h0V90L273,90l-10-5.77c-2.29-1.33-6.3-1.16-8.95.37L244.74,90l-29,0v13.27a2.61,2.61,0,0,0,1.54,2.4l37.4,21.59c2.3,1.33,6.31,1.16,9-.37L299.78,106C301.31,105.14,302,104,302,102.93Z"/><path class="cls-2" d="M258.87,83.35a10.24,10.24,0,0,0-4.8,1.26L244.74,90l-29,0v13.27a2.61,2.61,0,0,0,1.54,2.4l37.4,21.59a8,8,0,0,0,4.16.89Z"/><path class="cls-5" d="M219.05,90h-3.28v13.27a2.61,2.61,0,0,0,1.54,2.4l1.74,1Z"/><path class="cls-5" d="M255.29,127.52a10.16,10.16,0,0,0,7.16-.08V112.37h-7.16Z"/><path class="cls-3" d="M254.71,114l-37.4-21.59c-2.29-1.33-2-3.64.65-5.17l36.11-20.85c2.65-1.53,6.66-1.7,8.95-.37l37.4,21.59c2.3,1.32,2,3.64-.64,5.17l-36.11,20.85C261,115.18,257,115.34,254.71,114Z"/><path class="cls-7" d="M299.78,90.26l-36.11,20.85c-2.65,1.53-6.66,1.7-9,.37l-37.4-21.59a3.38,3.38,0,0,1-1.14-1c-.79,1.27-.43,2.65,1.14,3.56L254.71,114c2.3,1.32,6.31,1.16,9-.37L299.78,92.8c2.06-1.19,2.68-2.85,1.79-4.16A5,5,0,0,1,299.78,90.26Z"/><path class="cls-3" d="M288.2,106.34a3.31,3.31,0,0,1-1.51,2.61c-.83.49-1.51.09-1.51-.87a3.34,3.34,0,0,1,1.51-2.61C287.53,105,288.2,105.37,288.2,106.34Z"/><path class="cls-3" d="M273.32,114.52a3.37,3.37,0,0,1-1.51,2.62c-.84.48-1.51.09-1.51-.88a3.31,3.31,0,0,1,1.51-2.61C272.64,113.17,273.32,113.56,273.32,114.52Z"/><path class="cls-7" d="M273.32,135.92a3.34,3.34,0,0,1-1.51,2.61c-.84.49-1.51.09-1.51-.87a3.31,3.31,0,0,1,1.51-2.61C272.64,134.56,273.32,135,273.32,135.92Z"/><path class="cls-3" d="M293.06,103.53a3.33,3.33,0,0,1-1.51,2.62c-.83.48-1.51.09-1.51-.87a3.34,3.34,0,0,1,1.51-2.62C292.39,102.18,293.06,102.57,293.06,103.53Z"/><path class="cls-3" d="M297.92,100.73a3.31,3.31,0,0,1-1.51,2.61c-.83.48-1.51.09-1.51-.87a3.37,3.37,0,0,1,1.51-2.62C297.25,99.37,297.92,99.76,297.92,100.73Z"/><path class="cls-2" d="M256.92,100.63l-17.5-10.1c-1.07-.62-.94-1.71.3-2.42l16.9-9.76a4.68,4.68,0,0,1,4.19-.17l17.5,10.1c1.08.62.94,1.71-.3,2.42l-16.9,9.76A4.67,4.67,0,0,1,256.92,100.63Z"/><path class="cls-3" d="M258.6,92.17l-2.42-1.4c-.15-.08-.13-.23,0-.33l2.34-1.35a.63.63,0,0,1,.58,0l2.42,1.39c.15.09.13.24,0,.34l-2.34,1.35A.63.63,0,0,1,258.6,92.17Z"/><path class="cls-4" d="M239.42,90.53l.05,0,.25-.18,16.9-9.75a4.65,4.65,0,0,1,4.19-.18l17.45,10.08c1-.71,1-1.67.05-2.25l-17.5-10.1a4.68,4.68,0,0,0-4.19.17l-16.9,9.76C238.48,88.82,238.35,89.91,239.42,90.53Z"/><path class="cls-3" d="M253.26,117.08c0,1-.71,1.43-1.59.92a3.52,3.52,0,0,1-1.59-2.76c0-1,.71-1.42,1.59-.92A3.52,3.52,0,0,1,253.26,117.08Z"/><path class="cls-5" d="M248.32,114.25c0,1-.71,1.42-1.59.92a3.53,3.53,0,0,1-1.59-2.76c0-1,.71-1.43,1.59-.92A3.52,3.52,0,0,1,248.32,114.25Z"/><path class="cls-3" d="M253.26,123c0,1-.71,1.43-1.59.92a3.52,3.52,0,0,1-1.59-2.76c0-1,.71-1.43,1.59-.92A3.52,3.52,0,0,1,253.26,123Z"/><path class="cls-3" d="M248.32,120.21c0,1-.71,1.42-1.59.92a3.53,3.53,0,0,1-1.59-2.76c0-1,.71-1.43,1.59-.92A3.52,3.52,0,0,1,248.32,120.21Z"/><path class="cls-3" d="M253.26,137.56c0,1-.71,1.43-1.59.92a3.5,3.5,0,0,1-1.59-2.75c0-1,.71-1.43,1.59-.92A3.5,3.5,0,0,1,253.26,137.56Z"/><path class="cls-3" d="M248.32,134.73c0,1-.71,1.43-1.59.92a3.52,3.52,0,0,1-1.59-2.76c0-1,.71-1.42,1.59-.91A3.5,3.5,0,0,1,248.32,134.73Z"/><path class="cls-5" d="M253.26,143.52c0,1-.71,1.43-1.59.92a3.51,3.51,0,0,1-1.59-2.75c0-1,.71-1.43,1.59-.92A3.5,3.5,0,0,1,253.26,143.52Z"/><path class="cls-3" d="M248.32,140.69c0,1-.71,1.43-1.59.92a3.52,3.52,0,0,1-1.59-2.76c0-1,.71-1.42,1.59-.92A3.53,3.53,0,0,1,248.32,140.69Z"/><path class="cls-3" d="M253.26,158.07c0,1-.71,1.43-1.59.92a3.51,3.51,0,0,1-1.59-2.75c0-1,.71-1.43,1.59-.92A3.5,3.5,0,0,1,253.26,158.07Z"/><path class="cls-5" d="M248.32,155.24c0,1-.71,1.43-1.59.92a3.52,3.52,0,0,1-1.59-2.76c0-1,.71-1.42,1.59-.92A3.53,3.53,0,0,1,248.32,155.24Z"/><path class="cls-3" d="M253.26,164c0,1-.71,1.43-1.59.92a3.52,3.52,0,0,1-1.59-2.76c0-1,.71-1.42,1.59-.91A3.5,3.5,0,0,1,253.26,164Z"/><path class="cls-5" d="M248.32,161.2c0,1-.71,1.43-1.59.92a3.52,3.52,0,0,1-1.59-2.76c0-1,.71-1.42,1.59-.92A3.53,3.53,0,0,1,248.32,161.2Z"/><path class="cls-5" d="M253.26,178.78c0,1-.71,1.43-1.59.92a3.51,3.51,0,0,1-1.59-2.75c0-1,.71-1.43,1.59-.92A3.5,3.5,0,0,1,253.26,178.78Z"/><path class="cls-3" d="M248.32,176c0,1-.71,1.43-1.59.92a3.52,3.52,0,0,1-1.59-2.76c0-1,.71-1.42,1.59-.92A3.53,3.53,0,0,1,248.32,176Z"/><path class="cls-3" d="M253.26,184.74c0,1-.71,1.43-1.59.92a3.52,3.52,0,0,1-1.59-2.76c0-1,.71-1.42,1.59-.91A3.5,3.5,0,0,1,253.26,184.74Z"/><path class="cls-5" d="M248.32,181.91c0,1-.71,1.43-1.59.92a3.52,3.52,0,0,1-1.59-2.76c0-1,.71-1.42,1.59-.92A3.52,3.52,0,0,1,248.32,181.91Z"/><path class="cls-5" d="M253.26,199.29c0,1-.71,1.43-1.59.92a3.52,3.52,0,0,1-1.59-2.76c0-1,.71-1.42,1.59-.91A3.5,3.5,0,0,1,253.26,199.29Z"/><path class="cls-3" d="M248.32,196.46c0,1-.71,1.43-1.59.92a3.52,3.52,0,0,1-1.59-2.76c0-1,.71-1.42,1.59-.92A3.53,3.53,0,0,1,248.32,196.46Z"/><path class="cls-5" d="M253.26,205.25c0,1-.71,1.43-1.59.92a3.52,3.52,0,0,1-1.59-2.76c0-1,.71-1.42,1.59-.92A3.53,3.53,0,0,1,253.26,205.25Z"/><path class="cls-3" d="M248.32,202.42c0,1-.71,1.43-1.59.92a3.52,3.52,0,0,1-1.59-2.76c0-1,.71-1.43,1.59-.92A3.52,3.52,0,0,1,248.32,202.42Z"/><path class="cls-3" d="M253.26,220.06c0,1-.71,1.42-1.59.92a3.53,3.53,0,0,1-1.59-2.76c0-1,.71-1.43,1.59-.92A3.52,3.52,0,0,1,253.26,220.06Z"/><path class="cls-5" d="M248.32,217.22c0,1-.71,1.43-1.59.92a3.5,3.5,0,0,1-1.59-2.75c0-1,.71-1.43,1.59-.92A3.51,3.51,0,0,1,248.32,217.22Z"/><path class="cls-3" d="M253.26,226c0,1-.71,1.42-1.59.92a3.53,3.53,0,0,1-1.59-2.76c0-1,.71-1.43,1.59-.92A3.52,3.52,0,0,1,253.26,226Z"/><path class="cls-3" d="M248.32,223.18c0,1-.71,1.43-1.59.92a3.5,3.5,0,0,1-1.59-2.75c0-1,.71-1.43,1.59-.92A3.5,3.5,0,0,1,248.32,223.18Z"/><path class="cls-1" d="M138,240.48l-29.86-17.24c-1.84-1.06-1.61-2.91.51-4.13l28.84-16.65a7.94,7.94,0,0,1,7.15-.29l29.87,17.24c1.83,1.06,1.6,2.91-.52,4.13l-28.84,16.65A7.94,7.94,0,0,1,138,240.48Z"/><path class="cls-4" d="M184.45,206.28h0V193.37l-28.93,0-10-5.77c-2.3-1.32-6.31-1.16-9,.37l-9.33,5.39-29,0v13.27a2.57,2.57,0,0,0,1.54,2.4l37.4,21.6c2.29,1.32,6.3,1.15,8.95-.38l36.11-20.84C183.8,208.48,184.54,207.34,184.45,206.28Z"/><path class="cls-2" d="M141.36,186.69a10.39,10.39,0,0,0-4.8,1.26l-9.33,5.39-29,0v13.27a2.57,2.57,0,0,0,1.54,2.4l37.4,21.6a8.13,8.13,0,0,0,4.15.88Z"/><path class="cls-5" d="M101.55,193.32H98.27v13.27a2.57,2.57,0,0,0,1.54,2.4l1.74,1Z"/><path class="cls-5" d="M137.78,230.87a10.21,10.21,0,0,0,7.16-.08V215.72h-7.16Z"/><path class="cls-3" d="M137.21,217.36l-37.4-21.59c-2.3-1.33-2-3.64.64-5.17l36.11-20.85c2.65-1.53,6.66-1.7,9-.37L182.92,191c2.29,1.33,2,3.64-.65,5.17L146.16,217C143.51,218.52,139.5,218.69,137.21,217.36Z"/><path class="cls-5" d="M137.88,213.48l-31.34-18.1c-1.93-1.11-1.68-3,.54-4.33l30.26-17.47a8.31,8.31,0,0,1,7.5-.31l31.34,18.09c1.93,1.11,1.69,3-.53,4.33l-30.27,17.47C143.16,214.45,139.8,214.59,137.88,213.48Z"/><path class="cls-3" d="M170.7,209.68a3.36,3.36,0,0,1-1.51,2.62c-.84.48-1.51.09-1.51-.88a3.31,3.31,0,0,1,1.51-2.61C170,208.33,170.7,208.72,170.7,209.68Z"/><path class="cls-3" d="M175.56,206.87a3.34,3.34,0,0,1-1.51,2.62c-.84.48-1.51.09-1.51-.87a3.33,3.33,0,0,1,1.51-2.62C174.88,205.52,175.56,205.91,175.56,206.87Z"/><path class="cls-3" d="M180.42,204.07a3.34,3.34,0,0,1-1.51,2.61c-.84.49-1.51.1-1.51-.87a3.31,3.31,0,0,1,1.51-2.61C179.74,202.71,180.42,203.11,180.42,204.07Z"/><path class="cls-4" d="M184.45,185.65h0v-12.9l-28.93,0-10-5.77c-2.3-1.33-6.31-1.16-9,.37l-9.33,5.39-29,0V186a2.57,2.57,0,0,0,1.54,2.4L137.21,210c2.29,1.33,6.3,1.16,8.95-.37l36.11-20.85C183.8,187.86,184.54,186.72,184.45,185.65Z"/><path class="cls-2" d="M141.36,166.07a10.27,10.27,0,0,0-4.8,1.26l-9.33,5.39-29,0V186a2.57,2.57,0,0,0,1.54,2.4L137.21,210a8,8,0,0,0,4.15.89Z"/><path class="cls-5" d="M101.55,172.7H98.27V186a2.57,2.57,0,0,0,1.54,2.4l1.74,1Z"/><path class="cls-5" d="M137.78,210.25a10.21,10.21,0,0,0,7.16-.09V195.1h-7.16Z"/><path class="cls-3" d="M137.21,196.74l-37.4-21.59c-2.3-1.33-2-3.64.64-5.17l36.11-20.85c2.65-1.53,6.66-1.7,9-.37l37.4,21.59c2.29,1.33,2,3.64-.65,5.17l-36.11,20.85C143.51,197.9,139.5,198.07,137.21,196.74Z"/><path class="cls-5" d="M137.88,192.85l-31.34-18.09c-1.93-1.11-1.68-3,.54-4.33L137.34,153c2.22-1.29,5.58-1.43,7.5-.32l31.34,18.1c1.93,1.11,1.69,3-.53,4.33l-30.27,17.47A8.31,8.31,0,0,1,137.88,192.85Z"/><path class="cls-3" d="M170.7,189.06a3.37,3.37,0,0,1-1.51,2.62c-.84.48-1.51.09-1.51-.88a3.31,3.31,0,0,1,1.51-2.61C170,187.71,170.7,188.1,170.7,189.06Z"/><path class="cls-3" d="M175.56,186.25a3.34,3.34,0,0,1-1.51,2.62c-.84.48-1.51.09-1.51-.87a3.32,3.32,0,0,1,1.51-2.62C174.88,184.9,175.56,185.29,175.56,186.25Z"/><path class="cls-3" d="M180.42,183.45a3.34,3.34,0,0,1-1.51,2.61c-.84.48-1.51.09-1.51-.87a3.35,3.35,0,0,1,1.51-2.62C179.74,182.09,180.42,182.48,180.42,183.45Z"/><path class="cls-4" d="M184.45,165h0v-12.9l-28.93,0-10-5.77c-2.3-1.33-6.31-1.16-9,.37l-9.33,5.39-29,0v13.27a2.58,2.58,0,0,0,1.54,2.4l37.4,21.59c2.29,1.33,6.3,1.16,8.95-.37l36.11-20.85C183.8,167.24,184.54,166.1,184.45,165Z"/><path class="cls-2" d="M141.36,145.45a10.27,10.27,0,0,0-4.8,1.26l-9.33,5.39-29,0v13.27a2.58,2.58,0,0,0,1.54,2.4l37.4,21.59a8,8,0,0,0,4.15.89Z"/><path class="cls-5" d="M101.55,152.08H98.27v13.27a2.58,2.58,0,0,0,1.54,2.4l1.74,1Z"/><path class="cls-5" d="M137.78,189.62a10.16,10.16,0,0,0,7.16-.08V174.47h-7.16Z"/><path class="cls-3" d="M137.21,176.12l-37.4-21.59c-2.3-1.33-2-3.64.64-5.17l36.11-20.85c2.65-1.53,6.66-1.7,9-.37l37.4,21.59c2.29,1.32,2,3.64-.65,5.17l-36.11,20.85C143.51,177.28,139.5,177.44,137.21,176.12Z"/><path class="cls-5" d="M137.88,172.23l-31.34-18.09c-1.93-1.11-1.68-3,.54-4.33l30.26-17.48c2.22-1.28,5.58-1.42,7.5-.31l31.34,18.1c1.93,1.11,1.69,3-.53,4.33l-30.27,17.47C143.16,173.2,139.8,173.34,137.88,172.23Z"/><path class="cls-3" d="M170.7,168.44a3.34,3.34,0,0,1-1.51,2.61c-.84.49-1.51.09-1.51-.87a3.31,3.31,0,0,1,1.51-2.61C170,167.08,170.7,167.47,170.7,168.44Z"/><path class="cls-3" d="M175.56,165.63a3.36,3.36,0,0,1-1.51,2.62c-.84.48-1.51.09-1.51-.87a3.32,3.32,0,0,1,1.51-2.62C174.88,164.28,175.56,164.67,175.56,165.63Z"/><path class="cls-3" d="M180.42,162.83a3.34,3.34,0,0,1-1.51,2.61c-.84.48-1.51.09-1.51-.87a3.33,3.33,0,0,1,1.51-2.62C179.74,161.47,180.42,161.86,180.42,162.83Z"/><path class="cls-4" d="M184.45,144.41h0v-12.9l-28.93,0-10-5.77c-2.3-1.33-6.31-1.16-9,.37l-9.33,5.38h-29v13.27a2.58,2.58,0,0,0,1.54,2.4l37.4,21.59c2.29,1.33,6.3,1.16,8.95-.37l36.11-20.85C183.8,146.62,184.54,145.47,184.45,144.41Z"/><path class="cls-2" d="M141.36,124.83a10.27,10.27,0,0,0-4.8,1.26l-9.33,5.38h-29v13.27a2.58,2.58,0,0,0,1.54,2.4l37.4,21.59a8,8,0,0,0,4.15.89Z"/><path class="cls-5" d="M101.55,131.46H98.27v13.27a2.58,2.58,0,0,0,1.54,2.4l1.74,1Z"/><path class="cls-5" d="M137.78,169a10.21,10.21,0,0,0,7.16-.08V153.85h-7.16Z"/><path class="cls-3" d="M137.21,155.5l-37.4-21.59c-2.3-1.33-2-3.64.64-5.17l36.11-20.85c2.65-1.53,6.66-1.7,9-.38l37.4,21.6c2.29,1.32,2,3.64-.65,5.17l-36.11,20.85C143.51,156.66,139.5,156.82,137.21,155.5Z"/><path class="cls-5" d="M137.88,151.61l-31.34-18.09c-1.93-1.11-1.68-3.05.54-4.34l30.26-17.47c2.22-1.28,5.58-1.42,7.5-.31l31.34,18.1c1.93,1.11,1.69,3.05-.53,4.33L145.38,151.3C143.16,152.58,139.8,152.72,137.88,151.61Z"/><path class="cls-3" d="M170.7,147.82a3.34,3.34,0,0,1-1.51,2.61c-.84.48-1.51.09-1.51-.87a3.35,3.35,0,0,1,1.51-2.62C170,146.46,170.7,146.85,170.7,147.82Z"/><path class="cls-3" d="M175.56,145a3.37,3.37,0,0,1-1.51,2.62c-.84.48-1.51.09-1.51-.88a3.31,3.31,0,0,1,1.51-2.61C174.88,143.66,175.56,144.05,175.56,145Z"/><path class="cls-3" d="M180.42,142.2a3.34,3.34,0,0,1-1.51,2.62c-.84.48-1.51.09-1.51-.87a3.32,3.32,0,0,1,1.51-2.62C179.74,140.85,180.42,141.24,180.42,142.2Z"/><path class="cls-4" d="M184.45,123.79h0V110.88H155.52l-10-5.78c-2.3-1.32-6.31-1.16-9,.38l-9.33,5.38h-29v13.27a2.59,2.59,0,0,0,1.54,2.4l37.4,21.59c2.29,1.32,6.3,1.16,8.95-.37l36.11-20.85C183.8,126,184.54,124.85,184.45,123.79Z"/><path class="cls-2" d="M141.36,104.21a10.27,10.27,0,0,0-4.8,1.26l-9.33,5.38h-29v13.27a2.59,2.59,0,0,0,1.54,2.4l37.4,21.59a8.13,8.13,0,0,0,4.15.89Z"/><path class="cls-5" d="M101.55,110.84H98.27v13.27a2.59,2.59,0,0,0,1.54,2.4l1.74,1Z"/><path class="cls-5" d="M137.78,148.38a10.21,10.21,0,0,0,7.16-.08V133.23h-7.16Z"/><path class="cls-3" d="M137.21,134.88l-37.4-21.6c-2.3-1.32-2-3.64.64-5.17l36.11-20.85c2.65-1.53,6.66-1.69,9-.37l37.4,21.6c2.29,1.32,2,3.64-.65,5.17L146.16,134.5C143.51,136,139.5,136.2,137.21,134.88Z"/><path class="cls-5" d="M137.88,131l-31.34-18.1c-1.93-1.11-1.68-3,.54-4.33l30.26-17.47c2.22-1.28,5.58-1.42,7.5-.31l31.34,18.09c1.93,1.11,1.69,3-.53,4.34l-30.27,17.47C143.16,132,139.8,132.1,137.88,131Z"/><rect class="cls-7" x="153.14" y="132.25" width="17.32" height="0.61" transform="translate(-44.61 98.72) rotate(-30.02)"/><path class="cls-3" d="M170.7,127.19a3.34,3.34,0,0,1-1.51,2.62c-.84.48-1.51.09-1.51-.87a3.32,3.32,0,0,1,1.51-2.62C170,125.84,170.7,126.23,170.7,127.19Z"/><path class="cls-3" d="M175.56,124.39a3.34,3.34,0,0,1-1.51,2.61c-.84.49-1.51.1-1.51-.87a3.31,3.31,0,0,1,1.51-2.61C174.88,123,175.56,123.42,175.56,124.39Z"/><path class="cls-3" d="M180.42,121.58a3.34,3.34,0,0,1-1.51,2.62c-.84.48-1.51.09-1.51-.87a3.32,3.32,0,0,1,1.51-2.62C179.74,120.23,180.42,120.62,180.42,121.58Z"/><path class="cls-4" d="M184.45,103h0V90.12H155.52l-10-5.78c-2.3-1.32-6.31-1.16-9,.37l-9.33,5.39-29,0v13.27a2.57,2.57,0,0,0,1.54,2.4l37.4,21.6c2.29,1.32,6.3,1.16,8.95-.37l36.11-20.85C183.8,105.23,184.54,104.09,184.45,103Z"/><path class="cls-2" d="M141.36,83.44a10.39,10.39,0,0,0-4.8,1.26l-9.33,5.39-29,0v13.27a2.57,2.57,0,0,0,1.54,2.4l37.4,21.6a8.13,8.13,0,0,0,4.15.88Z"/><path class="cls-5" d="M101.55,90.08H98.27v13.27a2.57,2.57,0,0,0,1.54,2.4l1.74,1Z"/><path class="cls-5" d="M137.78,127.62a10.21,10.21,0,0,0,7.16-.08V112.47h-7.16Z"/><path class="cls-3" d="M137.21,114.11,99.81,92.52c-2.3-1.32-2-3.64.64-5.17L136.56,66.5c2.65-1.53,6.66-1.69,9-.37l37.4,21.59c2.29,1.33,2,3.64-.65,5.17l-36.11,20.85C143.51,115.27,139.5,115.44,137.21,114.11Z"/><path class="cls-7" d="M182.27,90.35,146.16,111.2c-2.65,1.53-6.66,1.7-8.95.37L99.81,90a3.5,3.5,0,0,1-1.15-1c-.79,1.26-.43,2.64,1.15,3.55l37.4,21.59c2.29,1.33,6.3,1.16,8.95-.37l36.11-20.85c2.06-1.19,2.69-2.85,1.79-4.15A5,5,0,0,1,182.27,90.35Z"/><path class="cls-3" d="M170.7,106.43a3.36,3.36,0,0,1-1.51,2.62c-.84.48-1.51.09-1.51-.87a3.32,3.32,0,0,1,1.51-2.62C170,105.08,170.7,105.47,170.7,106.43Z"/><path class="cls-3" d="M155.81,114.61a3.32,3.32,0,0,1-1.51,2.62c-.83.48-1.51.09-1.51-.87a3.34,3.34,0,0,1,1.51-2.62C155.14,113.26,155.81,113.65,155.81,114.61Z"/><path class="cls-7" d="M155.81,136a3.33,3.33,0,0,1-1.51,2.62c-.83.48-1.51.09-1.51-.87a3.34,3.34,0,0,1,1.51-2.62C155.14,134.66,155.81,135.05,155.81,136Z"/><path class="cls-3" d="M175.56,103.63a3.34,3.34,0,0,1-1.51,2.61c-.84.48-1.51.09-1.51-.87a3.33,3.33,0,0,1,1.51-2.62C174.88,102.27,175.56,102.66,175.56,103.63Z"/><path class="cls-3" d="M180.42,100.82a3.37,3.37,0,0,1-1.51,2.62c-.84.48-1.51.09-1.51-.88a3.31,3.31,0,0,1,1.51-2.61C179.74,99.47,180.42,99.86,180.42,100.82Z"/><path class="cls-2" d="M139.42,100.73l-17.5-10.11c-1.08-.62-.94-1.7.3-2.42l16.9-9.75a4.65,4.65,0,0,1,4.19-.18l17.5,10.11c1.07.62.94,1.7-.3,2.42l-16.9,9.75A4.65,4.65,0,0,1,139.42,100.73Z"/><path class="cls-3" d="M141.09,92.27l-2.42-1.4c-.15-.09-.13-.24,0-.34l2.34-1.35a.63.63,0,0,1,.58,0l2.42,1.4c.15.08.13.23,0,.33l-2.34,1.35A.66.66,0,0,1,141.09,92.27Z"/><path class="cls-4" d="M121.92,90.62l0,0a1.56,1.56,0,0,1,.25-.17l16.9-9.76a4.67,4.67,0,0,1,4.19-.17l17.45,10.07c1-.71,1-1.67.05-2.24l-17.5-10.11a4.65,4.65,0,0,0-4.19.18l-16.9,9.75C121,88.92,120.84,90,121.92,90.62Z"/><path class="cls-3" d="M135.75,117.17c0,1-.71,1.43-1.59.92a3.51,3.51,0,0,1-1.59-2.75c0-1,.71-1.43,1.59-.92A3.5,3.5,0,0,1,135.75,117.17Z"/><path class="cls-5" d="M130.82,114.34c0,1-.72,1.43-1.59.92a3.53,3.53,0,0,1-1.6-2.76c0-1,.72-1.42,1.6-.92A3.56,3.56,0,0,1,130.82,114.34Z"/><path class="cls-3" d="M135.75,123.13c0,1-.71,1.43-1.59.92a3.52,3.52,0,0,1-1.59-2.76c0-1,.71-1.42,1.59-.91A3.5,3.5,0,0,1,135.75,123.13Z"/><path class="cls-3" d="M130.82,120.3c0,1-.72,1.43-1.59.92a3.53,3.53,0,0,1-1.6-2.76c0-1,.72-1.42,1.6-.92A3.56,3.56,0,0,1,130.82,120.3Z"/><path class="cls-3" d="M135.75,137.66c0,1-.71,1.42-1.59.92a3.52,3.52,0,0,1-1.59-2.76c0-1,.71-1.43,1.59-.92A3.52,3.52,0,0,1,135.75,137.66Z"/><path class="cls-9" d="M130.82,134.83c0,1-.72,1.42-1.59.91a3.51,3.51,0,0,1-1.6-2.75c0-1,.72-1.43,1.6-.92A3.54,3.54,0,0,1,130.82,134.83Z"/><path class="cls-5" d="M135.75,143.62c0,1-.71,1.42-1.59.92a3.53,3.53,0,0,1-1.59-2.76c0-1,.71-1.43,1.59-.92A3.52,3.52,0,0,1,135.75,143.62Z"/><path class="cls-3" d="M130.82,140.78c0,1-.72,1.43-1.59.92a3.51,3.51,0,0,1-1.6-2.75c0-1,.72-1.43,1.6-.92A3.54,3.54,0,0,1,130.82,140.78Z"/><path class="cls-3" d="M135.75,158.17c0,1-.71,1.42-1.59.92a3.53,3.53,0,0,1-1.59-2.76c0-1,.71-1.43,1.59-.92A3.52,3.52,0,0,1,135.75,158.17Z"/><path class="cls-5" d="M130.82,155.34c0,1-.72,1.42-1.59.91a3.51,3.51,0,0,1-1.6-2.75c0-1,.72-1.43,1.6-.92A3.54,3.54,0,0,1,130.82,155.34Z"/><path class="cls-9" d="M135.75,164.13c0,1-.71,1.42-1.59.92a3.53,3.53,0,0,1-1.59-2.76c0-1,.71-1.43,1.59-.92A3.52,3.52,0,0,1,135.75,164.13Z"/><path class="cls-5" d="M130.82,161.29c0,1-.72,1.43-1.59.92a3.51,3.51,0,0,1-1.6-2.75c0-1,.72-1.43,1.6-.92A3.52,3.52,0,0,1,130.82,161.29Z"/><path class="cls-5" d="M135.75,178.88c0,1-.71,1.42-1.59.92a3.53,3.53,0,0,1-1.59-2.76c0-1,.71-1.43,1.59-.92A3.52,3.52,0,0,1,135.75,178.88Z"/><path class="cls-3" d="M130.82,176c0,1-.72,1.43-1.59.92a3.51,3.51,0,0,1-1.6-2.75c0-1,.72-1.43,1.6-.92A3.54,3.54,0,0,1,130.82,176Z"/><path class="cls-3" d="M135.75,184.84c0,1-.71,1.42-1.59.91a3.5,3.5,0,0,1-1.59-2.75c0-1,.71-1.43,1.59-.92A3.52,3.52,0,0,1,135.75,184.84Z"/><path class="cls-5" d="M130.82,182c0,1-.72,1.43-1.59.92a3.51,3.51,0,0,1-1.6-2.75c0-1,.72-1.43,1.6-.92A3.52,3.52,0,0,1,130.82,182Z"/><path class="cls-9" d="M135.75,199.39c0,1-.71,1.42-1.59.91a3.5,3.5,0,0,1-1.59-2.75c0-1,.71-1.43,1.59-.92A3.52,3.52,0,0,1,135.75,199.39Z"/><path class="cls-9" d="M130.82,196.55c0,1-.72,1.43-1.59.92a3.51,3.51,0,0,1-1.6-2.75c0-1,.72-1.43,1.6-.92A3.52,3.52,0,0,1,130.82,196.55Z"/><path class="cls-9" d="M135.75,205.35c0,1-.71,1.42-1.59.91a3.5,3.5,0,0,1-1.59-2.75c0-1,.71-1.43,1.59-.92A3.52,3.52,0,0,1,135.75,205.35Z"/><path class="cls-3" d="M130.82,202.51c0,1-.72,1.43-1.59.92a3.53,3.53,0,0,1-1.6-2.76c0-1,.72-1.42,1.6-.91A3.52,3.52,0,0,1,130.82,202.51Z"/><path class="cls-3" d="M135.75,220.15c0,1-.71,1.43-1.59.92a3.52,3.52,0,0,1-1.59-2.76c0-1,.71-1.42,1.59-.92A3.53,3.53,0,0,1,135.75,220.15Z"/><path class="cls-5" d="M130.82,217.32c0,1-.72,1.43-1.59.92a3.53,3.53,0,0,1-1.6-2.76c0-1,.72-1.43,1.6-.92A3.54,3.54,0,0,1,130.82,217.32Z"/><path class="cls-3" d="M135.75,226.11c0,1-.71,1.43-1.59.92a3.52,3.52,0,0,1-1.59-2.76c0-1,.71-1.42,1.59-.92A3.52,3.52,0,0,1,135.75,226.11Z"/><path class="cls-3" d="M130.82,223.28c0,1-.72,1.42-1.59.92a3.54,3.54,0,0,1-1.6-2.76c0-1,.72-1.43,1.6-.92A3.54,3.54,0,0,1,130.82,223.28Z"/><path class="cls-5" d="M272.83,261.48a.83.83,0,0,1-.4-.11l-41.54-24.6a.77.77,0,0,1-.27-1.06.76.76,0,0,1,1.06-.27L273.22,260a.77.77,0,0,1,.28,1.06A.8.8,0,0,1,272.83,261.48Z"/><path class="cls-1" d="M196.79,274.3l-29.86-17.24c-1.84-1.06-1.61-2.91.51-4.13l28.84-16.65a8,8,0,0,1,7.15-.3l29.87,17.25c1.83,1.05,1.6,2.9-.52,4.13L203.94,274A7.94,7.94,0,0,1,196.79,274.3Z"/><path class="cls-4" d="M243.2,240.09h0v-12.9l-28.93,0-10-5.77c-2.3-1.33-6.31-1.16-9,.37L186,227.16l-29,0v13.27a2.58,2.58,0,0,0,1.54,2.4L196,264.4c2.29,1.33,6.3,1.16,8.95-.37L241,243.18C242.55,242.3,243.29,241.16,243.2,240.09Z"/><path class="cls-2" d="M200.11,220.51a10.27,10.27,0,0,0-4.8,1.26L186,227.16l-29,0v13.27a2.58,2.58,0,0,0,1.54,2.4L196,264.4a8,8,0,0,0,4.15.89Z"/><path class="cls-5" d="M160.3,227.14H157v13.27a2.58,2.58,0,0,0,1.54,2.4l1.74,1Z"/><path class="cls-5" d="M196.53,264.69a10.21,10.21,0,0,0,7.16-.09V249.54h-7.16Z"/><path class="cls-3" d="M196,251.18l-37.4-21.59c-2.3-1.33-2-3.64.64-5.17l36.11-20.85c2.65-1.53,6.66-1.7,9-.37l37.4,21.59c2.29,1.32,2,3.64-.65,5.17l-36.11,20.85C202.26,252.34,198.25,252.51,196,251.18Z"/><path class="cls-5" d="M196.63,247.29,165.29,229.2c-1.93-1.11-1.68-3,.54-4.33l30.26-17.48c2.22-1.28,5.58-1.42,7.5-.31l31.34,18.1c1.93,1.11,1.69,3-.53,4.33L204.13,247A8.31,8.31,0,0,1,196.63,247.29Z"/><path class="cls-3" d="M229.45,243.5a3.34,3.34,0,0,1-1.51,2.61c-.84.49-1.51.1-1.51-.87a3.31,3.31,0,0,1,1.51-2.61C228.77,242.14,229.45,242.54,229.45,243.5Z"/><path class="cls-3" d="M234.31,240.69a3.34,3.34,0,0,1-1.51,2.62c-.84.48-1.51.09-1.51-.87a3.32,3.32,0,0,1,1.51-2.62C233.63,239.34,234.31,239.73,234.31,240.69Z"/><path class="cls-3" d="M239.17,237.89a3.34,3.34,0,0,1-1.51,2.61c-.84.48-1.51.09-1.51-.87a3.35,3.35,0,0,1,1.51-2.62C238.49,236.53,239.17,236.92,239.17,237.89Z"/><path class="cls-4" d="M243.2,219.47h0v-12.9l-28.93,0-10-5.77c-2.3-1.33-6.31-1.16-9,.37L186,206.54l-29,0v13.27a2.58,2.58,0,0,0,1.54,2.4L196,243.78c2.29,1.33,6.3,1.16,8.95-.37L241,222.56C242.55,221.68,243.29,220.54,243.2,219.47Z"/><path class="cls-2" d="M200.11,199.89a10.27,10.27,0,0,0-4.8,1.26L186,206.54l-29,0v13.27a2.58,2.58,0,0,0,1.54,2.4L196,243.78a8,8,0,0,0,4.15.89Z"/><path class="cls-5" d="M160.3,206.52H157v13.27a2.58,2.58,0,0,0,1.54,2.4l1.74,1Z"/><path class="cls-5" d="M196.53,244.06a10.16,10.16,0,0,0,7.16-.08V228.91h-7.16Z"/><path class="cls-3" d="M196,230.56,158.56,209c-2.3-1.33-2-3.64.64-5.17L195.31,183c2.65-1.53,6.66-1.7,9-.37l37.4,21.59c2.29,1.32,2,3.64-.65,5.17l-36.11,20.85C202.26,231.72,198.25,231.88,196,230.56Z"/><path class="cls-5" d="M196.63,226.67l-31.34-18.09c-1.93-1.11-1.68-3.05.54-4.33l30.26-17.48c2.22-1.28,5.58-1.42,7.5-.31l31.34,18.1c1.93,1.11,1.69,3.05-.53,4.33l-30.27,17.47C201.91,227.64,198.55,227.78,196.63,226.67Z"/><path class="cls-3" d="M229.45,222.88a3.34,3.34,0,0,1-1.51,2.61c-.84.48-1.51.09-1.51-.87a3.35,3.35,0,0,1,1.51-2.62C228.77,221.52,229.45,221.91,229.45,222.88Z"/><path class="cls-3" d="M234.31,220.07a3.36,3.36,0,0,1-1.51,2.62c-.84.48-1.51.09-1.51-.87a3.32,3.32,0,0,1,1.51-2.62C233.63,218.72,234.31,219.11,234.31,220.07Z"/><path class="cls-3" d="M239.17,217.26a3.34,3.34,0,0,1-1.51,2.62c-.84.48-1.51.09-1.51-.87a3.33,3.33,0,0,1,1.51-2.62C238.49,215.91,239.17,216.3,239.17,217.26Z"/><path class="cls-4" d="M243.2,198.85h0V186l-28.93,0-10-5.77c-2.3-1.33-6.31-1.16-9,.37L186,185.91H157v13.27a2.58,2.58,0,0,0,1.54,2.4L196,223.16c2.29,1.33,6.3,1.16,8.95-.37L241,201.94C242.55,201.06,243.29,199.91,243.2,198.85Z"/><path class="cls-2" d="M200.11,179.27a10.27,10.27,0,0,0-4.8,1.26L186,185.91H157v13.27a2.58,2.58,0,0,0,1.54,2.4L196,223.16a8,8,0,0,0,4.15.89Z"/><path class="cls-5" d="M160.3,185.9H157v13.27a2.58,2.58,0,0,0,1.54,2.4l1.74,1Z"/><path class="cls-5" d="M196.53,223.44a10.21,10.21,0,0,0,7.16-.08V208.29h-7.16Z"/><path class="cls-3" d="M196,209.94l-37.4-21.6c-2.3-1.32-2-3.64.64-5.17l36.11-20.84c2.65-1.53,6.66-1.7,9-.38l37.4,21.6c2.29,1.32,2,3.64-.65,5.17l-36.11,20.85C202.26,211.1,198.25,211.26,196,209.94Z"/><path class="cls-5" d="M196.63,206.05,165.29,188c-1.93-1.11-1.68-3.05.54-4.34l30.26-17.47c2.22-1.28,5.58-1.42,7.5-.31l31.34,18.1c1.93,1.11,1.69,3.05-.53,4.33l-30.27,17.47C201.91,207,198.55,207.16,196.63,206.05Z"/><path class="cls-3" d="M229.45,202.26a3.34,3.34,0,0,1-1.51,2.61c-.84.48-1.51.09-1.51-.87a3.33,3.33,0,0,1,1.51-2.62C228.77,200.9,229.45,201.29,229.45,202.26Z"/><path class="cls-3" d="M234.31,199.45a3.37,3.37,0,0,1-1.51,2.62c-.84.48-1.51.09-1.51-.88a3.31,3.31,0,0,1,1.51-2.61C233.63,198.1,234.31,198.49,234.31,199.45Z"/><path class="cls-3" d="M239.17,196.64a3.34,3.34,0,0,1-1.51,2.62c-.84.48-1.51.09-1.51-.87a3.32,3.32,0,0,1,1.51-2.62C238.49,195.29,239.17,195.68,239.17,196.64Z"/><path class="cls-4" d="M243.2,178.23h0V165.32H214.27l-10-5.78c-2.3-1.32-6.31-1.16-9,.37L186,165.29H157v13.27a2.59,2.59,0,0,0,1.54,2.4L196,202.54c2.29,1.32,6.3,1.16,8.95-.37L241,181.32C242.55,180.44,243.29,179.29,243.2,178.23Z"/><path class="cls-2" d="M200.11,158.65a10.38,10.38,0,0,0-4.8,1.25L186,165.29H157v13.27a2.59,2.59,0,0,0,1.54,2.4L196,202.54a8.13,8.13,0,0,0,4.15.89Z"/><path class="cls-5" d="M160.3,165.28H157v13.27a2.59,2.59,0,0,0,1.54,2.4l1.74,1Z"/><path class="cls-5" d="M196.53,202.82a10.21,10.21,0,0,0,7.16-.08V187.67h-7.16Z"/><path class="cls-3" d="M196,189.32l-37.4-21.6c-2.3-1.32-2-3.64.64-5.17l36.11-20.85c2.65-1.53,6.66-1.69,9-.37l37.4,21.59c2.29,1.33,2,3.64-.65,5.18l-36.11,20.84C202.26,190.47,198.25,190.64,196,189.32Z"/><path class="cls-5" d="M196.63,185.43l-31.34-18.1c-1.93-1.11-1.68-3.05.54-4.33l30.26-17.47c2.22-1.28,5.58-1.42,7.5-.31l31.34,18.09c1.93,1.11,1.69,3.05-.53,4.34l-30.27,17.47C201.91,186.4,198.55,186.54,196.63,185.43Z"/><path class="cls-3" d="M229.45,181.63a3.34,3.34,0,0,1-1.51,2.62c-.84.48-1.51.09-1.51-.87a3.32,3.32,0,0,1,1.51-2.62C228.77,180.28,229.45,180.67,229.45,181.63Z"/><path class="cls-3" d="M234.31,178.83a3.34,3.34,0,0,1-1.51,2.61c-.84.49-1.51.1-1.51-.87A3.31,3.31,0,0,1,232.8,178C233.63,177.47,234.31,177.86,234.31,178.83Z"/><path class="cls-3" d="M239.17,176a3.36,3.36,0,0,1-1.51,2.62c-.84.48-1.51.09-1.51-.87a3.32,3.32,0,0,1,1.51-2.62C238.49,174.67,239.17,175.06,239.17,176Z"/><path class="cls-4" d="M243.2,157.61h0V144.7H214.27l-10-5.78c-2.3-1.32-6.31-1.16-9,.37L186,144.67l-29,0v13.28a2.57,2.57,0,0,0,1.54,2.39l37.4,21.6c2.29,1.32,6.3,1.16,8.95-.37L241,160.7C242.55,159.81,243.29,158.67,243.2,157.61Z"/><path class="cls-2" d="M200.11,138a10.39,10.39,0,0,0-4.8,1.26L186,144.67l-29,0v13.28a2.57,2.57,0,0,0,1.54,2.39l37.4,21.6a8.13,8.13,0,0,0,4.15.88Z"/><path class="cls-5" d="M160.3,144.66H157v13.28a2.57,2.57,0,0,0,1.54,2.39l1.74,1Z"/><path class="cls-5" d="M196.53,182.2a10.21,10.21,0,0,0,7.16-.08V167.05h-7.16Z"/><path class="cls-3" d="M196,168.69l-37.4-21.59c-2.3-1.32-2-3.64.64-5.17l36.11-20.85c2.65-1.53,6.66-1.69,9-.37l37.4,21.59c2.29,1.33,2,3.64-.65,5.17l-36.11,20.85C202.26,169.85,198.25,170,196,168.69Z"/><path class="cls-5" d="M196.63,164.81l-31.34-18.1c-1.93-1.11-1.68-3.05.54-4.33l30.26-17.47c2.22-1.28,5.58-1.42,7.5-.31l31.34,18.09c1.93,1.11,1.69,3.05-.53,4.33L204.13,164.5C201.91,165.78,198.55,165.92,196.63,164.81Z"/><rect class="cls-7" x="211.89" y="166.07" width="17.32" height="0.61" transform="translate(-53.65 132.65) rotate(-30.02)"/><path class="cls-3" d="M229.45,161a3.34,3.34,0,0,1-1.51,2.62c-.84.48-1.51.09-1.51-.87a3.32,3.32,0,0,1,1.51-2.62C228.77,159.66,229.45,160.05,229.45,161Z"/><path class="cls-3" d="M234.31,158.21a3.34,3.34,0,0,1-1.51,2.61c-.84.48-1.51.09-1.51-.87a3.35,3.35,0,0,1,1.51-2.62C233.63,156.85,234.31,157.24,234.31,158.21Z"/><path class="cls-3" d="M239.17,155.4a3.37,3.37,0,0,1-1.51,2.62c-.84.48-1.51.09-1.51-.88a3.31,3.31,0,0,1,1.51-2.61C238.49,154.05,239.17,154.44,239.17,155.4Z"/><path class="cls-4" d="M243.2,136.84h0v-12.9l-28.93,0-10-5.77c-2.3-1.33-6.31-1.16-9,.37L186,123.91l-29,0v13.27a2.57,2.57,0,0,0,1.54,2.4L196,161.15c2.29,1.33,6.3,1.16,8.95-.37L241,139.93C242.55,139.05,243.29,137.91,243.2,136.84Z"/><path class="cls-2" d="M200.11,117.26a10.39,10.39,0,0,0-4.8,1.26L186,123.91l-29,0v13.27a2.57,2.57,0,0,0,1.54,2.4L196,161.15a8,8,0,0,0,4.15.89Z"/><path class="cls-5" d="M160.3,123.89H157v13.27a2.57,2.57,0,0,0,1.54,2.4l1.74,1Z"/><path class="cls-5" d="M196.53,161.44a10.21,10.21,0,0,0,7.16-.09V146.29h-7.16Z"/><path class="cls-3" d="M196,147.93l-37.4-21.59c-2.3-1.33-2-3.64.64-5.17l36.11-20.85c2.65-1.53,6.66-1.7,9-.37l37.4,21.59c2.29,1.33,2,3.64-.65,5.17l-36.11,20.85C202.26,149.09,198.25,149.26,196,147.93Z"/><path class="cls-7" d="M241,124.17,204.91,145c-2.65,1.53-6.66,1.7-8.95.37l-37.4-21.59a3.52,3.52,0,0,1-1.15-1c-.79,1.27-.43,2.65,1.15,3.56L196,147.93c2.29,1.33,6.3,1.16,8.95-.37L241,126.71c2.06-1.19,2.69-2.85,1.79-4.15A5,5,0,0,1,241,124.17Z"/><path class="cls-3" d="M229.45,140.25a3.37,3.37,0,0,1-1.51,2.62c-.84.48-1.51.09-1.51-.88a3.31,3.31,0,0,1,1.51-2.61C228.77,138.9,229.45,139.29,229.45,140.25Z"/><path class="cls-3" d="M214.56,148.43a3.33,3.33,0,0,1-1.51,2.62c-.83.48-1.51.09-1.51-.88a3.34,3.34,0,0,1,1.51-2.61C213.89,147.08,214.56,147.47,214.56,148.43Z"/><path class="cls-7" d="M214.56,169.83a3.35,3.35,0,0,1-1.51,2.62c-.83.48-1.51.09-1.51-.88a3.34,3.34,0,0,1,1.51-2.61C213.89,168.48,214.56,168.87,214.56,169.83Z"/><path class="cls-3" d="M234.31,137.44a3.34,3.34,0,0,1-1.51,2.62c-.84.48-1.51.09-1.51-.87a3.32,3.32,0,0,1,1.51-2.62C233.63,136.09,234.31,136.48,234.31,137.44Z"/><path class="cls-3" d="M239.17,134.64a3.34,3.34,0,0,1-1.51,2.61c-.84.49-1.51.09-1.51-.87a3.31,3.31,0,0,1,1.51-2.61C238.49,133.28,239.17,133.67,239.17,134.64Z"/><path class="cls-2" d="M198.17,134.54l-17.5-10.1c-1.08-.62-.94-1.7.3-2.42l16.9-9.76a4.67,4.67,0,0,1,4.19-.17l17.5,10.1c1.07.62.94,1.71-.3,2.42l-16.9,9.76A4.64,4.64,0,0,1,198.17,134.54Z"/><path class="cls-3" d="M199.84,126.08l-2.42-1.39c-.15-.09-.13-.24,0-.34L199.8,123a.63.63,0,0,1,.58,0l2.42,1.4c.15.08.13.23,0,.33l-2.34,1.35A.63.63,0,0,1,199.84,126.08Z"/><path class="cls-4" d="M180.67,124.44l.05,0a1.56,1.56,0,0,1,.25-.17l16.9-9.76a4.64,4.64,0,0,1,4.19-.17l17.45,10.07c1-.71,1-1.67.05-2.25l-17.5-10.1a4.67,4.67,0,0,0-4.19.17L181,122C179.73,122.74,179.59,123.82,180.67,124.44Z"/><path class="cls-3" d="M194.5,151c0,1-.71,1.43-1.59.92a3.52,3.52,0,0,1-1.59-2.76c0-1,.71-1.42,1.59-.92A3.53,3.53,0,0,1,194.5,151Z"/><path class="cls-5" d="M189.57,148.16c0,1-.72,1.43-1.59.92a3.53,3.53,0,0,1-1.6-2.76c0-1,.72-1.43,1.6-.92A3.54,3.54,0,0,1,189.57,148.16Z"/><path class="cls-9" d="M194.5,157c0,1-.71,1.43-1.59.92a3.52,3.52,0,0,1-1.59-2.76c0-1,.71-1.42,1.59-.92A3.53,3.53,0,0,1,194.5,157Z"/><path class="cls-3" d="M189.57,154.12c0,1-.72,1.42-1.59.92a3.53,3.53,0,0,1-1.6-2.76c0-1,.72-1.43,1.6-.92A3.54,3.54,0,0,1,189.57,154.12Z"/><path class="cls-3" d="M194.5,171.48c0,1-.71,1.42-1.59.91a3.5,3.5,0,0,1-1.59-2.75c0-1,.71-1.43,1.59-.92A3.52,3.52,0,0,1,194.5,171.48Z"/><path class="cls-3" d="M189.57,168.64c0,1-.72,1.43-1.59.92a3.51,3.51,0,0,1-1.6-2.75c0-1,.72-1.43,1.6-.92A3.52,3.52,0,0,1,189.57,168.64Z"/><path class="cls-5" d="M194.5,177.43c0,1-.71,1.43-1.59.92a3.5,3.5,0,0,1-1.59-2.75c0-1,.71-1.43,1.59-.92A3.51,3.51,0,0,1,194.5,177.43Z"/><path class="cls-3" d="M189.57,174.6c0,1-.72,1.43-1.59.92a3.53,3.53,0,0,1-1.6-2.76c0-1,.72-1.42,1.6-.91A3.52,3.52,0,0,1,189.57,174.6Z"/><path class="cls-3" d="M194.5,192c0,1-.71,1.42-1.59.91a3.5,3.5,0,0,1-1.59-2.75c0-1,.71-1.43,1.59-.92A3.52,3.52,0,0,1,194.5,192Z"/><path class="cls-5" d="M189.57,189.15c0,1-.72,1.43-1.59.92a3.52,3.52,0,0,1-1.6-2.75c0-1,.72-1.43,1.6-.92A3.52,3.52,0,0,1,189.57,189.15Z"/><path class="cls-3" d="M194.5,197.94c0,1-.71,1.43-1.59.92a3.5,3.5,0,0,1-1.59-2.75c0-1,.71-1.43,1.59-.92A3.5,3.5,0,0,1,194.5,197.94Z"/><path class="cls-9" d="M189.57,195.11c0,1-.72,1.43-1.59.92a3.53,3.53,0,0,1-1.6-2.76c0-1,.72-1.42,1.6-.91A3.52,3.52,0,0,1,189.57,195.11Z"/><path class="cls-9" d="M194.5,212.69c0,1-.71,1.43-1.59.92a3.5,3.5,0,0,1-1.59-2.75c0-1,.71-1.43,1.59-.92A3.51,3.51,0,0,1,194.5,212.69Z"/><path class="cls-3" d="M189.57,209.86c0,1-.72,1.43-1.59.92a3.53,3.53,0,0,1-1.6-2.76c0-1,.72-1.42,1.6-.91A3.52,3.52,0,0,1,189.57,209.86Z"/><path class="cls-9" d="M194.5,218.65c0,1-.71,1.43-1.59.92a3.5,3.5,0,0,1-1.59-2.75c0-1,.71-1.43,1.59-.92A3.5,3.5,0,0,1,194.5,218.65Z"/><path class="cls-5" d="M189.57,215.82c0,1-.72,1.43-1.59.92a3.53,3.53,0,0,1-1.6-2.76c0-1,.72-1.42,1.6-.92A3.56,3.56,0,0,1,189.57,215.82Z"/><path class="cls-9" d="M194.5,233.2c0,1-.71,1.43-1.59.92a3.5,3.5,0,0,1-1.59-2.75c0-1,.71-1.43,1.59-.92A3.5,3.5,0,0,1,194.5,233.2Z"/><path class="cls-3" d="M189.57,230.37c0,1-.72,1.43-1.59.92a3.53,3.53,0,0,1-1.6-2.76c0-1,.72-1.42,1.6-.92A3.56,3.56,0,0,1,189.57,230.37Z"/><path class="cls-5" d="M194.5,239.16c0,1-.71,1.43-1.59.92a3.52,3.52,0,0,1-1.59-2.76c0-1,.71-1.42,1.59-.91A3.5,3.5,0,0,1,194.5,239.16Z"/><path class="cls-9" d="M189.57,236.33c0,1-.72,1.43-1.59.92a3.53,3.53,0,0,1-1.6-2.76c0-1,.72-1.42,1.6-.92A3.56,3.56,0,0,1,189.57,236.33Z"/><path class="cls-3" d="M194.5,254c0,1-.71,1.43-1.59.92a3.52,3.52,0,0,1-1.59-2.76c0-1,.71-1.43,1.59-.92A3.52,3.52,0,0,1,194.5,254Z"/><path class="cls-5" d="M189.57,251.14c0,1-.72,1.42-1.59.92a3.54,3.54,0,0,1-1.6-2.76c0-1,.72-1.43,1.6-.92A3.54,3.54,0,0,1,189.57,251.14Z"/><path class="cls-3" d="M194.5,259.93c0,1-.71,1.42-1.59.92a3.53,3.53,0,0,1-1.59-2.76c0-1,.71-1.43,1.59-.92A3.52,3.52,0,0,1,194.5,259.93Z"/><path class="cls-9" d="M189.57,257.1c0,1-.72,1.42-1.59.91a3.51,3.51,0,0,1-1.6-2.75c0-1,.72-1.43,1.6-.92A3.54,3.54,0,0,1,189.57,257.1Z"/><rect class="cls-5" x="374.44" y="158.23" width="5.81" height="12.54" transform="translate(743.32 -23.96) rotate(129.2)"/><path class="cls-5" d="M381.83,170.8a4.52,4.52,0,0,0,2.6-3.18c.21-1.29-.62-2-1.84-1.5a4.52,4.52,0,0,0-2.6,3.18C379.78,170.6,380.61,171.27,381.83,170.8Z"/><rect class="cls-5" x="364.51" y="151.46" width="9.42" height="12.81" transform="translate(724.92 -28.48) rotate(129.2)"/><path class="cls-4" d="M375.93,159.59l3.28,2.68a7.51,7.51,0,0,1-3.67,4.5l-3.29-2.68A7.53,7.53,0,0,1,375.93,159.59Z"/><path class="cls-5" d="M373.57,165.71a7.33,7.33,0,0,0,4.21-5.16c.34-2.09-1-3.18-3-2.43a7.4,7.4,0,0,0-4.21,5.16C370.25,165.38,371.59,166.47,373.57,165.71Z"/><path class="cls-5" d="M363.64,157.61a7.33,7.33,0,0,0,4.21-5.16c.34-2.09-1-3.18-3-2.43a7.37,7.37,0,0,0-4.21,5.16C360.32,157.28,361.66,158.37,363.64,157.61Z"/><path class="cls-3" d="M363.91,156a4.18,4.18,0,0,0,2.38-2.92c.19-1.19-.56-1.81-1.69-1.38a4.18,4.18,0,0,0-2.38,2.92C362,155.78,362.78,156.39,363.91,156Z"/><path class="cls-3" d="M381.86,167.12c.48.39.94.21,1-.4a2.13,2.13,0,0,0-.68-1.8c-.48-.39-1-.21-1.05.39A2.16,2.16,0,0,0,381.86,167.12Z"/><path class="cls-5" d="M283,266.05a9.86,9.86,0,0,1-5.07-1.43L271,260.54a.77.77,0,1,1,.79-1.33l6.88,4.07a8.28,8.28,0,0,0,12.54-7.68l-.15-2.08c-2.41-34-6.91-97.15,19.73-104a206.28,206.28,0,0,0,20-6.24c13.67-4.89,14.61-4.62,33.45,9.61a.78.78,0,1,1-.93,1.24c-18.72-14.13-19-14-32-9.38a209.67,209.67,0,0,1-20.18,6.28c-25.38,6.49-20.94,68.85-18.56,102.35l.15,2.08A9.9,9.9,0,0,1,283,266.05Z"/><ellipse class="cls-1" cx="335.23" cy="264.1" rx="25.2" ry="14.55"/><path class="cls-2" d="M347.25,257.86a3.9,3.9,0,0,1,2.2,3.89,6.61,6.61,0,0,1-.32,1.9,3.2,3.2,0,0,1-4.3,1.32c-2.36-.94-7.61-5.87-7.8-9.09C336.66,249.88,343.52,256.27,347.25,257.86Z"/><path class="cls-2" d="M333.37,267.78s.57,3.45.29,4.09a4.45,4.45,0,0,1-4.34,1.69c-2.43-.29-9.42-2.7-11-7.31-2.41-7.14,13.49.54,13.49.54Z"/><path class="cls-3" d="M326.54,212.53l-.54,54a3.79,3.79,0,0,0,2.94,3.74l.66.08a3.35,3.35,0,0,0,3.2-1.32,4.06,4.06,0,0,0,.73-2.18l.68-23,3.44-20.6,4.76,36.45a3.15,3.15,0,0,0,1.31,2.4,3.59,3.59,0,0,0,2.17.59,4,4,0,0,0,2.88-1.42,2.89,2.89,0,0,0,.69-1.95l-1.89-21.93-.7-28Z"/><path class="cls-6" d="M333.53,164.24l.85,4.91a2.24,2.24,0,0,1-1.84,2.14c-1.87.47-2.45-.74-2.45-.74l-.85-5.54Z"/><path class="cls-6" d="M323.53,164.38c3.13,3.12,7.91,3.38,10.68.59s2.47-7.59-.66-10.71-7.91-3.38-10.67-.58S320.41,161.27,323.53,164.38Z"/><path class="cls-5" d="M333.31,169.24c.13-.05,7.94-5.08,10.83.18,4.71,8.59,4.44,36.23,2.95,39.81-1.38,3.32-4.82,5.76-7.22,7.14a14.52,14.52,0,0,1-7,2c-2.45,0-7.13-2.15-7-5.34.78-14.69-.52-27.07-1.72-39.08C324.18,173.94,325.68,172.33,333.31,169.24Z"/><path class="cls-4" d="M337.65,223.17l4.76,36.45a3.15,3.15,0,0,0,1.31,2.4,3.81,3.81,0,0,0,.4.23c-1-.74-3.87-31.33-4.4-34.73S337.65,223.17,337.65,223.17Z"/><polygon class="cls-6" points="308.31 170.86 304.07 156.95 306.31 156.02 311.32 166.92 308.31 170.86"/><polygon class="cls-6" points="351.13 159.9 347.94 145.42 345.41 145.45 346.36 157.46 351.13 159.9"/><path class="cls-5" d="M324.18,173.94s-7.63,1.52-12.48-7.36a1.2,1.2,0,0,0-2-.21c-.78,1.18-1.81,3-1.28,5,2.37,8.69,15.19,10.6,17.5,15.64S324.18,173.94,324.18,173.94Z"/><path class="cls-5" d="M338.27,167.44s6,.46,6.91-4.77a40.54,40.54,0,0,0,.61-5.23,1,1,0,0,1,1.18-1c1.45.18,3.69.61,4,1.58.46,1.45,1.31,8.55-4.66,19.45C342.39,184.59,338.27,167.44,338.27,167.44Z"/><path class="cls-6" d="M348,145.45l-.06-1.65a3.35,3.35,0,0,0-.5-1.65l-1.67-2.75-.44-.55a1.27,1.27,0,0,0-1.67-.28l-.38.24a1.58,1.58,0,0,0-.74,1.44l.87,2.35-1.1-.21a.4.4,0,0,0-.46.31h0a.4.4,0,0,0,.24.43l1.79.72,1.62,2.3Z"/><path class="cls-6" d="M304,157l-.51-1.58a3.42,3.42,0,0,1-.1-1.71l.64-3.16.23-.67a1.26,1.26,0,0,1,1.47-.83l.45.09a1.58,1.58,0,0,1,1.18,1.11l0,2.5,1-.57a.39.39,0,0,1,.54.14h0a.4.4,0,0,1-.08.49l-1.44,1.28-.84,3Z"/><path class="cls-4" d="M327.76,184.46c.69,3.18-1.26,27.81,5.1,33.9-2.45,0-7.13-2.15-7-5.34a195.84,195.84,0,0,0-.58-27c-2.49-3.23-9.35-5.28-13.64-9.42C312,176.68,327.07,181.32,327.76,184.46Z"/><path class="cls-7" d="M336.12,167.85,335,166.74a8.84,8.84,0,0,1-3.22,2.14,16.35,16.35,0,0,1-2.57.53l-.69,1.93S334.23,170.93,336.12,167.85Z"/><path class="cls-2" d="M328.11,162.14a.92.92,0,0,1-.84,0c-.46-.24-1.21-2.08-2.17-1.94-1.5.21-3.68,3.36-6.39-1-1.41-2.29-.58-3.52-1.27-4.82,0,0,.24.7,6.14-2.9s10.72.79,12.22,3.3,2.47,7.41-1.41,10.18c-.64.46-4.77-.36-4.85-.71s1-.9.39-1.71A1.3,1.3,0,0,0,328.11,162.14Z"/></g></g></svg>