<svg xmlns="http://www.w3.org/2000/svg" xmlns:xlink="http://www.w3.org/1999/xlink" viewBox="0 0 174.65 141.22"><defs><style>.cls-1{fill:#172f78;opacity:0.6;}.cls-2{fill:#03a7d3;}.cls-3{fill:url(#Áåçûìÿííûé_ãðàäèåíò_354);}.cls-4{fill:url(#Áåçûìÿííûé_ãðàäèåíò_346);}.cls-5{fill:#fff;}.cls-6{fill:#06033e;opacity:0.4;}.cls-7{fill:url(#Áåçûìÿííûé_ãðàäèåíò_354-2);}.cls-8{fill:url(#Áåçûìÿííûé_ãðàäèåíò_346-2);}.cls-9{fill:url(#Áåçûìÿííûé_ãðàäèåíò_354-3);}.cls-10{fill:url(#Áåçûìÿííûé_ãðàäèåíò_346-3);}.cls-11{fill:url(#Áåçûìÿííûé_ãðàäèåíò_67);}.cls-12{fill:#fe9e1f;}.cls-13{opacity:0.3;}
    
         .contact_location {
             animation-name: contact-locate;
             animation-duration: 3s;
             animation-iteration-count: infinite;
             transform-origin: 50% 50%;
         }

        @keyframes contact-locate {
            0% {transform: translate(0, 0);}
            50% {transform: translate(0, 8px);}
        }
        .contact_block-sec {
            animation-name: contactBlocka-2;
            animation-duration: 4s;
            animation-iteration-count: infinite;
            -webkit-transform-origin: 50% 50%;
            transform-origin: 50% 50%;
        }
        -webkit-@keyframes contactBlocka-2 {
            0% {transform: translate(0, 0);}
            50% {transform: translate(-20px, 0);}
        }
        @keyframes contactBlocka-2 {
            0% {transform: translate(0, 0);}
            50% {transform: translate(-20px, 0);}
        }

        .contact_block-sec-2 {
            animation-name: contactBlocka-22;
            animation-duration: 2s;
            animation-iteration-count: infinite;
            transform-origin: 50% 50%;
        }

        @keyframes contactBlocka-22 {
            0% {transform: translate(0, 0);}
            50% {transform: translate(-20px, 0);}
        }
    
    </style><linearGradient id="Áåçûìÿííûé_ãðàäèåíò_354" x1="41.81" y1="107.24" x2="98.23" y2="107.24" gradientUnits="userSpaceOnUse"><stop offset="0" stop-color="#01c8ef"/><stop offset="0.13" stop-color="#04b1dd"/><stop offset="0.55" stop-color="#0e6ba7"/><stop offset="0.85" stop-color="#154085"/><stop offset="1" stop-color="#172f78"/></linearGradient><radialGradient id="Áåçûìÿííûé_ãðàäèåíò_346" cx="31.81" cy="64.94" r="125.99" gradientUnits="userSpaceOnUse"><stop offset="0" stop-color="#01c8ef"/><stop offset="0.14" stop-color="#03bae4"/><stop offset="0.4" stop-color="#0895c8"/><stop offset="0.76" stop-color="#115a9a"/><stop offset="1" stop-color="#172f78"/></radialGradient><linearGradient id="Áåçûìÿííûé_ãðàäèåíò_354-2" x1="41.81" y1="77.28" x2="98.23" y2="77.28" xlink:href="#Áåçûìÿííûé_ãðàäèåíò_354"/><radialGradient id="Áåçûìÿííûé_ãðàäèåíò_346-2" cx="31.81" cy="34.98" r="125.99" xlink:href="#Áåçûìÿííûé_ãðàäèåíò_346"/><linearGradient id="Áåçûìÿííûé_ãðàäèåíò_354-3" x1="41.81" y1="47.33" x2="98.23" y2="47.33" xlink:href="#Áåçûìÿííûé_ãðàäèåíò_354"/><radialGradient id="Áåçûìÿííûé_ãðàäèåíò_346-3" cx="31.81" cy="5.02" r="125.99" xlink:href="#Áåçûìÿííûé_ãðàäèåíò_346"/><radialGradient id="Áåçûìÿííûé_ãðàäèåíò_67" cx="42.93" cy="12.61" r="86.62" gradientUnits="userSpaceOnUse"><stop offset="0" stop-color="#fe9e1f"/><stop offset="1" stop-color="#b6246e"/></radialGradient></defs><title>Asset 2</title><g id="Layer_2" data-name="Layer 2"><g id="Ñëîé_1" data-name="Ñëîé 1"><path class="cls-1" d="M41.64,6.37A167,167,0,0,1,88.85.3q3.42,0,6.77.18c15.19,1.39,20.6,17.43,11.44,24.45-4.21,3.22-9.27,3.18-11.44,3.17s-4.49-.16-6.77-.18A167,167,0,0,0,41.64,34C27.81,37.36,27,23.3,31.83,14.71a17.48,17.48,0,0,1,9.81-8.34Z"/><path class="cls-2" d="M37.76,34.8a8.15,8.15,0,0,1-6.9-3.1c-3.33-4.39-2.12-12.11.71-17.14a17.81,17.81,0,0,1,10-8.47h0A166.55,166.55,0,0,1,88.85,0c2.25,0,4.54.08,6.79.18,7.63.69,13.77,5.34,15.65,11.84a12,12,0,0,1-4.05,13.13c-4.29,3.28-9.41,3.25-11.62,3.24s-4.52-.16-6.78-.18a167.06,167.06,0,0,0-47.12,6.06A17,17,0,0,1,37.76,34.8Zm4-28.14a17.16,17.16,0,0,0-9.64,8.19c-2.74,4.87-3.94,12.3-.76,16.5,2,2.68,5.57,3.49,10.24,2.35a167.52,167.52,0,0,1,47.28-6.07c2.27,0,4.55.07,6.79.17s7.11.05,11.24-3.11a11.37,11.37,0,0,0,3.84-12.49C108.91,5.93,103,1.45,95.6.78,93.37.68,91.09.62,88.84.6A166.58,166.58,0,0,0,41.73,6.66Z"/><path class="cls-2" d="M86.55,141.22a10.07,10.07,0,0,1-5-1.19L48.29,120.81a3.23,3.23,0,0,1,0-6.08L81.42,95.47a11,11,0,0,1,9.91,0l33.3,19.22a3.23,3.23,0,0,1,0,6.08L91.5,140A10.1,10.1,0,0,1,86.55,141.22Zm-.18-46.33A9.48,9.48,0,0,0,81.73,96L48.6,115.27a2.62,2.62,0,0,0,0,5L81.91,139.5a10.25,10.25,0,0,0,9.28,0l33.13-19.27a2.62,2.62,0,0,0,0-5L91,96A9.52,9.52,0,0,0,86.37,94.89Z"/><path class="cls-3" d="M126.63,107.22h0v-16L106.44,94l-15.1-8.73a10.61,10.61,0,0,0-9.6,0l-2.35,1.5L46.62,91.09v16.26h0a3.37,3.37,0,0,0,2,2.68l33.3,19.23a10.61,10.61,0,0,0,9.6,0L124.64,110a3.4,3.4,0,0,0,2-2.67h0Z"/><path class="cls-4" d="M124.64,88.36,91.34,69.14a10.61,10.61,0,0,0-9.6,0L48.61,88.4c-2.65,1.53-2.65,4,0,5.54l33.3,19.23a10.61,10.61,0,0,0,9.6,0l33.13-19.26C127.29,92.38,127.29,89.89,124.64,88.36Z"/><path class="cls-5" d="M124.64,92.94,91.51,112.2a10.61,10.61,0,0,1-9.6,0L48.61,93a3.69,3.69,0,0,1-1.93-2.28c-.25,1.15.39,2.36,1.93,3.25l33.3,19.23a10.61,10.61,0,0,0,9.6,0l33.13-19.26c1.54-.89,2.18-2.1,1.93-3.26A3.68,3.68,0,0,1,124.64,92.94Z"/><polygon class="cls-5" points="95.99 117.43 94.41 118.34 94.41 116.52 95.99 115.61 95.99 117.43"/><polygon class="cls-5" points="99.29 115.53 97.71 116.44 97.71 114.62 99.29 113.71 99.29 115.53"/><polygon class="cls-5" points="102.59 113.62 101.01 114.53 101.01 112.71 102.59 111.8 102.59 113.62"/><polygon class="cls-5" points="99.89 118.87 98.31 119.78 98.31 117.96 99.89 117.05 99.89 118.87"/><polygon class="cls-5" points="102.79 117.19 101.22 118.1 101.22 116.28 102.79 115.37 102.79 117.19"/><polygon class="cls-5" points="113.17 107.51 111.59 108.42 111.59 106.6 113.17 105.69 113.17 107.51"/><polygon class="cls-5" points="122.25 102.27 120.67 103.18 120.67 101.36 122.25 100.45 122.25 102.27"/><polygon class="cls-5" points="105.88 111.72 104.31 112.63 104.31 110.81 105.88 109.9 105.88 111.72"/><path class="cls-6 contact_location" d="M84.74,105.05,62.33,92.11c-.91-.53-.79-1.44.26-2L84.48,77.42A3.94,3.94,0,0,1,88,77.27l22.4,12.94c.92.52.8,1.44-.25,2.05L88.29,104.9A4,4,0,0,1,84.74,105.05Z"/><path class="cls-5" d="M75.92,119.05,57.43,108.37a1.89,1.89,0,0,1-.79-1.52v-1.38c0-.58.35-.86.79-.6l18.49,10.67a1.9,1.9,0,0,1,.8,1.53v1.37C76.72,119,76.37,119.3,75.92,119.05Z"/><path class="cls-7" d="M126.63,77.27h0v-16L106.44,64l-15.1-8.72a10.61,10.61,0,0,0-9.6,0l-2.35,1.49L46.62,61.13V77.39h0a3.37,3.37,0,0,0,2,2.68L81.91,99.3a10.61,10.61,0,0,0,9.6,0L124.64,80a3.42,3.42,0,0,0,2-2.68h0Z"/><path class="cls-8" d="M124.64,58.41,91.34,39.18a10.61,10.61,0,0,0-9.6,0L48.61,58.44C46,60,46,62.45,48.61,64l33.3,19.23a10.61,10.61,0,0,0,9.6,0L124.64,64C127.29,62.42,127.29,59.94,124.64,58.41Z"/><path class="cls-6 contact_location" d="M108.78,59.57,89.37,48.37a6.19,6.19,0,0,0-5.59,0L64.47,59.59c-1.54.89-1.54,2.34,0,3.23L83.88,74a6.12,6.12,0,0,0,5.59,0L108.78,62.8C110.32,61.91,110.32,60.46,108.78,59.57Z"/><path class="cls-5" d="M124.64,63,91.51,82.24a10.61,10.61,0,0,1-9.6,0L48.61,63a3.7,3.7,0,0,1-1.93-2.29c-.25,1.16.39,2.37,1.93,3.25l33.3,19.23a10.61,10.61,0,0,0,9.6,0L124.64,64c1.54-.89,2.18-2.1,1.93-3.26A3.68,3.68,0,0,1,124.64,63Z"/><polygon class="cls-5" points="95.99 87.47 94.41 88.39 94.41 86.56 95.99 85.65 95.99 87.47"/><polygon class="cls-5" points="99.29 85.57 97.71 86.48 97.71 84.66 99.29 83.75 99.29 85.57"/><polygon class="cls-5" points="102.59 83.67 101.01 84.58 101.01 82.76 102.59 81.84 102.59 83.67"/><polygon class="cls-5" points="99.89 88.91 98.31 89.82 98.31 88 99.89 87.09 99.89 88.91"/><polygon class="cls-5" points="102.79 87.23 101.22 88.14 101.22 86.33 102.79 85.42 102.79 87.23"/><polygon class="cls-5" points="113.17 77.56 111.59 78.47 111.59 76.65 113.17 75.74 113.17 77.56"/><polygon class="cls-5" points="122.25 72.31 120.67 73.22 120.67 71.4 122.25 70.49 122.25 72.31"/><polygon class="cls-5" points="105.88 81.76 104.31 82.67 104.31 80.85 105.88 79.94 105.88 81.76"/><path class="cls-9" d="M126.63,47.31h0v-16L106.44,34l-15.1-8.72a10.61,10.61,0,0,0-9.6,0l-2.35,1.5L46.62,31.18V47.43h0a3.39,3.39,0,0,0,2,2.69l33.3,19.22a10.61,10.61,0,0,0,9.6,0l33.13-19.26a3.4,3.4,0,0,0,2-2.68h0Z"/><path class="cls-10" d="M124.64,28.45,91.34,9.22a10.61,10.61,0,0,0-9.6,0L48.61,28.49C46,30,46,32.5,48.61,34l33.3,19.23a10.61,10.61,0,0,0,9.6,0L124.64,34C127.29,32.46,127.29,30,124.64,28.45Z"/><path class="cls-11" d="M124.64,28.45,91.34,9.22a10.61,10.61,0,0,0-9.6,0L48.61,28.49C46,30,46,32.5,48.61,34l33.3,19.23a10.61,10.61,0,0,0,9.6,0L124.64,34C127.29,32.46,127.29,30,124.64,28.45Z"/><path class="cls-12 contact_location" d="M86.68,47a6.89,6.89,0,0,1-3.39-.83L61.22,33.46a2.63,2.63,0,0,1-1.53-2.21A2.64,2.64,0,0,1,61.22,29l22-12.76a7.4,7.4,0,0,1,6.79,0L112,29a2.63,2.63,0,0,1,1.53,2.21A2.64,2.64,0,0,1,112,33.44l-22,12.76A6.93,6.93,0,0,1,86.68,47Zm-.11-30.71a6,6,0,0,0-3,.71L61.65,29.79a1.83,1.83,0,0,0-1.1,1.46,1.83,1.83,0,0,0,1.1,1.46L83.72,45.45a6.53,6.53,0,0,0,5.93,0l21.94-12.76a1.83,1.83,0,0,0,1.11-1.46,1.83,1.83,0,0,0-1.1-1.46L89.53,17A6,6,0,0,0,86.57,16.32Z"/><path class="cls-5" d="M124.64,33,91.51,52.29a10.61,10.61,0,0,1-9.6,0L48.61,33.06a3.68,3.68,0,0,1-1.93-2.29c-.25,1.16.39,2.37,1.93,3.26l33.3,19.23a10.61,10.61,0,0,0,9.6,0L124.64,34c1.54-.89,2.18-2.09,1.93-3.25A3.69,3.69,0,0,1,124.64,33Z"/><polygon class="cls-5" points="95.99 57.52 94.41 58.43 94.41 56.61 95.99 55.7 95.99 57.52"/><polygon class="cls-5" points="99.29 55.61 97.71 56.52 97.71 54.7 99.29 53.79 99.29 55.61"/><polygon class="cls-5" points="102.59 53.71 101.01 54.62 101.01 52.8 102.59 51.89 102.59 53.71"/><polygon class="cls-5" points="99.89 58.95 98.31 59.87 98.31 58.05 99.89 57.13 99.89 58.95"/><polygon class="cls-5" points="102.79 57.28 101.22 58.19 101.22 56.37 102.79 55.46 102.79 57.28"/><polygon class="cls-5" points="113.17 47.6 111.59 48.51 111.59 46.69 113.17 45.78 113.17 47.6"/><polygon class="cls-5" points="122.25 42.35 120.67 43.27 120.67 41.45 122.25 40.53 122.25 42.35"/><polygon class="cls-5" points="105.88 51.8 104.31 52.72 104.31 50.9 105.88 49.98 105.88 51.8"/><path class="cls-1" d="M92.41,91.75q-3.27.09-6.6.06c-17.37-.14-33.45-2.66-46.88-6.89C25.52,81.34,24.71,95.37,29.39,104a17.07,17.07,0,0,0,9.54,8.5,162.78,162.78,0,0,0,46.88,6.89c2.22,0,4.42,0,6.6-.06,15.76-1.17,19.88-16.3,12.52-23.37-2.06-2-5.9-4.31-12.52-4.25Z"/><g class="cls-13"><path class="cls-2" d="M174,74.54l-.24-.48a18.34,18.34,0,0,1-.79-1.92c-2.93-8.55-11.49-16.3-24.76-22.43-9.22-5.24-11.45-12.81-12-15.82h0c-.63-3.55.08-8.59,3.14-11.25,2.23-1.95,5.28-2.32,9.06-1.1,13.45,6.21,22.11,14.08,25.09,22.79.63,2.46,1.12,4.38,1.12,13.06V72.11c0,1.3,0,1.37-.36,2ZM136.82,33.79c.52,2.93,2.69,10.29,11.67,15.39,13.4,6.19,22.06,14.06,25,22.77.19.5.35.91.5,1.26a9.34,9.34,0,0,0,0-1.1V57.39c0-8.61-.48-10.5-1.09-12.89-2.92-8.53-11.48-16.28-24.75-22.41-3.53-1.14-6.39-.81-8.46,1-2.88,2.51-3.54,7.3-2.94,10.7Z"/><path class="cls-2" d="M.59,78.62l-.59,0V51c0-.24,0-.49,0-.74A23.25,23.25,0,0,1,5.19,36.92l.13-.13a5.09,5.09,0,0,1,2.37-1.6,3.05,3.05,0,0,1,3.06,1.74c2.72,4.34,2.48,16.8-5.08,28C1.26,70.86,1,74.28.59,78.62ZM8.08,35.76a1.51,1.51,0,0,0-.3,0,4.6,4.6,0,0,0-2,1.43l-.1.1a22.59,22.59,0,0,0-5,12.94c0,.24,0,.48,0,.72v23c.57-2.69,1.73-5.51,4.6-9.4,7.41-10.93,7.7-23.09,5.06-27.3A2.69,2.69,0,0,0,8.08,35.76Z"/></g><path class="cls-2" d="M6.88,93c-.73,0-1.68-.39-2.73-1.82A22.58,22.58,0,0,1,0,78.61V51H.59a21.65,21.65,0,0,0,4,12.24c5.9,9.74,6.59,19.36,6.08,23.51h0c-.43,3.4-1.69,5.78-3.31,6.2A2.11,2.11,0,0,1,6.88,93ZM.59,55.79v22.8a22,22,0,0,0,4,12.23c.62.85,1.58,1.79,2.62,1.53,1.36-.35,2.48-2.59,2.87-5.7.51-4.07-.18-13.53-6-23.12A24.11,24.11,0,0,1,.59,55.79Z"/><path class="cls-2" d="M87.34,119.73H85.81c-16.82-.13-33.06-2.52-47-6.9a17.31,17.31,0,0,1-9.71-8.64c-2.8-5.18-3.94-13-.54-17.3C30.08,85,33.11,83.06,39,84.64,52.87,89,69.05,91.38,85.81,91.51c2.19,0,4.41,0,6.59-.06h.23c6.59,0,10.43,2.35,12.5,4.34a12.59,12.59,0,0,1,2.81,13.4c-2.16,6-8,9.91-15.51,10.47C90.74,119.71,89,119.73,87.34,119.73ZM35,84.65a7.18,7.18,0,0,0-5.94,2.59c-3.24,4.11-2.11,11.65.6,16.66A16.76,16.76,0,0,0,39,112.26c13.84,4.36,30,6.74,46.78,6.87,2.2,0,4.41,0,6.59-.06,7.3-.54,12.9-4.31,15-10.08a12,12,0,0,0-2.66-12.77c-2-1.94-5.79-4.23-12.31-4.18-2.18.06-4.4.08-6.6.06C69,92,52.75,89.58,38.84,85.2A15.06,15.06,0,0,0,35,84.65Z"/><path class="cls-2" d="M142.2,109.63a8,8,0,0,1-6.48-2.89c-3-3.68-3.09-10.37-.17-15.9a23.68,23.68,0,0,1,10.33-10c13.76-5.91,22.93-13.51,26.53-22a13.44,13.44,0,0,1,1-1.92l.07-.11.67-.08.08.22c.24.67.34,1,.37,4.26v8.5c-.08,12-.78,14.18-1.68,17C169.29,95.35,160,103.06,146.13,109A14,14,0,0,1,142.2,109.63Zm31.61-52.17A15.52,15.52,0,0,0,173,59.1c-3.66,8.63-12.93,16.35-26.82,22.3a23.13,23.13,0,0,0-10,9.72c-2.82,5.32-2.77,11.74.1,15.25,1.5,1.82,4.41,3.67,9.75,2.09,13.71-5.88,22.88-13.48,26.48-22,.87-2.7,1.56-4.86,1.64-16.75v-8.5A14.52,14.52,0,0,0,173.81,57.46Z"/></g></g></svg>