<svg xmlns="http://www.w3.org/2000/svg" viewBox="0 0 395.99 303.87"><defs><style>.cls-1{isolation:isolate;}.cls-2{fill:#89c3ef;opacity:0.2;}.cls-3{fill:#afd2f9;}.cls-4{fill:#71abea;}.cls-5{fill:#e6daf7;}.cls-6{fill:#bcedca;opacity:0.54;}.cls-7{fill:#9ed8ae;}.cls-8{fill:#8adddd;}.cls-9{fill:#a8dff4;}.cls-10{fill:#cdd6fc;}.cls-11{fill:#ffbe2e;}.cls-12{fill:#a7e593;}.cls-13{fill:#cbf4cb;}.cls-14{fill:#ace885;}.cls-15{fill:#6fbc5c;}.cls-16{fill:#88f2e0;opacity:0.35;}.cls-16,.cls-27{mix-blend-mode:multiply;}.cls-17{fill:#7ccbf2;}.cls-18{fill:#dcf3ff;}.cls-19,.cls-24{fill:#76b6cc;}.cls-19{opacity:0.16;}.cls-20{fill:#ffd337;}.cls-21,.cls-27{fill:#f7c219;}.cls-22{fill:#f2b303;}.cls-23{fill:#d69005;opacity:0.49;}.cls-25{fill:#e9f7ff;}.cls-26{fill:#c3e5f4;}.cls-27{opacity:0.37;}.cls-28,.cls-29,.cls-40{fill:#e28c03;opacity:0.36;}.cls-29,.cls-30{font-size:30.25px;letter-spacing:0.2em;}.cls-29,.cls-30,.cls-40,.cls-41{font-family:Metropolis-Black, Metropolis Black;font-weight:800;}.cls-30,.cls-41{fill:#ffe5ab;}.cls-31{fill:#7c7cce;}.cls-32{fill:#46468c;}.cls-33{fill:#f4a28c;}.cls-34{fill:#5fc0c3;}.cls-35{fill:#feb49d;}.cls-36{fill:#56569b;}.cls-37{fill:#e2e0e0;}.cls-38{fill:#2a4241;}.cls-39{fill:#354c4c;}.cls-40,.cls-41{font-size:46.56px;letter-spacing:0.2em;}.cls-42{fill:#76cbff;}.cls-43{fill:#013247;}.cls-44{fill:#053b60;}.cls-45{fill:#a1d9df;}.cls-46{fill:#f9a791;}.cls-47{fill:#80d2d6;}</style></defs><title>Asset 1</title><g class="cls-1"><g id="Layer_2" data-name="Layer 2"><g id="OBJECTS"><ellipse class="cls-2" cx="171.74" cy="255.31" rx="158.19" ry="14.32"/><ellipse class="cls-2" cx="334.75" cy="296.95" rx="61.24" ry="6.92"/><path class="cls-3" d="M306.27,250.83c-1-6.55,1.74-13.52,5.59-19.11,4.57-6.65,10.66-12.18,14.94-19,10.43-16.67,8.31-38.9-.76-56.34-8.22-15.83-22.16-31.8-17.4-49,2.51-9.06,9.82-15.85,15-23.67s8.09-19.11,1.81-26.11c-3.7-4.13-9.67-5.53-15.2-5.21a31.55,31.55,0,0,0-25.6,16.54c-3.74,7.14-4.59,15.53-8.47,22.58-5.05,9.18-14.48,14.91-22,22.19-19.15,18.48-25.52,49-15.38,73.59,2.62,6.33.72,11.95-3.59,17.28-2.19,2.71-5,4.87-6.93,7.78-2.26,3.45-3,7.7-3,11.83,0,9.5,4.58,19.55,11.42,26.67Z"/><path class="cls-4" d="M312,62.31A66.51,66.51,0,0,0,300,74,24.56,24.56,0,0,1,299,63.08c.18-1.25-1.73-1.79-1.91-.53a26.74,26.74,0,0,0,1.4,13.33,65.54,65.54,0,0,0-12.87,45.28,139.54,139.54,0,0,0,3.42,18,79.8,79.8,0,0,1-16.77-28.53c-.4-1.21-2.32-.69-1.91.52a82.06,82.06,0,0,0,19.56,31.82,91.75,91.75,0,0,1,2.69,18,.79.79,0,0,0,0,.69c0,.64,0,1.29,0,1.93a61,61,0,0,1-2.72,16.14,134.27,134.27,0,0,1-35-37.44c-.67-1.08-2.39-.09-1.71,1a136.6,136.6,0,0,0,36.11,38.42c-2.7,8.32-6.61,16.33-10.14,24.24-6.07,13.58-11.28,28-8.91,43.05.2,1.26,2.11.73,1.91-.52-2.38-15.16,3-28.76,9-42.26a1.15,1.15,0,0,0,.29-.08,81.2,81.2,0,0,0,27.7-23c.77-1-.95-2-1.72-1a78.79,78.79,0,0,1-25,21.21c4.9-10.78,9.94-21.56,11.59-33.08a51.16,51.16,0,0,0,.48-8.44,61.87,61.87,0,0,0,15.52-20.68c.54-1.15-1.17-2.16-1.71-1a60.51,60.51,0,0,1-13.91,19.1,107,107,0,0,0-2.5-16.11.9.9,0,0,0-.16-1.13l-.12-.12c-.61-2.73-1.25-5.46-1.86-8.2A91,91,0,0,1,287.54,117a76,76,0,0,0,19.38-17.58c.77-1-.62-2.4-1.41-1.4a74.24,74.24,0,0,1-18,16.64,60.2,60.2,0,0,1,2.56-17.79,64.78,64.78,0,0,1,9.78-19.49c.6,0,1.17-.47.88-1.18h0A63.44,63.44,0,0,1,313,64C314,63.27,313.05,61.55,312,62.31Z"/><path class="cls-5" d="M77.5,43.14a182.49,182.49,0,0,1,30.29,70.12,182.61,182.61,0,0,1,2.93,21.46,1,1,0,0,0,2.08-.14A184.71,184.71,0,0,0,91.09,61,184.46,184.46,0,0,0,79.23,42c-.78-1.09-2.52.08-1.73,1.18Z"/><path class="cls-5" d="M91.9,64.48a71.19,71.19,0,0,0-11.71-8,1,1,0,0,0-1,1.83A69.73,69.73,0,0,1,92.88,68.1C92.51,66.91,92.19,65.7,91.9,64.48Z"/><path class="cls-5" d="M99.5,56.46,96,74.26a1,1,0,0,0,2,.42q1.73-8.91,3.47-17.8a1,1,0,0,0-2-.42Z"/><path class="cls-5" d="M87.43,82.36l14.71,9.06c1.15.71,2.06-1.17.93-1.87L88.36,80.49c-1.15-.71-2.07,1.17-.93,1.87Z"/><path class="cls-5" d="M80.29,32.67c4.49,6.09,1.9,15.63,1.9,15.63S72.31,48,67.82,41.86s-1.89-15.62-1.89-15.62S75.8,26.58,80.29,32.67Z"/><path class="cls-5" d="M76.19,49c7,2.92,9.65,12.43,9.65,12.43s-8.65,4.78-15.63,1.86-9.65-12.42-9.65-12.42S69.2,46.1,76.19,49Z"/><path class="cls-5" d="M88.35,72.24c6.33,4.15,7.22,14,7.22,14s-9.38,3.12-15.71-1-7.22-14-7.22-14S82,68.1,88.35,72.24Z"/><path class="cls-5" d="M93.86,107.25l14.71,9.07c1.15.7,2.07-1.17.93-1.87l-14.71-9.07c-1.14-.7-2.06,1.17-.93,1.87Z"/><path class="cls-5" d="M94.79,97.14c6.33,4.14,7.21,14,7.21,14s-9.37,3.12-15.7-1-7.22-14-7.22-14S88.45,93,94.79,97.14Z"/><path class="cls-5" d="M109.51,55.24c-1.92,7.32-11,11.28-11,11.28s-5.93-7.91-4-15.22,11-11.28,11-11.28S111.44,47.92,109.51,55.24Z"/><path class="cls-5" d="M107.72,80.33q-1.73,8.9-3.47,17.8a1,1,0,0,0,2,.41q1.74-8.9,3.47-17.79a1,1,0,0,0-2-.42Z"/><path class="cls-5" d="M117.74,79.11c-1.93,7.31-11,11.28-11,11.28s-5.93-7.91-4-15.23,11-11.28,11-11.28S119.66,71.79,117.74,79.11Z"/><path class="cls-6" d="M41,203.25c6.64,10.95,2.36,24.69-2.93,36.67h62.19c2.54-12.49,4-25.42,1.2-37.82-3-13.22-11.66-25.81-24.45-30.31-6-2.12-12.81-2.44-18.17-5.95-12-7.86-10.35-26.32-18.78-38C31.43,116,14.69,114,0,114.12c9.77,5.93,9.32,20,8.74,31.38S6.62,169.4,13,178.86C20,189.18,34.51,192.6,41,203.25Z"/><path class="cls-7" d="M15.85,126.6c13.2,13.91,5.49,36.05,15.12,51.75,4.86,7.91,13.09,10.73,21.26,14.06A38.29,38.29,0,0,1,75.52,238a1.45,1.45,0,0,0,2.8.77c4.55-16.22-2.11-34.57-15.86-44.29-8-5.64-18.84-6.57-25.85-13.63s-8.06-17.95-9-27.38c-1-10.26-2.33-21.15-9.74-28.95-1.29-1.36-3.34.69-2.06,2Z"/><path class="cls-7" d="M80.23,188.59A71.47,71.47,0,0,1,75.71,215c-.66,1.75,2.15,2.51,2.8.77a73.29,73.29,0,0,0,4.62-27.22c0-1.87-2.94-1.88-2.9,0Z"/><path class="cls-7" d="M47.69,200.83a36.07,36.07,0,0,0,21.23,4.55c1.84-.18,1.86-3.09,0-2.91a33.33,33.33,0,0,1-19.77-4.15,1.45,1.45,0,0,0-1.46,2.51Z"/><path class="cls-7" d="M55.8,172.58a100.85,100.85,0,0,1,2.1,21,1.46,1.46,0,0,0,2.91,0,105,105,0,0,0-2.2-21.79c-.38-1.83-3.18-1.05-2.81.78Z"/><path class="cls-7" d="M17.25,171.64l13.06,5.75c1.7.75,3.18-1.76,1.47-2.51l-13.06-5.76c-1.7-.74-3.18,1.76-1.47,2.52Z"/><path class="cls-7" d="M37.28,145A59.14,59.14,0,0,1,28,169.57c-1,1.57,1.48,3,2.51,1.47a61.29,61.29,0,0,0,9.61-25.25c.26-1.83-2.54-2.62-2.81-.78Z"/><path class="cls-7" d="M15,142.06l9.4,5.29a1.46,1.46,0,0,0,1.46-2.52l-9.39-5.28A1.46,1.46,0,0,0,15,142.06Z"/><path class="cls-8" d="M240.61,121.2h-4.23a28.45,28.45,0,0,0-3.66-9l3-2.95a5.15,5.15,0,0,0,0-7.25l-1.8-1.8a5.15,5.15,0,0,0-7.25,0l-2.91,2.91a28.68,28.68,0,0,0-9-3.76V95.31a5.15,5.15,0,0,0-5.13-5.13h-2.53a5.15,5.15,0,0,0-5.13,5.13v4.08a28.77,28.77,0,0,0-9,3.76L190,100.24a5.15,5.15,0,0,0-7.25,0L181,102a5.15,5.15,0,0,0,0,7.25l3,2.95a28.45,28.45,0,0,0-3.66,9H176a5.15,5.15,0,0,0-5.13,5.13v2.53A5.15,5.15,0,0,0,176,134h4.32a28.64,28.64,0,0,0,3.72,8.8L181,145.9a5.15,5.15,0,0,0,0,7.25l1.8,1.8a5.15,5.15,0,0,0,7.25,0l3.15-3.15a28.52,28.52,0,0,0,8.76,3.6v4.48a5.15,5.15,0,0,0,5.13,5.13h2.53a5.15,5.15,0,0,0,5.13-5.13V155.4a28.52,28.52,0,0,0,8.76-3.6l3.15,3.15a5.15,5.15,0,0,0,7.25,0l1.8-1.8a5.15,5.15,0,0,0,0-7.25l-3.11-3.11a28.64,28.64,0,0,0,3.72-8.8h4.32a5.15,5.15,0,0,0,5.13-5.13v-2.53A5.15,5.15,0,0,0,240.61,121.2Zm-32.28,22a15.84,15.84,0,1,1,15.83-15.83A15.85,15.85,0,0,1,208.33,143.23Z"/><path class="cls-9" d="M292.24,111h-2.91a19.78,19.78,0,0,0-2.51-6.15l2-2a3.53,3.53,0,0,0,0-5l-1.23-1.23a3.53,3.53,0,0,0-5,0l-2,2A19.42,19.42,0,0,0,274.46,96v-2.8a3.53,3.53,0,0,0-3.52-3.53H269.2a3.53,3.53,0,0,0-3.52,3.53V96a19.42,19.42,0,0,0-6.18,2.58l-2-2a3.53,3.53,0,0,0-5,0l-1.23,1.23a3.53,3.53,0,0,0,0,5l2,2a19.78,19.78,0,0,0-2.51,6.15h-2.9a3.53,3.53,0,0,0-3.53,3.52v1.74a3.53,3.53,0,0,0,3.53,3.52h3a19.65,19.65,0,0,0,2.56,6L251.29,128a3.53,3.53,0,0,0,0,5l1.23,1.23a3.53,3.53,0,0,0,5,0l2.17-2.16a19.4,19.4,0,0,0,6,2.47v3.08a3.53,3.53,0,0,0,3.52,3.52h1.74a3.53,3.53,0,0,0,3.52-3.52v-3.08a19.4,19.4,0,0,0,6-2.47l2.17,2.16a3.53,3.53,0,0,0,5,0l1.23-1.23a3.53,3.53,0,0,0,0-5l-2.13-2.14a19.63,19.63,0,0,0,2.55-6h3a3.53,3.53,0,0,0,3.52-3.52v-1.74A3.53,3.53,0,0,0,292.24,111Zm-22.17,15.13a10.88,10.88,0,1,1,10.87-10.87A10.89,10.89,0,0,1,270.07,126.13Z"/><path class="cls-10" d="M255.15,70.62h-2.58a17.53,17.53,0,0,0-2.24-5.47l1.81-1.81a3.14,3.14,0,0,0,0-4.43l-1.1-1.1a3.15,3.15,0,0,0-4.44,0l-1.78,1.78a17.39,17.39,0,0,0-5.5-2.3v-2.5a3.14,3.14,0,0,0-3.14-3.13h-1.55a3.14,3.14,0,0,0-3.13,3.13v2.5a17.45,17.45,0,0,0-5.51,2.3l-1.78-1.78a3.14,3.14,0,0,0-4.43,0l-1.1,1.1a3.14,3.14,0,0,0,0,4.43l1.81,1.81a17.53,17.53,0,0,0-2.24,5.47h-2.59a3.15,3.15,0,0,0-3.13,3.14v1.55a3.14,3.14,0,0,0,3.13,3.14h2.65a17.24,17.24,0,0,0,2.27,5.38l-1.9,1.9a3.15,3.15,0,0,0,0,4.44l1.1,1.09a3.12,3.12,0,0,0,4.43,0l1.93-1.92a17.59,17.59,0,0,0,5.36,2.21v2.73a3.14,3.14,0,0,0,3.13,3.14h1.55a3.15,3.15,0,0,0,3.14-3.14V91.55a17.69,17.69,0,0,0,5.36-2.21l1.92,1.92a3.13,3.13,0,0,0,4.44,0l1.1-1.09a3.15,3.15,0,0,0,0-4.44l-1.9-1.9a17.48,17.48,0,0,0,2.27-5.38h2.64a3.15,3.15,0,0,0,3.14-3.14V73.76A3.15,3.15,0,0,0,255.15,70.62ZM235.41,84.1a9.69,9.69,0,1,1,9.68-9.68A9.7,9.7,0,0,1,235.41,84.1Z"/><polygon class="cls-11" points="312.03 0 303.6 14.87 295.17 29.73 286.51 15 277.85 0.27 294.94 0.13 312.03 0"/><polygon class="cls-11" points="78.69 76.35 74.52 66.71 194.15 14.98 229.73 39.05 293.33 4.73 298.31 13.97 229.12 51.31 193.03 26.91 78.69 76.35"/><rect class="cls-12" x="191.33" y="146.93" width="109.38" height="95.92" rx="10.2"/><rect class="cls-13" x="191.33" y="154.99" width="109.38" height="95.92" rx="10.2"/><rect class="cls-14" x="250.49" y="191.59" width="57.22" height="22.72" rx="7.85"/><path class="cls-15" d="M267.85,203a5.24,5.24,0,1,1-5.24-5.25A5.24,5.24,0,0,1,267.85,203Z"/><path class="cls-16" d="M214.56,241.84V146.92H191.61v94.92a9.13,9.13,0,0,0,9.18,9.08h4.59A9.13,9.13,0,0,0,214.56,241.84Z"/><path class="cls-17" d="M191,90.44h-76.5a9.18,9.18,0,0,0-9.18,9.18V242.39a9.18,9.18,0,0,0,9.18,9.18H191a9.22,9.22,0,0,0,9.18-9.18V99.62A9.18,9.18,0,0,0,191,90.44Z"/><polygon class="cls-18" points="112.75 100.23 112.75 232.47 191.61 232.47 192.77 232.47 192.77 146.92 192.77 100.23 112.75 100.23"/><polygon class="cls-19" points="192.77 100.23 112.75 100.23 112.75 232.47 116.84 232.47 116.84 104.83 192.77 104.83 192.77 100.23"/><rect class="cls-20" x="56.05" y="239.82" width="61.89" height="11.75"/><rect class="cls-21" x="56.05" y="239.82" width="47.76" height="11.75"/><rect class="cls-22" x="56.05" y="239.82" width="13.23" height="11.75"/><rect class="cls-23" x="56.05" y="249.77" width="61.89" height="1.8"/><rect class="cls-20" x="62.83" y="228.33" width="61.89" height="11.75"/><rect class="cls-21" x="62.83" y="228.33" width="47.76" height="11.75"/><rect class="cls-22" x="62.83" y="228.33" width="13.23" height="11.75"/><rect class="cls-23" x="62.83" y="238.28" width="61.89" height="1.8"/><rect class="cls-20" x="56.05" y="216.84" width="61.89" height="11.75"/><rect class="cls-21" x="56.05" y="216.84" width="47.76" height="11.75"/><rect class="cls-22" x="56.05" y="216.84" width="13.23" height="11.75"/><rect class="cls-23" x="56.05" y="226.79" width="61.89" height="1.8"/><rect class="cls-20" x="50.78" y="205.35" width="61.89" height="11.75"/><rect class="cls-21" x="50.78" y="205.35" width="47.76" height="11.75"/><rect class="cls-22" x="50.78" y="205.35" width="13.23" height="11.75"/><rect class="cls-23" x="50.78" y="215.3" width="61.89" height="1.8"/><rect class="cls-20" x="57.77" y="193.86" width="61.89" height="11.75"/><rect class="cls-21" x="57.77" y="193.86" width="47.76" height="11.75"/><rect class="cls-22" x="57.77" y="193.86" width="13.23" height="11.75"/><rect class="cls-23" x="57.77" y="203.81" width="61.89" height="1.8"/><polygon class="cls-11" points="161.19 88.17 158.54 83.59 155.9 79.01 161.19 79.01 166.48 79.01 163.83 83.59 161.19 88.17"/><path class="cls-11" d="M161.41,81.2a1.53,1.53,0,0,1-1.22-2.45c.94-1.25,1.94-2.47,3-3.64a1.53,1.53,0,1,1,2.29,2c-1,1.11-1.94,2.27-2.83,3.45A1.52,1.52,0,0,1,161.41,81.2Z"/><path class="cls-11" d="M263.22,118.71a1.52,1.52,0,0,1-1.53-1.53v-3.5c0-1.7-.08-3.42-.24-5.11a1.53,1.53,0,1,1,3.05-.28c.16,1.78.25,3.59.25,5.39v3.5A1.53,1.53,0,0,1,263.22,118.71Zm-1.72-17.38a1.52,1.52,0,0,1-1.48-1.16,55.35,55.35,0,0,0-2.72-8.06,1.53,1.53,0,0,1,2.81-1.21A58,58,0,0,1,263,99.42a1.53,1.53,0,0,1-1.11,1.86A1.57,1.57,0,0,1,261.5,101.33Zm-6.84-16a1.54,1.54,0,0,1-1.3-.72,54.53,54.53,0,0,0-5.06-6.85,1.53,1.53,0,1,1,2.32-2A57.79,57.79,0,0,1,256,82.94a1.53,1.53,0,0,1-.48,2.11A1.61,1.61,0,0,1,254.66,85.28ZM243.25,72.07a1.53,1.53,0,0,1-1-.36,56.06,56.06,0,0,0-6.9-5A1.53,1.53,0,1,1,237,64.1a59.41,59.41,0,0,1,7.28,5.28,1.52,1.52,0,0,1,.17,2.15A1.5,1.5,0,0,1,243.25,72.07Zm-72.63-.5a1.53,1.53,0,0,1-1-2.71A56.84,56.84,0,0,1,177,63.69a1.51,1.51,0,0,1,2.09.53,1.53,1.53,0,0,1-.53,2.1,55,55,0,0,0-7,4.9A1.54,1.54,0,0,1,170.62,71.57ZM228.36,63a1.52,1.52,0,0,1-.59-.12,56,56,0,0,0-8.1-2.65,1.52,1.52,0,0,1-1.12-1.84,1.54,1.54,0,0,1,1.85-1.13A58.52,58.52,0,0,1,229,60a1.53,1.53,0,0,1,.82,2A1.52,1.52,0,0,1,228.36,63Zm-42.73-.29a1.53,1.53,0,0,1-.57-2.95A58.8,58.8,0,0,1,193.64,57a1.53,1.53,0,0,1,.68,3,55,55,0,0,0-8.12,2.54A1.65,1.65,0,0,1,185.63,62.66Zm25.77-3.83h-.13a56.34,56.34,0,0,0-8.52,0,1.55,1.55,0,0,1-1.63-1.42,1.53,1.53,0,0,1,1.42-1.64,61.16,61.16,0,0,1,9,.06,1.53,1.53,0,0,1-.12,3.06Z"/><path class="cls-11" d="M263.22,132.11a1.53,1.53,0,0,1-1.53-1.53V126a1.53,1.53,0,1,1,3.06,0v4.59A1.54,1.54,0,0,1,263.22,132.11Z"/><polygon class="cls-11" points="263.01 140.51 260.12 135.5 257.23 130.5 263.01 130.5 268.8 130.5 265.91 135.5 263.01 140.51"/><path class="cls-18" d="M152.76,235.83a6,6,0,1,0,6,6A6,6,0,0,0,152.76,235.83Z"/><rect class="cls-24" x="124.62" y="144.65" width="56.27" height="9.38"/><rect class="cls-25" x="128.62" y="148" width="48.23" height="113.21"/><rect class="cls-26" x="131.38" y="151.65" width="27.72" height="1.73"/><rect class="cls-26" x="131.38" y="162.44" width="40.71" height="1.45"/><rect class="cls-26" x="131.38" y="171.26" width="40.71" height="1.45"/><rect class="cls-26" x="131.38" y="182.35" width="40.71" height="1.45"/><rect class="cls-26" x="131.38" y="191.17" width="40.71" height="1.45"/><rect class="cls-26" x="131.38" y="202.27" width="40.71" height="1.45"/><rect class="cls-26" x="131.38" y="211.08" width="40.71" height="1.45"/><rect class="cls-26" x="131.38" y="222.18" width="40.71" height="1.45"/><rect class="cls-26" x="131.38" y="230.99" width="40.71" height="1.45"/><rect class="cls-26" x="131.38" y="242.09" width="40.71" height="1.45"/><rect class="cls-26" x="131.38" y="250.9" width="24.59" height="1.45"/><path class="cls-27" d="M61.05,198.27a26.13,26.13,0,0,0-3.08.18v52.93a26.12,26.12,0,0,0,3.08.19,26.65,26.65,0,1,0,0-53.3Z"/><circle class="cls-22" cx="50.28" cy="222.44" r="25.35" transform="matrix(0.16, -0.99, 0.99, 0.16, -177.36, 236.14)"/><circle class="cls-21" cx="50.28" cy="226.21" r="25.35"/><circle class="cls-22" cx="50.28" cy="226.21" r="20.69"/><path class="cls-28" d="M50.28,208.06a20.69,20.69,0,0,1,20.65,19.52c0-.39,0-.78,0-1.17a20.69,20.69,0,1,0-41.37,0q0,.59,0,1.17A20.69,20.69,0,0,1,50.28,208.06Z"/><path class="cls-22" d="M50.28,247.09a20.68,20.68,0,0,0,20.65-19.51,20.68,20.68,0,0,0-41.3,0A20.68,20.68,0,0,0,50.28,247.09Z"/><text class="cls-29" transform="translate(42.05 237.4) scale(0.99 1)">$</text><text class="cls-30" transform="translate(40.76 236.54) scale(0.99 1)">$</text><path class="cls-31" d="M113.23,190.76c-1.11-1.75-3.3-2.45-5.35-2.8-4.27-.75-8.63,1.32-12.92.66l-2.46-.39-1.06,6.86a5.35,5.35,0,0,1,2.67.92,22.36,22.36,0,0,0,11.24,5.51c2.21.38,4.73.34,6.37-1.2a7.5,7.5,0,0,0,1.92-3.95C114.07,194.49,114.26,192.39,113.23,190.76Z"/><path class="cls-32" d="M110.8,190.38c-1.11-1.75-3.31-2.44-5.35-2.8-4.27-.74-8.64,1.32-12.92.66l-2.47-.38-1,6.85a5.29,5.29,0,0,1,2.66.93,22.44,22.44,0,0,0,11.24,5.51c2.21.38,4.74.33,6.38-1.2a7.58,7.58,0,0,0,1.92-3.95C111.64,194.12,111.83,192,110.8,190.38Z"/><path class="cls-33" d="M64,147.8s-3.8,13-1.6,18.19,11.2,11.2,11.2,11.2,2.2-14.8,2.2-15.4S64,147.8,64,147.8Z"/><path class="cls-33" d="M108.08,147.8s3.8,13,1.6,18.19-11.19,11.2-11.19,11.2-2.2-14.8-2.2-15.4S108.08,147.8,108.08,147.8Z"/><path class="cls-34" d="M110.07,149.92s-3.36-13.8-13.46-18.51c-4.58-2.14-7.49-3.44-9.32-4.23l.24-1.15s-.36.12-1.52.6c-1.15-.48-1.51-.6-1.51-.6l.23,1.15c-1.82.79-4.74,2.09-9.32,4.23C65.32,136.12,62,149.92,62,149.92l7.4,5.05-2,26.25h37.36l-2-26.25Z"/><path class="cls-33" d="M86,126.25c-3.41,0-6.18,4-6.18,8.95s2.77,8.94,6.18,8.94,6.19-4,6.19-8.94S89.43,126.25,86,126.25Z"/><path class="cls-35" d="M97.48,117.44c0,8-5.28,17.3-11.78,17.3s-11.78-9.28-11.78-17.3,5.28-11.75,11.78-11.75S97.48,109.42,97.48,117.44Z"/><path class="cls-36" d="M78.61,137.08c-1,3,1.22,6.45,2.32,9.11,1.89,4.55-1.08,10.51-5.89,11.57s-10.09-3.32-9.75-8.24c.21-3.18,2.36-6,2.6-9.16.41-5.47,0-7.66-2.26-12.68a14.6,14.6,0,0,1,.78-12.16c2-3.14,5.24-5,5.87-8.89.51-3.08,1.72-6.26,4.46-8a9.67,9.67,0,0,1,11.13.9c3.51,3,3.53,8.41.82,12-1.15,1.53-3.52,2.75-5.29,3.46-3.09,1.23-7.49,1.58-8.23,4.81-1,4.4,1.32,8.21,3.65,11.24.54.69,1.9,1.47,1.94,2.39C80.82,134.88,79.06,135.76,78.61,137.08Z"/><path class="cls-36" d="M101,111.82c.65,5.94-2.24,12-.8,17.81.78,3.11,2.73,5.79,3.86,8.79a17.66,17.66,0,0,1-.13,12.64c-1.08,2.69-3,5.26-5.84,6.06s-6.33-.88-6.68-3.76c-.38-3.05,2.64-5.58,2.84-8.65.29-4.57-4.3-5.23-3.85-9.79.35-3.54,5.07-6,6-11.19.61-3.23.69-7.55-1.5-10-1.38-1.55-3.3-2.48-5.06-3.57-3.79-2.32-8.2-10.55-1.53-11.46C96.35,97.62,100.47,106.49,101,111.82Z"/><path class="cls-35" d="M98.87,120.14A4.29,4.29,0,0,1,96,122.83a1.94,1.94,0,0,1-2.23-1.2,2.56,2.56,0,0,1,.41-1.78,7.66,7.66,0,0,1,3.25-3.15C99.71,115.69,99.5,118.71,98.87,120.14Z"/><path class="cls-35" d="M72.72,120.73a4.25,4.25,0,0,0,2.7,2.9,1.93,1.93,0,0,0,2.31-1,2.52,2.52,0,0,0-.26-1.81,7.78,7.78,0,0,0-3-3.39C72.21,116.23,72.19,119.25,72.72,120.73Z"/><polygon class="cls-37" points="103.73 181.19 68.3 181.19 66.48 153.64 105.54 153.64 103.73 181.19"/><path class="cls-38" d="M56.44,178.85h0a7,7,0,0,0,4.19,9L94,199l4.54-13.6L65.17,174.21A7,7,0,0,0,56.44,178.85Z"/><path class="cls-31" d="M54.21,190.76c1.11-1.75,3.3-2.45,5.35-2.8,4.27-.75,8.63,1.32,12.92.66l2.46-.39L76,195.09a5.35,5.35,0,0,0-2.67.92,22.36,22.36,0,0,1-11.24,5.51c-2.21.38-4.73.34-6.37-1.2a7.5,7.5,0,0,1-1.92-3.95C53.37,194.49,53.18,192.39,54.21,190.76Z"/><path class="cls-32" d="M56.64,190.38c1.11-1.75,3.31-2.44,5.35-2.8,4.27-.74,8.64,1.32,12.92.66l2.47-.38,1.05,6.85a5.29,5.29,0,0,0-2.66.93,22.44,22.44,0,0,1-11.24,5.51c-2.21.38-4.74.33-6.38-1.2A7.58,7.58,0,0,1,56.23,196C55.8,194.12,55.61,192,56.64,190.38Z"/><path class="cls-39" d="M111,178.85h0a7,7,0,0,1-4.19,9L73.46,199l-4.54-13.6,33.35-11.14A7,7,0,0,1,111,178.85Z"/><circle class="cls-21" cx="311.94" cy="162.16" r="39.03"/><circle class="cls-22" cx="311.94" cy="162.16" r="31.84" transform="translate(-29.19 77.12) rotate(-13.47)"/><path class="cls-28" d="M311.94,134.22a31.83,31.83,0,0,0-31.79,30q-.06-.88-.06-1.8a31.85,31.85,0,0,1,63.69,0c0,.61,0,1.21,0,1.8A31.84,31.84,0,0,0,311.94,134.22Z"/><ellipse class="cls-22" cx="311.94" cy="164.26" rx="31.79" ry="30.04"/><text class="cls-40" transform="translate(298.59 179.67) scale(0.99 1)">$</text><text class="cls-41" transform="translate(296.8 178.05) scale(0.99 1)">$</text><path class="cls-42" d="M360.94,291.64s2.42,2,.92,6.52H341.65s-1-4.74,12.05-6.52Z"/><path class="cls-43" d="M376,199.58s4.55,15.77-2.73,26.69l-1.75,3a14,14,0,0,0-1.47,10.31l12.28,52-7.21.18s-27.33-42.48-27.94-53.71,6.68-36.39,6.68-36.39Z"/><path class="cls-44" d="M345.35,202s-6.57,31.21-7,40.59,15.35,49,15.35,49h7.24s-3.55-50.3-1-56.27,17-27.56,14-38.52S345.35,202,345.35,202Z"/><path class="cls-35" d="M332,191.06l.26-.08c1.12-.35,2.19-.83,3.27-1.28a8.67,8.67,0,0,0,3.55-2.11c.68-.84.2-2-.4-2.71-.86-1-1.88-1.18-3.14-1.44a8,8,0,0,1-2.22-.8c-1.15-.67-2.21-1.48-3.39-2.11a2,2,0,0,0-1.15-.32c-1.07.14-.46,1.1,0,1.6.3.34,2,1.59,1.65,2-.6.61-2-.13-2.59-.36a14.69,14.69,0,0,1-3.1-1.54c-1.1-.73-2.65-2.4-4.08-1.45a2.34,2.34,0,0,0-.87,1.45,8.38,8.38,0,0,0,1.55,6.28,6.24,6.24,0,0,0,2.86,2.34A12,12,0,0,0,332,191.06Z"/><path class="cls-45" d="M369,143.92s3.89,2.08,4.29,5.71,2.79,50,2.79,50-12.07,7.77-31,4.14c0,0,6.26-43.19,8.68-49.05s5.85-7.66,5.85-7.66Z"/><path class="cls-46" d="M360.42,138.37l-1.71,10.45s7,.43,10.24-4.9l.64-10.24Z"/><path class="cls-35" d="M353.77,133.75a43.38,43.38,0,0,1,.76-5.67q.66-3.75,1.34-7.5c.26-1.46.18-4.59,1.11-5.73,2.17-2.7,8.67-2.11,11.46-1.16a6.74,6.74,0,0,1,2.49,1.37c1.71,1.61,1.88,4.23,1.92,6.58l1.25,3.24a1.66,1.66,0,0,0-.41,1.12c-.38,3.95,0,8.44-2.68,11.32-1.8,1.91-4.54,2.57-7.14,2.94a14.38,14.38,0,0,1-5.47,0,6,6,0,0,1-4.21-3.24A7.56,7.56,0,0,1,353.77,133.75Z"/><path class="cls-36" d="M360.47,109.1c-2.16-.63-4.19-1.72-6.41-2.1a3.64,3.64,0,0,0-3.25.67,4.22,4.22,0,0,0-.91,2c-.87,3.4-1.42,7.3.58,10.19a6.9,6.9,0,0,0,7.64,2.55c1.79-.61,3.25-1.93,4.93-2.81s3.93-1.21,5.33.06,1.41,3.52,2.89,4.59a3.33,3.33,0,0,0,3.11.28,6.38,6.38,0,0,0,2.56-2,12.46,12.46,0,0,0,3-7.63,8.12,8.12,0,0,0-1.75-5.6,7.54,7.54,0,0,0-5.41-2.36C368.15,106.84,365.13,110.45,360.47,109.1Z"/><path class="cls-35" d="M374.78,120.86c4-.15,1.61,7.27-.41,8.47a1.94,1.94,0,0,1-.66.28,1.49,1.49,0,0,1-1.1-.32C370.07,127.49,371.31,121,374.78,120.86Z"/><path class="cls-45" d="M368.54,148.56c-2.39,3-3.89,6.56-5.53,10a124.67,124.67,0,0,1-11.13,19,10.67,10.67,0,0,1-2.28,2.55,11.26,11.26,0,0,1-5.45,1.61l-9.69,1.13v7.57c9.4.72,19.17.13,28.11-2.85a12,12,0,0,0,4.13-2.06,11.6,11.6,0,0,0,3.08-5.13A43.68,43.68,0,0,0,368.54,148.56Z"/><path class="cls-47" d="M368.54,148.56s-6.47,16.71-12.53,26.6L349.24,180S356.37,172.07,368.54,148.56Z"/><path class="cls-42" d="M382.4,291.64s2.41,2,.92,6.52H363.11s-1-4.74,12-6.52Z"/></g></g></g></svg>