<svg xmlns="http://www.w3.org/2000/svg" xmlns:xlink="http://www.w3.org/1999/xlink" viewBox="0 0 312.83 251.19"><defs><style>.cls-1{fill:none;}.cls-2{fill:#423f63;}.cls-3{fill:#d1e7d9;}.cls-4{clip-path:url(#clip-path);}.cls-5{fill:#67b292;}.cls-6{fill:#68b393;}.cls-7{fill:#69b494;}.cls-8{fill:#6ab595;}.cls-9{fill:#6ab696;}.cls-10{fill:#6bb797;}.cls-11{fill:#6cb898;}.cls-12{fill:#6db999;}.cls-13{fill:#6eba9a;}.cls-14{fill:#6fbb9b;}.cls-15{fill:#70bc9c;}.cls-16{fill:#71bd9e;}.cls-17{fill:#71be9f;}.cls-18{fill:#72bfa0;}.cls-19{fill:#73c0a1;}.cls-20{fill:#74c1a2;}.cls-21{fill:#75c2a3;}.cls-22{fill:#76c3a4;}.cls-23{fill:#77c4a5;}.cls-24{fill:#77c5a6;}.cls-25{fill:#78c6a7;}.cls-26{fill:#79c7a8;}.cls-27{fill:#7ac8a9;}.cls-28{clip-path:url(#clip-path-2);}.cls-29{fill:#60bec8;}.cls-30{fill:#61bfc9;}.cls-31{fill:#62c0ca;}.cls-32{fill:#63c1ca;}.cls-33{fill:#64c2cb;}.cls-34{fill:#65c3cc;}.cls-35{fill:#66c4cd;}.cls-36{fill:#67c5ce;}.cls-37{fill:#68c6ce;}.cls-38{fill:#69c7cf;}.cls-39{fill:#6ac8d0;}.cls-40{fill:#6bc9d1;}.cls-41{fill:#6dcbd2;}.cls-42{fill:#6eccd2;}.cls-43{fill:#6fcdd3;}.cls-44{fill:#70ced4;}.cls-45{fill:#71cfd5;}.cls-46{fill:#72d0d5;}.cls-47{fill:#73d1d6;}.cls-48{fill:#74d2d7;}.cls-49{fill:#75d3d8;}.cls-50{fill:#76d4d9;}.cls-51{fill:#77d5d9;}.cls-52{fill:#78d6da;}.cls-53{fill:#79d7db;}.cls-54{fill:#f9f9f9;}.cls-55{clip-path:url(#clip-path-3);}.cls-56{clip-path:url(#clip-path-4);}.cls-57{clip-path:url(#clip-path-5);}.cls-58{clip-path:url(#clip-path-6);}.cls-59{clip-path:url(#clip-path-7);}.cls-60{clip-path:url(#clip-path-8);}.cls-61{fill:#423a64;}.cls-62{fill:#b3b6cf;}.cls-63{fill:#a61f48;}.cls-64{opacity:0.45;}.cls-64,.cls-69{isolation:isolate;}.cls-65{clip-path:url(#clip-path-9);}.cls-66{fill:#d37a57;}.cls-67{clip-path:url(#clip-path-10);}.cls-68{clip-path:url(#clip-path-11);}.cls-69{opacity:0.3;}.cls-70{clip-path:url(#clip-path-12);}.cls-71{fill:#ea9081;}.cls-72{clip-path:url(#clip-path-13);}.cls-73{clip-path:url(#clip-path-14);}.cls-74{fill:#fcffff;}</style><clipPath id="clip-path"><path class="cls-1" d="M68.49,201.6C56.24,172.18,50.86,151.77,55.94,129S89,92.37,90.64,115.51,83,168.28,100.82,196.25Z"/></clipPath><clipPath id="clip-path-2"><path class="cls-1" d="M50.93,233.64c-2-16.84-11.45-37.25-24.57-45.9s-16.95-25.42-4.61-31.89,38.69,23.93,44.59,50.4,4.58,28.05,4.58,28.05Z"/></clipPath><clipPath id="clip-path-3"><path class="cls-1" d="M91.33,177.8c-2.78-13.82-.57-26.11,6.1-35.12,7-9.41,13.5-4.94,11.46.93-1.67,4.85-5.15,7.63-3,24.75s9.42,25,9.42,25l-14.51,2.92S93.79,190,91.33,177.8Z"/></clipPath><clipPath id="clip-path-4"><path class="cls-1" d="M202.29,136.53c-1.39-21,3.54-52.75,31.14-63.3s34,.23,19.37,19.45-22.43,30-15.4,51.08Z"/></clipPath><clipPath id="clip-path-5"><path class="cls-1" d="M185.71,138.23a62.62,62.62,0,0,1,6-36.28c3.46-7,11.49-10.62,13.74-2.92s-4.07,20.18-3.17,37.49Z"/></clipPath><clipPath id="clip-path-6"><path class="cls-1" d="M232.58,142.77c-1.24-12.4,1.16-33.38,18.21-29.7s8.5,39.46-6.75,55.73Z"/></clipPath><clipPath id="clip-path-7"><path class="cls-1" d="M224.05,190.55c10.2-11.34,24.85-26,28.75-38.84s12.42-29.24,28.35-16.49-12.9,63.95-38.7,77.86Z"/></clipPath><clipPath id="clip-path-8"><path class="cls-1" d="M237.79,211.05c14.81-17.84,29.34-31.05,49-30.26s22.22,16.16,0,26S260.18,217,241.33,241.35Z"/></clipPath><clipPath id="clip-path-9"><path class="cls-1" d="M178.45,115s-.07,12.16-1.5,25.5l8.77-2.25A115.93,115.93,0,0,0,178.45,115Z"/></clipPath><clipPath id="clip-path-10"><path class="cls-1" d="M164.12,146.58,161,145.47l-33.85,13.11S117.3,137,117.08,137s-1.91.85-4.26,2c-.45,12.62,2.25,24.87,5.67,32.34l34-3C162,159.83,164.12,146.58,164.12,146.58Z"/></clipPath><clipPath id="clip-path-11"><path class="cls-1" d="M217.44,173.88c-21-5.88-29.55-22.44-33.05-36.23h0a32,32,0,0,0-7.5,2.82l-1.5,13.94s8,14.3,22.43,18.05A60.53,60.53,0,0,0,217.44,173.88Z"/></clipPath><clipPath id="clip-path-12"><path class="cls-1" d="M182,166.05s4.49,20.42,7.75,36.08c1.33,6.33,1.17,14.16.5,21.22a40.06,40.06,0,0,0,18.61-6.52c3.49-9,5.87-18.74,4.3-26.48C209.15,170.52,182,166.05,182,166.05Z"/></clipPath><clipPath id="clip-path-13"><path class="cls-1" d="M162.36,88.2a12.72,12.72,0,0,1,.29-3.31A34.3,34.3,0,0,1,156.88,83S159,87.12,162.36,88.2Z"/></clipPath><clipPath id="clip-path-14"><path class="cls-1" d="M140.79,123.72s1.36,21-2.47,30.88S124.9,152,124.9,152Z"/></clipPath></defs><title>Asset 1</title><g id="Layer_2" data-name="Layer 2"><g id="Layer_1-2" data-name="Layer 1"><g id="Layer_2-2" data-name="Layer 2"><g id="OBJECTS"><path class="cls-2" d="M265.82,227.83a.33.33,0,0,1-.23-.09.36.36,0,0,1,0-.51c7.8-9.08,21.32-8.59,21.45-8.58a.36.36,0,0,1,.35.37.37.37,0,0,1-.38.35c-.13,0-13.3-.48-20.88,8.33A.37.37,0,0,1,265.82,227.83Z"/><path class="cls-3" d="M284.07,243.14c-10.65-4.29-13.35-13.77-19.45-21.29s-28.73-3-37.2,5.61c-11.56,11.79-12.12,23.73-12.12,23.73h77.54C291.63,248.39,289.15,245.19,284.07,243.14Z"/><g class="cls-4"><polygon class="cls-5" points="93.28 201.6 100.82 200.59 100.82 201.6 93.28 201.6"/><polygon class="cls-5" points="71.08 201.6 100.82 197.62 100.82 200.59 93.28 201.6 71.08 201.6"/><polygon class="cls-6" points="56.01 201.6 55.89 200.66 100.82 194.65 100.82 197.62 71.08 201.6 56.01 201.6"/><polygon class="cls-7" points="55.89 200.66 55.5 197.74 100.82 191.68 100.82 194.65 55.89 200.66"/><polygon class="cls-8" points="55.5 197.74 55.11 194.82 100.82 188.71 100.82 191.68 55.5 197.74"/><polygon class="cls-9" points="55.11 194.82 54.72 191.91 100.82 185.74 100.82 188.71 55.11 194.82"/><polygon class="cls-10" points="54.72 191.91 54.33 188.99 100.82 182.77 100.82 185.74 54.72 191.91"/><polygon class="cls-11" points="54.33 188.99 53.94 186.07 100.82 179.8 100.82 182.77 54.33 188.99"/><polygon class="cls-12" points="53.94 186.07 53.55 183.16 100.82 176.83 100.82 179.8 53.94 186.07"/><polygon class="cls-13" points="53.55 183.16 53.16 180.24 100.82 173.86 100.82 176.83 53.55 183.16"/><polygon class="cls-14" points="53.16 180.24 52.76 177.32 100.82 170.89 100.82 173.86 53.16 180.24"/><polygon class="cls-15" points="52.76 177.32 52.37 174.4 100.62 167.95 100.82 169.46 100.82 170.89 52.76 177.32"/><rect class="cls-16" x="51.96" y="168.25" width="48.67" height="2.94" transform="translate(-21.83 11.61) rotate(-7.62)"/><rect class="cls-17" x="51.57" y="165.33" width="48.67" height="2.94" transform="translate(-21.44 11.54) rotate(-7.62)"/><rect class="cls-18" x="51.18" y="162.41" width="48.67" height="2.94" transform="translate(-21.06 11.46) rotate(-7.62)"/><polygon class="cls-19" points="51.2 165.65 50.86 163.08 50.86 162.73 99.06 156.28 99.45 159.2 51.2 165.65"/><polygon class="cls-20" points="50.86 159.76 98.67 153.36 99.06 156.28 50.86 162.73 50.86 159.76"/><polygon class="cls-21" points="50.86 156.79 98.28 150.44 98.67 153.36 50.86 159.76 50.86 156.79"/><polygon class="cls-22" points="50.86 153.82 97.89 147.53 98.28 150.44 50.86 156.79 50.86 153.82"/><polygon class="cls-23" points="50.86 150.85 97.5 144.61 97.89 147.53 50.86 153.82 50.86 150.85"/><polygon class="cls-24" points="50.86 147.88 97.11 141.69 97.5 144.61 50.86 150.85 50.86 147.88"/><polygon class="cls-25" points="50.86 144.91 96.72 138.78 97.11 141.69 50.86 147.88 50.86 144.91"/><polygon class="cls-26" points="50.86 141.94 96.33 135.86 96.72 138.78 50.86 144.91 50.86 141.94"/><polygon class="cls-27" points="50.86 138.97 95.94 132.94 96.33 135.86 50.86 141.94 50.86 138.97"/><polygon class="cls-27" points="90.51 92.36 95.94 132.94 50.86 138.97 50.86 92.36 90.51 92.36"/></g><g class="cls-28"><polygon class="cls-29" points="68.32 234.3 72.24 232.68 72.24 234.3 68.32 234.3"/><polygon class="cls-29" points="61.09 234.3 72.24 229.7 72.24 232.68 68.32 234.3 61.09 234.3"/><polygon class="cls-30" points="53.87 234.3 72.24 226.71 72.24 229.7 61.09 234.3 53.87 234.3"/><polygon class="cls-31" points="46.65 234.3 72.24 223.73 72.24 226.71 53.87 234.3 46.65 234.3"/><polygon class="cls-32" points="39.43 234.3 72.24 220.75 72.24 223.73 46.65 234.3 39.43 234.3"/><polygon class="cls-33" points="34.43 234.3 34.1 233.52 72.24 217.76 72.24 220.75 39.43 234.3 34.43 234.3"/><polygon class="cls-34" points="34.1 233.52 33.05 230.97 72.24 214.78 72.24 217.76 34.1 233.52"/><polygon class="cls-35" points="33.05 230.97 32 228.42 72.24 211.79 72.24 214.78 33.05 230.97"/><polygon class="cls-36" points="32 228.42 30.94 225.87 72.24 208.81 72.24 211.79 32 228.42"/><polygon class="cls-37" points="30.94 225.87 29.89 223.32 72.24 205.82 72.24 208.81 30.94 225.87"/><polygon class="cls-38" points="29.89 223.32 28.84 220.77 71.68 203.07 72.24 204.41 72.24 205.82 29.89 223.32"/><rect class="cls-39" x="26.55" y="209.27" width="46.36" height="2.76" transform="translate(-76.68 34.96) rotate(-22.45)"/><rect class="cls-40" x="25.5" y="206.72" width="46.36" height="2.76" transform="translate(-75.78 34.36) rotate(-22.45)"/><rect class="cls-41" x="24.44" y="204.17" width="46.36" height="2.76" transform="translate(-74.89 33.77) rotate(-22.45)"/><rect class="cls-42" x="23.39" y="201.62" width="46.36" height="2.76" transform="translate(-74 33.17) rotate(-22.45)"/><rect class="cls-43" x="22.34" y="199.07" width="46.36" height="2.76" transform="translate(-73.1 32.58) rotate(-22.45)"/><rect class="cls-44" x="21.28" y="196.52" width="46.36" height="2.76" transform="translate(-72.21 31.98) rotate(-22.45)"/><rect class="cls-45" x="20.23" y="193.97" width="46.36" height="2.76" transform="translate(-71.32 31.39) rotate(-22.45)"/><rect class="cls-46" x="19.18" y="191.42" width="46.36" height="2.76" transform="translate(-70.42 30.79) rotate(-22.45)"/><rect class="cls-47" x="18.13" y="188.88" width="46.36" height="2.76" transform="translate(-69.53 30.2) rotate(-22.45)"/><rect class="cls-48" x="17.07" y="186.33" width="46.36" height="2.76" transform="translate(-68.63 29.6) rotate(-22.45)"/><rect class="cls-49" x="16.02" y="183.78" width="46.36" height="2.76" transform="translate(-67.74 29) rotate(-22.45)"/><rect class="cls-50" x="14.97" y="181.23" width="46.36" height="2.76" transform="translate(-66.85 28.41) rotate(-22.45)"/><rect class="cls-51" x="13.91" y="178.68" width="46.36" height="2.76" transform="translate(-65.95 27.81) rotate(-22.45)"/><rect class="cls-52" x="12.86" y="176.13" width="46.36" height="2.76" transform="translate(-65.06 27.22) rotate(-22.45)"/><rect class="cls-53" x="11.81" y="173.58" width="46.36" height="2.76" transform="translate(-64.17 26.62) rotate(-22.45)"/><polygon class="cls-53" points="13.04 182.54 9.41 173.77 9.41 149.38 49.5 149.38 55.88 164.83 13.04 182.54"/></g><path class="cls-54" d="M60.88,234.3a.36.36,0,0,1-.36-.31c-6.1-47.24-34.18-64.29-34.46-64.45a.36.36,0,1,1,.37-.62c.28.17,28.65,17.37,34.8,65a.36.36,0,0,1-.31.4Z"/><path class="cls-54" d="M84,199.4a.35.35,0,0,1-.32-.2c-20.67-40.72-9-77.32-8.92-77.69a.37.37,0,0,1,.46-.23.37.37,0,0,1,.23.46c-.12.36-11.66,36.69,8.87,77.14a.36.36,0,0,1-.16.48A.32.32,0,0,1,84,199.4Z"/><g class="cls-55"><polygon class="cls-29" points="90.05 196.26 89.91 194.77 115.32 192.39 115.32 196.26 90.05 196.26"/><polygon class="cls-29" points="89.91 194.77 89.78 193.38 115.32 190.99 115.32 192.39 89.91 194.77"/><polygon class="cls-30" points="89.78 193.38 89.66 191.99 115.32 189.59 115.32 190.99 89.78 193.38"/><polygon class="cls-31" points="89.66 191.99 89.53 190.6 115.32 188.19 115.32 189.59 89.66 191.99"/><polygon class="cls-32" points="89.53 190.6 89.4 189.22 115.32 186.8 115.32 188.19 89.53 190.6"/><polygon class="cls-33" points="89.4 189.22 89.27 187.83 115.32 185.4 115.32 186.8 89.4 189.22"/><polygon class="cls-34" points="89.27 187.83 89.14 186.44 115.32 184 115.32 185.4 89.27 187.83"/><polygon class="cls-35" points="89.14 186.44 89.01 185.06 115.32 182.6 115.32 184 89.14 186.44"/><polygon class="cls-36" points="89.01 185.06 88.88 183.67 115.32 181.2 115.32 182.6 89.01 185.06"/><polygon class="cls-37" points="88.88 183.67 88.75 182.28 115.32 179.8 115.32 181.2 88.88 183.67"/><polygon class="cls-38" points="88.75 182.28 88.62 180.89 115.32 178.4 115.32 179.8 88.75 182.28"/><polygon class="cls-39" points="88.62 180.89 88.55 180.11 88.55 179.5 115.32 177 115.32 178.4 88.62 180.89"/><polygon class="cls-40" points="88.55 178.1 115.32 175.6 115.32 177 88.55 179.5 88.55 178.1"/><polygon class="cls-41" points="88.55 176.7 115.32 174.2 115.32 175.6 88.55 178.1 88.55 176.7"/><polygon class="cls-42" points="88.55 175.3 115.32 172.8 115.32 174.2 88.55 176.7 88.55 175.3"/><polygon class="cls-43" points="88.55 173.9 115.32 171.4 115.32 172.8 88.55 175.3 88.55 173.9"/><polygon class="cls-44" points="88.55 172.5 115.32 170 115.32 171.4 88.55 173.9 88.55 172.5"/><polygon class="cls-45" points="88.55 171.1 115.31 168.6 115.32 168.67 115.32 170 88.55 172.5 88.55 171.1"/><polygon class="cls-46" points="88.55 169.7 115.19 167.22 115.31 168.6 88.55 171.1 88.55 169.7"/><polygon class="cls-47" points="88.55 168.3 115.06 165.83 115.19 167.22 88.55 169.7 88.55 168.3"/><polygon class="cls-48" points="88.55 166.9 114.93 164.44 115.06 165.83 88.55 168.3 88.55 166.9"/><polygon class="cls-49" points="88.55 165.5 114.8 163.05 114.93 164.44 88.55 166.9 88.55 165.5"/><polygon class="cls-50" points="88.55 164.1 114.67 161.66 114.8 163.05 88.55 165.5 88.55 164.1"/><polygon class="cls-51" points="88.55 162.71 114.54 160.28 114.67 161.66 88.55 164.1 88.55 162.71"/><polygon class="cls-52" points="88.55 161.31 114.41 158.89 114.54 160.28 88.55 162.71 88.55 161.31"/><polygon class="cls-53" points="88.55 159.91 114.28 157.5 114.41 158.89 88.55 161.31 88.55 159.91"/><polygon class="cls-53" points="112.02 133.27 114.28 157.5 88.55 159.91 88.55 133.27 112.02 133.27"/></g><g class="cls-56"><polygon class="cls-5" points="200.9 134.54 230.5 143.76 200.9 143.76 200.9 134.54"/><polygon class="cls-5" points="200.9 132.16 238.16 143.76 230.5 143.76 200.9 134.54 200.9 132.16"/><polygon class="cls-6" points="200.9 129.78 245.81 143.76 238.16 143.76 200.9 132.16 200.9 129.78"/><polygon class="cls-7" points="200.9 127.39 247.71 141.97 247.15 143.76 245.81 143.76 200.9 129.78 200.9 127.39"/><polygon class="cls-8" points="200.9 125.01 248.38 139.8 247.71 141.97 200.9 127.39 200.9 125.01"/><polygon class="cls-9" points="200.9 122.63 249.06 137.63 248.38 139.8 200.9 125.01 200.9 122.63"/><polygon class="cls-10" points="200.9 120.25 249.74 135.46 249.06 137.63 200.9 122.63 200.9 120.25"/><polygon class="cls-11" points="200.9 117.86 250.41 133.28 249.74 135.46 200.9 120.25 200.9 117.86"/><polygon class="cls-12" points="200.9 115.48 251.09 131.11 250.41 133.28 200.9 117.86 200.9 115.48"/><polygon class="cls-13" points="200.9 113.1 251.76 128.94 251.09 131.11 200.9 115.48 200.9 113.1"/><polygon class="cls-14" points="200.9 110.72 252.44 126.77 251.76 128.94 200.9 113.1 200.9 110.72"/><polygon class="cls-15" points="200.9 108.33 253.12 124.6 252.44 126.77 200.9 110.72 200.9 108.33"/><polygon class="cls-16" points="200.9 105.95 253.79 122.42 253.12 124.6 200.9 108.33 200.9 105.95"/><polygon class="cls-17" points="200.9 103.57 254.47 120.25 253.79 122.42 200.9 105.95 200.9 103.57"/><polygon class="cls-18" points="200.9 101.18 255.15 118.08 254.47 120.25 200.9 103.57 200.9 101.18"/><polygon class="cls-19" points="200.9 98.8 255.82 115.91 255.15 118.08 200.9 101.18 200.9 98.8"/><polygon class="cls-20" points="200.9 96.42 256.5 113.73 255.82 115.91 200.9 98.8 200.9 96.42"/><polygon class="cls-21" points="200.9 94.58 201.05 94.08 257.18 111.56 256.5 113.73 200.9 96.42 200.9 94.58"/><rect class="cls-22" x="228.31" y="72.34" width="2.28" height="58.78" transform="translate(64.09 290.56) rotate(-72.7)"/><rect class="cls-23" x="228.99" y="70.17" width="2.28" height="58.78" transform="translate(66.64 289.68) rotate(-72.7)"/><rect class="cls-24" x="229.67" y="68" width="2.28" height="58.78" transform="translate(69.19 288.8) rotate(-72.7)"/><rect class="cls-25" x="230.34" y="65.83" width="2.28" height="58.78" transform="translate(71.74 287.92) rotate(-72.7)"/><rect class="cls-26" x="231.02" y="63.66" width="2.28" height="58.78" transform="translate(74.29 287.04) rotate(-72.7)"/><rect class="cls-27" x="231.7" y="61.48" width="2.28" height="58.78" transform="translate(76.84 286.16) rotate(-72.7)"/><polygon class="cls-27" points="205.11 81.05 210.83 62.68 267.47 62.68 267.47 78.51 261.24 98.53 205.11 81.05"/></g><path class="cls-54" d="M218.23,140.17h0a.36.36,0,0,1-.34-.38c2-33.82,13.2-48.74,30.68-61.84a.36.36,0,0,1,.44.58c-17.32,13-28.45,27.76-30.4,61.3A.35.35,0,0,1,218.23,140.17Z"/><g class="cls-57"><polygon class="cls-29" points="183.4 130.3 205.78 133.2 205.13 138.23 183.4 138.23 183.4 130.3"/><polygon class="cls-29" points="183.4 129.26 205.91 132.18 205.78 133.2 183.4 130.3 183.4 129.26"/><polygon class="cls-30" points="183.4 128.23 206.05 131.16 205.91 132.18 183.4 129.26 183.4 128.23"/><polygon class="cls-31" points="183.4 127.19 206.18 130.14 206.05 131.16 183.4 128.23 183.4 127.19"/><polygon class="cls-32" points="183.4 126.16 206.31 129.13 206.18 130.14 183.4 127.19 183.4 126.16"/><polygon class="cls-33" points="183.4 125.13 206.44 128.11 206.31 129.13 183.4 126.16 183.4 125.13"/><polygon class="cls-34" points="183.4 124.09 206.57 127.09 206.44 128.11 183.4 125.13 183.4 124.09"/><polygon class="cls-35" points="183.4 123.06 206.71 126.08 206.57 127.09 183.4 124.09 183.4 123.06"/><polygon class="cls-36" points="183.4 122.02 206.84 125.06 206.71 126.08 183.4 123.06 183.4 122.02"/><polygon class="cls-37" points="183.4 120.99 206.97 124.04 206.84 125.06 183.4 122.02 183.4 120.99"/><polygon class="cls-38" points="183.4 119.95 207.1 123.02 206.97 124.04 183.4 120.99 183.4 119.95"/><polygon class="cls-39" points="183.4 118.92 207.23 122 207.1 123.02 183.4 119.95 183.4 118.92"/><polygon class="cls-40" points="183.4 117.89 207.36 120.99 207.23 122 183.4 118.92 183.4 117.89"/><polygon class="cls-41" points="183.4 116.85 207.5 119.97 207.36 120.99 183.4 117.89 183.4 116.85"/><polygon class="cls-42" points="183.4 115.82 207.63 118.95 207.5 119.97 183.4 116.85 183.4 115.82"/><polygon class="cls-43" points="183.4 114.78 207.7 117.93 207.7 118.42 207.63 118.95 183.4 115.82 183.4 114.78"/><polygon class="cls-44" points="183.4 113.75 207.7 116.89 207.7 117.93 183.4 114.78 183.4 113.75"/><polygon class="cls-45" points="183.4 112.71 207.7 115.86 207.7 116.89 183.4 113.75 183.4 112.71"/><polygon class="cls-46" points="183.4 111.68 207.7 114.83 207.7 115.86 183.4 112.71 183.4 111.68"/><polygon class="cls-47" points="183.4 110.64 207.7 113.79 207.7 114.83 183.4 111.68 183.4 110.64"/><polygon class="cls-48" points="183.4 110.54 183.51 109.63 207.7 112.76 207.7 113.79 183.4 110.64 183.4 110.54"/><polygon class="cls-49" points="183.51 109.63 183.65 108.61 207.7 111.72 207.7 112.76 183.51 109.63"/><polygon class="cls-50" points="183.65 108.61 183.78 107.59 207.7 110.69 207.7 111.72 183.65 108.61"/><polygon class="cls-51" points="183.78 107.59 183.91 106.57 207.7 109.65 207.7 110.69 183.78 107.59"/><polygon class="cls-52" points="183.91 106.57 184.04 105.56 207.7 108.62 207.7 109.65 183.91 106.57"/><polygon class="cls-53" points="184.04 105.56 184.17 104.54 207.7 107.58 207.7 108.62 184.04 105.56"/><polygon class="cls-53" points="184.17 104.54 185.88 91.33 207.7 91.33 207.7 107.58 184.17 104.54"/></g><g class="cls-58"><polygon class="cls-29" points="231.34 157.08 258.85 163.3 257.61 168.8 231.34 168.8 231.34 157.08"/><polygon class="cls-29" points="231.34 156.02 259.08 162.29 258.85 163.3 231.34 157.08 231.34 156.02"/><polygon class="cls-30" points="231.34 154.96 259.31 161.29 259.08 162.29 231.34 156.02 231.34 154.96"/><polygon class="cls-31" points="231.34 153.91 259.53 160.28 259.31 161.29 231.34 154.96 231.34 153.91"/><polygon class="cls-32" points="231.34 152.85 259.76 159.28 259.53 160.28 231.34 153.91 231.34 152.85"/><polygon class="cls-33" points="231.34 151.79 259.99 158.27 259.76 159.28 231.34 152.85 231.34 151.79"/><polygon class="cls-34" points="231.34 150.74 260.22 157.27 259.99 158.27 231.34 151.79 231.34 150.74"/><polygon class="cls-35" points="231.34 149.68 260.44 156.26 260.22 157.27 231.34 150.74 231.34 149.68"/><polygon class="cls-36" points="231.34 148.62 260.67 155.26 260.44 156.26 231.34 149.68 231.34 148.62"/><polygon class="cls-37" points="231.34 147.57 260.9 154.25 260.67 155.26 231.34 148.62 231.34 147.57"/><polygon class="cls-38" points="231.34 146.51 261.13 153.25 260.9 154.25 231.34 147.57 231.34 146.51"/><polygon class="cls-39" points="231.34 145.45 261.35 152.24 261.13 153.25 231.34 146.51 231.34 145.45"/><polygon class="cls-40" points="231.34 144.4 261.58 151.24 261.35 152.24 231.34 145.45 231.34 144.4"/><polygon class="cls-41" points="231.34 143.34 261.81 150.23 261.58 151.24 231.34 144.4 231.34 143.34"/><polygon class="cls-42" points="231.34 142.28 262.04 149.22 261.81 150.23 231.34 143.34 231.34 142.28"/><polygon class="cls-43" points="231.34 141.23 262.26 148.22 262.04 149.22 231.34 142.28 231.34 141.23"/><polygon class="cls-44" points="231.34 140.17 262.49 147.21 262.26 148.22 231.34 141.23 231.34 140.17"/><polygon class="cls-45" points="231.34 139.11 262.72 146.21 262.49 147.21 231.34 140.17 231.34 139.11"/><polygon class="cls-46" points="231.34 138.06 262.94 145.2 262.72 146.21 231.34 139.11 231.34 138.06"/><polygon class="cls-47" points="231.34 137 263.17 144.2 262.94 145.2 231.34 138.06 231.34 137"/><polygon class="cls-48" points="231.34 135.94 263.4 143.19 263.17 144.2 231.34 137 231.34 135.94"/><polygon class="cls-49" points="231.34 134.89 263.63 142.19 263.4 143.19 231.34 135.94 231.34 134.89"/><polygon class="cls-50" points="231.34 133.83 263.85 141.18 263.63 142.19 231.34 134.89 231.34 133.83"/><polygon class="cls-51" points="231.34 132.77 264.08 140.18 263.85 141.18 231.34 133.83 231.34 132.77"/><polygon class="cls-52" points="231.34 131.72 264.31 139.17 264.08 140.18 231.34 132.77 231.34 131.72"/><polygon class="cls-53" points="231.34 130.66 264.54 138.17 264.31 139.17 231.34 131.72 231.34 130.66"/><polygon class="cls-53" points="231.34 113.2 232.2 109.39 267.84 109.39 267.84 123.56 264.54 138.17 231.34 130.66 231.34 113.2"/></g><path class="cls-3" d="M88,188.64c-2.1-14.66,15.39-40.7,45.47-41.29S186.3,115.76,225.28,130,238,188.64,238,188.64Z"/><g class="cls-59"><polygon class="cls-5" points="224.05 194.99 248.97 213.08 224.05 213.08 224.05 194.99"/><polygon class="cls-5" points="224.05 191.87 253.27 213.08 248.97 213.08 224.05 194.99 224.05 191.87"/><polygon class="cls-6" points="224.05 188.75 257.56 213.08 253.27 213.08 224.05 191.87 224.05 188.75"/><polygon class="cls-7" points="224.05 185.63 260.64 212.2 260 213.08 257.56 213.08 224.05 188.75 224.05 185.63"/><polygon class="cls-8" points="224.05 182.51 262.13 210.16 260.64 212.2 224.05 185.63 224.05 182.51"/><polygon class="cls-9" points="224.05 179.39 263.61 208.12 262.13 210.16 224.05 182.51 224.05 179.39"/><polygon class="cls-10" points="224.05 176.61 224.21 176.39 265.09 206.08 263.61 208.12 224.05 179.39 224.05 176.61"/><rect class="cls-11" x="244.13" y="164.95" width="2.52" height="50.52" transform="translate(-52.71 277) rotate(-54.01)"/><rect class="cls-12" x="245.61" y="162.91" width="2.52" height="50.52" transform="translate(-50.45 277.36) rotate(-54.01)"/><rect class="cls-13" x="247.1" y="160.87" width="2.52" height="50.52" transform="translate(-48.18 277.71) rotate(-54.01)"/><rect class="cls-14" x="248.58" y="158.82" width="2.52" height="50.52" transform="translate(-45.92 278.07) rotate(-54.01)"/><rect class="cls-15" x="250.06" y="156.78" width="2.52" height="50.52" transform="translate(-43.66 278.43) rotate(-54.01)"/><rect class="cls-16" x="251.55" y="154.74" width="2.52" height="50.52" transform="translate(-41.39 278.79) rotate(-54.01)"/><rect class="cls-17" x="253.03" y="152.7" width="2.52" height="50.52" transform="translate(-39.13 279.15) rotate(-54.01)"/><rect class="cls-18" x="254.51" y="150.66" width="2.52" height="50.52" transform="translate(-36.86 279.5) rotate(-54.01)"/><rect class="cls-19" x="256" y="148.61" width="2.52" height="50.52" transform="translate(-34.6 279.86) rotate(-54.01)"/><rect class="cls-20" x="257.48" y="146.57" width="2.52" height="50.52" transform="translate(-32.34 280.22) rotate(-54.01)"/><rect class="cls-21" x="258.96" y="144.53" width="2.52" height="50.52" transform="translate(-30.07 280.58) rotate(-54.01)"/><rect class="cls-22" x="260.44" y="142.49" width="2.52" height="50.52" transform="translate(-27.81 280.94) rotate(-54.01)"/><rect class="cls-23" x="261.93" y="140.45" width="2.52" height="50.52" transform="translate(-25.54 281.29) rotate(-54.01)"/><rect class="cls-24" x="263.41" y="138.4" width="2.52" height="50.52" transform="translate(-23.28 281.65) rotate(-54.01)"/><rect class="cls-25" x="264.89" y="136.36" width="2.52" height="50.52" transform="translate(-21.02 282.01) rotate(-54.01)"/><rect class="cls-26" x="266.38" y="134.32" width="2.52" height="50.52" transform="translate(-18.75 282.37) rotate(-54.01)"/><rect class="cls-27" x="267.86" y="132.28" width="2.52" height="50.52" transform="translate(-16.49 282.72) rotate(-54.01)"/><polygon class="cls-27" points="249.42 141.67 263.37 122.47 297.09 122.47 297.09 162.02 290.3 171.36 249.42 141.67"/></g><path class="cls-54" d="M235.15,202.7a.36.36,0,0,1-.23-.64c29-23.32,38.39-61.94,38.48-62.33a.38.38,0,0,1,.44-.27.36.36,0,0,1,.26.44c-.09.39-9.58,39.24-38.73,62.72A.35.35,0,0,1,235.15,202.7Z"/><g class="cls-60"><polygon class="cls-29" points="237.79 228.21 246.19 240.76 245.31 241.35 237.79 241.35 237.79 228.21"/><polygon class="cls-29" points="237.79 224.69 247.82 239.67 246.19 240.76 237.79 228.21 237.79 224.69"/><polygon class="cls-30" points="237.79 221.16 249.45 238.58 247.82 239.67 237.79 224.69 237.79 221.16"/><polygon class="cls-31" points="237.79 217.64 251.07 237.49 249.45 238.58 237.79 221.16 237.79 217.64"/><polygon class="cls-32" points="237.79 214.12 252.7 236.41 251.07 237.49 237.79 217.64 237.79 214.12"/><polygon class="cls-33" points="237.79 210.6 254.33 235.32 252.7 236.41 237.79 214.12 237.79 210.6"/><polygon class="cls-34" points="237.79 207.08 255.96 234.23 254.33 235.32 237.79 210.6 237.79 207.08"/><polygon class="cls-35" points="237.79 203.56 257.59 233.14 255.96 234.23 237.79 207.08 237.79 203.56"/><polygon class="cls-36" points="237.79 200.03 259.21 232.05 257.59 233.14 237.79 203.56 237.79 200.03"/><polygon class="cls-37" points="237.79 197.83 238.4 197.42 260.84 230.96 259.21 232.05 237.79 200.03 237.79 197.83"/><rect class="cls-38" x="249.46" y="193.47" width="1.96" height="40.35" transform="translate(-76.51 175.34) rotate(-33.78)"/><rect class="cls-39" x="251.08" y="192.38" width="1.96" height="40.35" transform="translate(-75.63 176.06) rotate(-33.78)"/><rect class="cls-40" x="252.71" y="191.29" width="1.96" height="40.35" transform="translate(-74.75 176.78) rotate(-33.78)"/><rect class="cls-41" x="254.34" y="190.2" width="1.96" height="40.35" transform="translate(-73.87 177.5) rotate(-33.78)"/><rect class="cls-42" x="255.97" y="189.11" width="1.96" height="40.35" transform="matrix(0.83, -0.56, 0.56, 0.83, -72.99, 178.22)"/><rect class="cls-43" x="257.59" y="188.02" width="1.96" height="40.35" transform="matrix(0.83, -0.56, 0.56, 0.83, -72.11, 178.95)"/><rect class="cls-44" x="259.22" y="186.94" width="1.96" height="40.35" transform="translate(-71.23 179.67) rotate(-33.78)"/><rect class="cls-45" x="260.85" y="185.85" width="1.96" height="40.35" transform="translate(-70.35 180.39) rotate(-33.78)"/><rect class="cls-46" x="262.48" y="184.76" width="1.96" height="40.35" transform="matrix(0.83, -0.56, 0.56, 0.83, -69.47, 181.11)"/><rect class="cls-47" x="264.11" y="183.67" width="1.96" height="40.35" transform="translate(-68.59 181.83) rotate(-33.78)"/><rect class="cls-48" x="265.73" y="182.58" width="1.96" height="40.35" transform="translate(-67.71 182.55) rotate(-33.78)"/><rect class="cls-49" x="267.36" y="181.49" width="1.96" height="40.35" transform="translate(-66.83 183.27) rotate(-33.78)"/><rect class="cls-50" x="268.99" y="180.4" width="1.96" height="40.35" transform="matrix(0.83, -0.56, 0.56, 0.83, -65.95, 183.99)"/><rect class="cls-51" x="270.62" y="179.31" width="1.96" height="40.35" transform="translate(-65.07 184.72) rotate(-33.78)"/><rect class="cls-52" x="272.24" y="178.22" width="1.96" height="40.35" transform="translate(-64.19 185.44) rotate(-33.78)"/><polygon class="cls-53" points="262.82 181.09 264.44 180 264.45 180 286.88 213.53 285.26 214.62 262.82 181.09"/><polygon class="cls-53" points="308.98 198.75 286.88 213.53 264.45 180 308.98 180 308.98 198.75"/></g><path class="cls-54" d="M239.94,226.23a.33.33,0,0,1-.23-.09.34.34,0,0,1-.05-.5c25.15-30.07,49.39-34.41,49.63-34.45a.36.36,0,1,1,.12.71c-.24,0-24.23,4.35-49.2,34.2A.37.37,0,0,1,239.94,226.23Z"/><path class="cls-2" d="M244.8,202.7a.36.36,0,0,1-.25-.11.36.36,0,0,1,0-.51,130.75,130.75,0,0,1,46.22-28.82.36.36,0,0,1,.45.24.35.35,0,0,1-.23.45,130,130,0,0,0-45.93,28.64A.36.36,0,0,1,244.8,202.7Z"/><path class="cls-2" d="M64.5,200.07a.36.36,0,0,1-.35-.28c-8.55-36.41-23.43-51.59-23.58-51.74a.36.36,0,0,1,.51-.51c.15.15,15.17,15.46,23.77,52.08a.38.38,0,0,1-.27.44Z"/><path class="cls-2" d="M51.15,236.79a.36.36,0,0,1-.35-.27C47,222.09,24,210.77,23.76,210.66a.36.36,0,0,1-.16-.49.36.36,0,0,1,.48-.16c1,.46,23.51,11.58,27.42,26.33a.36.36,0,0,1-.26.44Z"/><path class="cls-2" d="M52.67,80.55h0A2.31,2.31,0,1,1,55,78.24h0a2.26,2.26,0,0,1-.68,1.63A2.3,2.3,0,0,1,52.67,80.55Zm0-3.9a1.59,1.59,0,1,0,0,3.18h0a1.58,1.58,0,0,0,1.58-1.58h0A1.59,1.59,0,0,0,52.66,76.65Z"/><path class="cls-2" d="M18.63,234.3a2.3,2.3,0,0,1-1.61-4,2.2,2.2,0,0,1,1.63-.65A2.31,2.31,0,0,1,20.93,232h0A2.31,2.31,0,0,1,18.63,234.3Zm0-3.88a1.58,1.58,0,1,0,1.58,1.6,1.58,1.58,0,0,0-1.58-1.6Zm1.94,1.6h0Z"/><path class="cls-2" d="M34.32,137a2.3,2.3,0,1,1,2.3-2.3A2.3,2.3,0,0,1,34.32,137Zm0-3.88a1.58,1.58,0,1,0,1.58,1.58A1.58,1.58,0,0,0,34.32,133.14Z"/><path class="cls-2" d="M271.4,111.33a2.31,2.31,0,1,1,2.3-2.3A2.3,2.3,0,0,1,271.4,111.33Zm0-3.89A1.59,1.59,0,1,0,273,109,1.59,1.59,0,0,0,271.4,107.44Z"/><path class="cls-2" d="M185.71,59.6a2.31,2.31,0,0,1-2.3-2.28,2.27,2.27,0,0,1,.66-1.63,2.25,2.25,0,0,1,1.62-.69,2.31,2.31,0,0,1,1.63.65,2.25,2.25,0,0,1,.69,1.62v0A2.3,2.3,0,0,1,185.71,59.6Zm0-3.88h0a1.56,1.56,0,0,0-1.11.47,1.61,1.61,0,0,0-.45,1.13,1.58,1.58,0,0,0,3.16,0l.36,0h-.36a1.57,1.57,0,0,0-1.58-1.56Z"/><path class="cls-2" d="M296.65,150.11h0A2.31,2.31,0,1,1,299,147.8h0a2.3,2.3,0,0,1-2.3,2.3Zm0-3.9a1.59,1.59,0,0,0,0,3.18h0a1.59,1.59,0,0,0,1.59-1.58h0A1.59,1.59,0,0,0,296.64,146.21Z"/><rect class="cls-61" x="48.9" y="188.64" width="57.68" height="62.55"/><rect class="cls-62" x="106.58" y="188.64" width="140.48" height="62.55"/><path class="cls-63" d="M192.36,136.53h0C186.18,109.45,179,98,164.83,93.83L146.6,92.68a42.7,42.7,0,0,0-28.11,22.07c-9.36,18.63-5.67,44.14,0,56.52l55.32-4.93,1.64-11.93,1.5-13.94Z"/><g class="cls-64"><g class="cls-65"><polygon points="178.23 114.97 185.44 139.86 183.35 140.47 176.95 140.47 176.95 114.97 178.23 114.97"/><polygon points="185.72 139.78 185.44 139.86 178.23 114.97 185.72 114.97 185.72 139.78"/></g></g><path class="cls-66" d="M197.82,172.46c14.47,3.75,28.91,0,28.91,0s5.79-.65,6.26-1.91-3.74-.27-3.74-.27,7.57-3.41,7.1-4.39-6.75,1.7-7.56,2c.81-.35,7.78-3.33,7.38-4.44s-6.82,2.19-8.83,2.25c2-.36,7.5-3.63,6.85-4.41s-8.81,2.63-8.81,2.63,2.88-2.72,1.65-3.5-5.64,2.94-5.64,2.94S199,166,192.7,137.89l-.31-1.37A35.5,35.5,0,0,0,177,140.47l-1.5,13.94S183.36,168.71,197.82,172.46Z"/><g class="cls-64"><g class="cls-67"><polygon points="112.95 136.97 112.37 139.27 112.37 136.97 112.95 136.97"/><polygon points="133.5 136.97 160.99 143.92 154.07 171.27 112.37 171.27 112.37 171.26 112.37 139.27 112.95 136.97 133.5 136.97"/><polygon points="160.99 143.92 164.12 144.71 164.12 171.27 154.07 171.27 160.99 143.92"/></g></g><g class="cls-64"><g class="cls-68"><polygon points="175.4 153.07 186.61 174.48 175.4 174.48 175.4 153.07"/><polygon points="175.4 139.55 179.04 137.65 182.73 137.65 202.02 174.48 186.61 174.48 175.4 153.07 175.4 139.55"/><polygon points="202.02 174.48 182.73 137.65 217.44 137.65 217.44 174.48 202.02 174.48"/></g></g><polygon class="cls-61" points="185.22 251.19 187.23 242.54 195.29 243.14 206.92 251.19 185.22 251.19"/><path class="cls-66" d="M200.2,235l-11.32-.79c-.84,5-1.62,8.3-1.62,8.3l8.06.6S197.42,240,200.2,235Z"/><path class="cls-61" d="M200.2,235c6.2-11,15.79-31,13-44.68-4-19.83-31.16-24.3-31.16-24.3s4.49,20.42,7.75,36.08c2.08,9.92.51,23.49-.92,32.11Z"/><g class="cls-69"><g class="cls-70"><polygon points="209.7 166.05 211.19 172.81 182.02 179.25 182.02 166.05 209.7 166.05"/><polygon points="211.19 172.81 214.75 188.93 214.75 217.3 188.67 223.06 182.02 192.91 182.02 179.25 211.19 172.81"/><polygon points="188.74 223.35 188.67 223.06 214.75 217.3 214.75 223.35 188.74 223.35"/></g></g><polygon class="cls-61" points="151.75 236.43 145.19 243.81 155.17 251.19 162.48 251.19 156.81 244.63 157.56 241.35 151.75 236.43"/><path class="cls-66" d="M164.69,236.77l-8.25-7.25h0c-1.5,2.25-3,4.58-4.72,6.91l5.81,4.92s2.85-1.7,7.13-4.58Z"/><path class="cls-61" d="M153.64,161.38a74.14,74.14,0,0,0-35.17,9.89c4.4,9.35,12.9,26.69,54.39,26.69a177.7,177.7,0,0,1-16.41,31.56l8.25,7.25c10.84-7.28,31-22.08,37.61-35.8C211.58,181.85,196,159.82,153.64,161.38Z"/><path class="cls-61" d="M156.33,55.49c-4.64-.23-12.36,5.56-17.17-2.53s8.84-21.12,19.5-17.24,3.79,16.61,1.35,18.5S156.33,55.49,156.33,55.49Z"/><path class="cls-61" d="M160.83,54.61l-3,1-.9-2.78a1.58,1.58,0,0,1,1-2h0a1.58,1.58,0,0,1,2,1Z"/><path class="cls-61" d="M149,72.14s-5.14-9.56,2.8-16.22S178.14,54.64,171,71.53Z"/><path class="cls-66" d="M146.6,92.68c2.39-.85,6.48-8.35,6-13.76,0,0-5.46.75-6-4.43s4-7.16,7.72-4.5c0,0,8.25-.17,12-5.43,0,0,1.35,5.32,4.71,7,0,0,2,8.88-1.85,11.46s-6.54,1.9-6.54,1.9-1.5,6,2.18,8.94c0,0-3.08,3.08-9.23,2.41S146.6,92.68,146.6,92.68Z"/><path class="cls-2" d="M162.51,73.75a.23.23,0,0,1-.17-.07,2.06,2.06,0,0,0-2.66,0,.26.26,0,0,1-.37,0,.27.27,0,0,1,0-.37,2.55,2.55,0,0,1,3.34,0,.26.26,0,0,1,0,.37A.25.25,0,0,1,162.51,73.75Z"/><path class="cls-2" d="M170.74,74.33a.26.26,0,0,1-.18-.07,1.92,1.92,0,0,0-2.22-.25.25.25,0,0,1-.36-.1.26.26,0,0,1,.1-.35,2.43,2.43,0,0,1,2.83.32.26.26,0,0,1,0,.37A.27.27,0,0,1,170.74,74.33Z"/><path class="cls-2" d="M165.59,77.71a.26.26,0,0,1-.06-.52,3.24,3.24,0,0,0,1.22-.51,7.21,7.21,0,0,1-1.23-2.84.28.28,0,0,1,.21-.31.27.27,0,0,1,.31.21,6.5,6.5,0,0,0,1.26,2.79.27.27,0,0,1,0,.27c0,.09-.31.56-1.67.9Z"/><path class="cls-2" d="M153.06,72.83a.28.28,0,0,1-.13,0,3.78,3.78,0,0,0-3.74,0,.27.27,0,0,1-.36-.1.25.25,0,0,1,.1-.35,4.26,4.26,0,0,1,4.26,0,.26.26,0,0,1,.1.35A.27.27,0,0,1,153.06,72.83Z"/><path class="cls-2" d="M151.38,75.14a.24.24,0,0,1-.19-.08,3.49,3.49,0,0,1-.65-3.1.26.26,0,0,1,.32-.18.27.27,0,0,1,.19.32,3,3,0,0,0,.52,2.6.26.26,0,0,1-.19.44Z"/><path class="cls-71" d="M162,78.88A2.91,2.91,0,1,0,159,81.79h0A2.9,2.9,0,0,0,162,78.88Z"/><path class="cls-71" d="M171.55,77.08a2.9,2.9,0,1,0-1.7,5.34C171.07,81.15,171.48,79.08,171.55,77.08Z"/><g class="cls-64"><g class="cls-72"><polygon points="162.65 83.25 162.34 82.95 162.65 82.95 162.65 83.25"/><polygon points="161.93 88.2 156.88 83.28 156.88 82.95 162.34 82.95 162.65 83.25 162.65 88.2 161.93 88.2"/><polygon points="156.88 83.28 161.93 88.2 156.88 88.2 156.88 83.28"/></g></g><g class="cls-64"><g class="cls-73"><polygon points="124.9 129.9 129.25 164.44 124.9 164.44 124.9 129.9"/><polygon points="124.9 124.21 128.78 123.72 137.7 123.72 142.15 159.08 142.15 164.44 129.25 164.44 124.9 129.9 124.9 124.21"/><polygon points="142.15 159.08 137.7 123.72 142.15 123.72 142.15 159.08"/></g></g><path class="cls-74" d="M164.68,121.48l9.24.8a.75.75,0,0,1,.68.82L173,141.61a.76.76,0,0,1-.82.69l-9.24-.81h0l1.74-19.94Z"/><path class="cls-3" d="M163.87,121.41l.8.06h0l-1.74,19.95h0l-.8-.07a.75.75,0,0,1-.68-.81l1.61-18.49A.74.74,0,0,1,163.87,121.41Z"/><path class="cls-66" d="M172.17,134.06c-.85-.41-3.95,5.56-3.95,5.56s3.28-7.46,2-7.79-3.75,6.81-3.75,6.81,1.78-7,.51-7.3-2.05,6-5.37,7.74l.31-3.56a17.76,17.76,0,0,0-5.79,8s-13.67,4-24.07,6.67c0,0,6.93-13.74,8.72-24.93,1.09-6.79-11.4-10.4-21.4-12.2-.31.54-.6,1.11-.89,1.68-6.43,12.74-6.71,28.69-4.44,41.46,2.8,9.1,9,12.34,18,10.1s27-13.16,33.11-18.56C171.09,142.47,173,134.47,172.17,134.06Z"/><path class="cls-62" d="M24.12,87.42h0a14.13,14.13,0,0,1-20,0h0a14.12,14.12,0,0,1,0-20h0a14.13,14.13,0,0,1,20,0h0a14.13,14.13,0,0,1,0,20Z"/><path class="cls-54" d="M13.29,85.12a.68.68,0,0,1-.46-.19L7.24,79.34a.66.66,0,0,1,0-.92l.7-.69A.65.65,0,0,1,8,76.92l.75-.75A.62.62,0,0,1,9.26,76a.59.59,0,0,1,.34.1l.56-.56-.67-.67a.66.66,0,0,1,0-.92l2.14-2.2a.66.66,0,0,1,.92,0l.69.69,1.92-1.92a.66.66,0,0,1,.93,0l5.59,5.58a.67.67,0,0,1,0,.93l-7.93,7.92A.68.68,0,0,1,13.29,85.12Zm.21-.45Zm-.26-.25ZM7.8,78.88l5.49,5.49,7.83-7.83-5.49-5.49-2.39,2.39-1.15-1.15-2,2.1,1.13,1.13L9.62,77.08l-.37-.36-.66.66.36.37Zm1.41-2.2h0Zm.8-2.25ZM15.58,71Z"/><path class="cls-54" d="M15.62,79.71a3.15,3.15,0,0,1-2.25-5.34l.05,0a3.08,3.08,0,0,1,2.2-.9h0a3.12,3.12,0,0,1,2.22.92,3.14,3.14,0,0,1-2.23,5.36Zm-1.71-4.85a2.43,2.43,0,1,0,1.71-.71h0a2.44,2.44,0,0,0-1.71.7l0,0Zm-.26-.26h0Z"/><path class="cls-54" d="M15.62,78.38a1.8,1.8,0,0,1-1.27-.53,1.81,1.81,0,0,1,0-2.56h0a1.81,1.81,0,1,1,1.26,3.1Zm-1-2.83.25.25a1.09,1.09,0,0,0,1.54,1.54,1.09,1.09,0,0,0-1.53-1.55Z"/><path class="cls-54" d="M10.17,80.41a.65.65,0,0,1-.46-.19l-.88-.9a.65.65,0,0,1,0-.92l1.51-1.5a.62.62,0,0,1,.46-.19.69.69,0,0,1,.45.2l.89.88a.67.67,0,0,1,0,.93l-1.5,1.5A.7.7,0,0,1,10.17,80.41Zm-.79-1.54.8.79,1.41-1.41-.8-.79Zm0,0Zm1.4-1.5h0Zm-.16-.25.25.25h0Z"/><path class="cls-62" d="M61.93,130h0a14.12,14.12,0,0,1-16.36-11.46h0A14.13,14.13,0,0,1,57,102.14h0a14.13,14.13,0,0,1,16.37,11.47h0A14.12,14.12,0,0,1,61.94,130Z"/><path class="cls-54" d="M59,115.83a2.5,2.5,0,0,1-.43-5h0a2.5,2.5,0,1,1,.86,4.93A2.15,2.15,0,0,1,59,115.83Zm-.31-4.26A1.78,1.78,0,1,0,60.76,113a1.79,1.79,0,0,0-2.07-1.45Z"/><path class="cls-54" d="M60.33,121.68a.66.66,0,0,1-.5-.23l-.45-.51c-1.38-1.56-3.13-3.57-3.62-4.26a6.3,6.3,0,0,1-.74-1.55,4,4,0,0,1-.29-1,4.37,4.37,0,0,1,3.54-5h0a4.42,4.42,0,0,1,1-.05,4.37,4.37,0,0,1,4.11,4.59,6.41,6.41,0,0,1-.17,1.67c-.25.87-1.33,3.67-2,5.25l-.26.68a.67.67,0,0,1-.51.41Zm.29-.55h0Zm-2.23-11.3a3.64,3.64,0,0,0-3,4.22,3.38,3.38,0,0,0,.25.82,5.66,5.66,0,0,0,.67,1.4c.36.51,1.62,2,3.56,4.19l.4.46.23-.6c.62-1.57,1.69-4.34,1.92-5.17a5.35,5.35,0,0,0,.15-1.5,3.65,3.65,0,0,0-3.43-3.86A3.55,3.55,0,0,0,58.39,109.83Z"/><path class="cls-62" d="M110.28,72.16h0a14.12,14.12,0,0,1-18.74-6.83h0a14.12,14.12,0,0,1,6.83-18.75h0a14.12,14.12,0,0,1,18.74,6.83h0A14.12,14.12,0,0,1,110.28,72.16Z"/><path class="cls-54" d="M106.19,65.25a1.85,1.85,0,0,1-1.69-1.08v0l.33-.13-.33.13a1.86,1.86,0,1,1,2.47.93A1.91,1.91,0,0,1,106.19,65.25Zm-1-1.39a1.13,1.13,0,0,0,1.51.56,1.14,1.14,0,1,0-1.51-.57l-.33.17Z"/><path class="cls-54" d="M97.09,59.22a.25.25,0,0,1-.12,0,.37.37,0,0,1-.22-.46l.07-.18a9.23,9.23,0,0,1,11.88-5.39.37.37,0,0,1,.21.47.36.36,0,0,1-.46.21,8.5,8.5,0,0,0-11,5l-.06.17A.35.35,0,0,1,97.09,59.22Z"/><path class="cls-54" d="M99.6,60.64l-.12,0a.35.35,0,0,1-.22-.46l.06-.17a6.88,6.88,0,0,1,8.86-4,.36.36,0,0,1,.2.46.35.35,0,0,1-.46.21A6.16,6.16,0,0,0,100,60.25l0,.15A.35.35,0,0,1,99.6,60.64Z"/><path class="cls-54" d="M102.08,62.34a.2.2,0,0,1-.11,0,.35.35,0,0,1-.23-.45,2.09,2.09,0,0,1,.08-.23A4.7,4.7,0,0,1,107.89,59a.36.36,0,0,1-.27.67,4,4,0,0,0-5.13,2.24c0,.06,0,.12-.07.19A.35.35,0,0,1,102.08,62.34Z"/><path class="cls-62" d="M300.4,36.68h0a14.12,14.12,0,0,1-18.74-6.83h0A14.13,14.13,0,0,1,288.5,11.1h0a14.11,14.11,0,0,1,18.74,6.83h0A14.13,14.13,0,0,1,300.4,36.68Z"/><path class="cls-54" d="M296.3,29.76a2.05,2.05,0,0,1-.64-.11,1.85,1.85,0,0,1-1-1l0,0A1.86,1.86,0,0,1,298,27.12a1.86,1.86,0,0,1-.9,2.47A2,2,0,0,1,296.3,29.76Zm-1-1.38a1.12,1.12,0,0,0,.64.59,1.14,1.14,0,0,0,.87,0,1.11,1.11,0,0,0,.59-.65,1.1,1.1,0,0,0,0-.87,1.14,1.14,0,0,0-2.08.95l-.32.16Z"/><path class="cls-54" d="M287.21,23.71a.25.25,0,0,1-.12,0,.37.37,0,0,1-.22-.46l.07-.17a9.24,9.24,0,0,1,11.89-5.4.36.36,0,0,1-.26.68,8.5,8.5,0,0,0-11,5l-.06.16A.35.35,0,0,1,287.21,23.71Z"/><path class="cls-54" d="M289.72,25.16l-.12,0a.36.36,0,0,1-.22-.46l.06-.16a6.88,6.88,0,0,1,8.86-4,.36.36,0,1,1-.25.67,6.17,6.17,0,0,0-7.94,3.58l-.05.15A.36.36,0,0,1,289.72,25.16Z"/><path class="cls-54" d="M292.2,26.85h-.12a.36.36,0,0,1-.22-.46,1.07,1.07,0,0,1,.07-.19A4.7,4.7,0,0,1,298,23.51a.37.37,0,0,1,.2.47.36.36,0,0,1-.47.2,4,4,0,0,0-5.14,2.27l-.06.16A.35.35,0,0,1,292.2,26.85Z"/><path class="cls-62" d="M78,37.79h0A14.13,14.13,0,0,1,59.27,31h0A14.13,14.13,0,0,1,66.1,12.21h0A14.13,14.13,0,0,1,84.85,19h0A14.14,14.14,0,0,1,78,37.79Z"/><path class="cls-54" d="M69.07,30.82a1.39,1.39,0,0,1-1.25-.8l-2.35-5.08a1.38,1.38,0,0,1,.67-1.82l8.35-3.86a1.37,1.37,0,0,1,1.82.67L78.67,25A1.38,1.38,0,0,1,78,26.83l-8.36,3.86A1.28,1.28,0,0,1,69.07,30.82Zm6-11a.67.67,0,0,0-.28.06l-8.35,3.86a.67.67,0,0,0-.32.87l2.36,5.08a.66.66,0,0,0,.86.32l8.35-3.86a.66.66,0,0,0,.32-.87l-2.35-5.08A.65.65,0,0,0,75.07,19.85Z"/><path class="cls-54" d="M73.7,24.47l-1.41-3,2.39-1.12,1.42,3.05Zm-.45-2.67.8,1.72L75.14,23l-.81-1.74Z"/><path class="cls-54" d="M68.77,27.41a.36.36,0,0,1-.16-.69l3-1.39a.34.34,0,0,1,.47.17.35.35,0,0,1-.17.48l-3,1.4A.4.4,0,0,1,68.77,27.41Z"/><path class="cls-54" d="M69.28,28.53a.36.36,0,0,1-.15-.69l4.39-2.05a.36.36,0,1,1,.31.65l-4.4,2A.26.26,0,0,1,69.28,28.53Z"/><path class="cls-62" d="M184.77,26.25h0A14.08,14.08,0,0,1,179.62,7h0a14.07,14.07,0,0,1,19.22-5.14h0A14.06,14.06,0,0,1,204,21.1h0a14.06,14.06,0,0,1-19.21,5.15Z"/><path class="cls-54" d="M191.81,18.84a4.77,4.77,0,1,1,4.77-4.77A4.78,4.78,0,0,1,191.81,18.84Zm0-8.82a4.05,4.05,0,1,0,4.05,4.05A4.06,4.06,0,0,0,191.81,10Z"/><path class="cls-54" d="M191.81,16.42a2.35,2.35,0,1,1,2.35-2.35A2.35,2.35,0,0,1,191.81,16.42Zm0-4a1.63,1.63,0,1,0,1.62,1.63A1.63,1.63,0,0,0,191.81,12.44Z"/><path class="cls-62" d="M227.48,53.2h0a14.08,14.08,0,0,1-10-17.24h0a14.07,14.07,0,0,1,17.22-10h0a14.06,14.06,0,0,1,10,17.21v0h0a14.07,14.07,0,0,1-17.24,10Z"/><path class="cls-54" d="M236.06,46.05a.52.52,0,0,1-.17,0l-11-3a.69.69,0,0,1-.44-.84l2.46-9.18a.69.69,0,0,1,.84-.48l4.56,1.22a.69.69,0,0,1,.48.47l.53,1.72,4.9,1.32a.68.68,0,0,1,.43.34.65.65,0,0,1,0,.51l-2,7.38A.68.68,0,0,1,236.06,46.05Zm-10.91-3.64,10.92,2.92L238,38l-5.26-1.38-.65-2.11-4.5-1.18Z"/><path class="cls-62" d="M200.31,107.89h0a14.06,14.06,0,0,1-1.74-19.81h0a14.06,14.06,0,0,1,19.82-1.73h0a14.06,14.06,0,0,1,1.73,19.81h0a14.06,14.06,0,0,1-19.82,1.74Z"/><path class="cls-54" d="M206,102.46a.71.71,0,0,1-.43-.13.71.71,0,0,1-.23-.37v-.18l-.1-.82a23.49,23.49,0,0,1,0-6.75,6.25,6.25,0,0,1,.66-2.15,2.16,2.16,0,0,1,.27-.38,2.7,2.7,0,0,1,1.84-.93,3.83,3.83,0,0,1,2.77.94,3.67,3.67,0,0,1,.91,3.36,3.67,3.67,0,0,1,3.49.3c1.48,1.27,1.84,3.31.8,4.55a2.65,2.65,0,0,1-.34.33c-.35.3-2.47,1.85-8.65,2.18l-.93,0Zm.05-.59Zm2.2-10.41h-.22a1.92,1.92,0,0,0-1.36.67,1.51,1.51,0,0,0-.18.26,5.47,5.47,0,0,0-.59,1.9,22.89,22.89,0,0,0,0,6.56l.1.88.86,0c6.08-.32,8-1.85,8.23-2a1.39,1.39,0,0,0,.25-.23,2.61,2.61,0,0,0-.71-3.54c-.85-.71-2.35-.41-3.37,0l-.69.32.2-.74c.31-1.15.26-2.62-.54-3.29A3.22,3.22,0,0,0,208.28,91.46Z"/><path class="cls-62" d="M289.61,90.84h0a14.13,14.13,0,0,1-1.74-19.9h0a14.13,14.13,0,0,1,19.91-1.74h0a14.13,14.13,0,0,1,1.74,19.9h0A14.13,14.13,0,0,1,289.61,90.84Z"/><path class="cls-54" d="M300.51,87.2a1.24,1.24,0,0,1-.82-.3l-7.95-6.6a1.27,1.27,0,0,1-.15-1.8l4.35-5.22a1.28,1.28,0,0,1,.87-.45,1.26,1.26,0,0,1,.93.3l7.91,6.63a1.36,1.36,0,0,1,.38.54h.07l0,.32a1.29,1.29,0,0,1-.3.94l-4.35,5.19a1.28,1.28,0,0,1-.87.45Zm-3.59-13.65a.57.57,0,0,0-.43.2L292.14,79a.57.57,0,0,0,.06.79l7.95,6.6a.57.57,0,0,0,.79-.06l4.35-5.19a.53.53,0,0,0,.12-.25l0-.16a.56.56,0,0,0-.19-.38l-7.91-6.63A.55.55,0,0,0,296.92,73.55Z"/><path class="cls-54" d="M300.47,82.15h-.07l-4.59-.67a.66.66,0,0,1-.27-.1l-.07-.06a.59.59,0,0,1-.14-.23.58.58,0,0,1,.11-.6l3.17-3.75a.59.59,0,0,1,.58-.2.57.57,0,0,1,.45.41l1.41,4.4a.58.58,0,0,1-.11.58A.62.62,0,0,1,300.47,82.15Zm-.1-.57Zm-4.26-.78,4.2.61-1.29-4ZM296,81Zm3-3.79h0Z"/><path class="cls-62" d="M278.93,147.66h0A14.08,14.08,0,0,1,260,141.6h0A14.06,14.06,0,0,1,266,122.65h0a14.06,14.06,0,0,1,18.94,6h0A14.08,14.08,0,0,1,278.93,147.66Z"/><path class="cls-54" d="M278.73,139.14a.67.67,0,0,1-.24,0l-4.14-1.81a4.87,4.87,0,0,1-1.44,1.11l-.45.2a4.79,4.79,0,1,1,2.72-6.21,4.85,4.85,0,0,1,.3,2.29l4.11,1.8a.72.72,0,0,1,.35.36.69.69,0,0,1,0,.49l-.62,1.43a.65.65,0,0,1-.3.31h0A.66.66,0,0,1,278.73,139.14Zm.12-.38h0Zm-4.71-2.35,4.55,2,.56-1.28-4.57-2,.05-.28a4.08,4.08,0,1,0-7.81.77,4,4,0,0,0,2.16,2.25,4.07,4.07,0,0,0,3.12.07c.13-.06.26-.11.38-.18a4,4,0,0,0,1.39-1.12Z"/><path class="cls-54" d="M270.72,137.74a3.69,3.69,0,0,1-1.45-.3,3.62,3.62,0,0,1-1.91-2,3.61,3.61,0,0,1,4.81-4.62l.06,0a3.6,3.6,0,0,1-.2,6.63A3.5,3.5,0,0,1,270.72,137.74Zm0-6.49a3,3,0,0,0-1.06.2,2.9,2.9,0,0,0-1.64,3.74,2.91,2.91,0,0,0,1.53,1.59,2.89,2.89,0,1,0,2.32-5.29h0A2.74,2.74,0,0,0,270.73,131.25Z"/></g></g></g></g></svg>