<svg xmlns="http://www.w3.org/2000/svg" viewBox="0 0 71.81 54.24"><defs><style>.cls-1{isolation:isolate;}.cls-2{fill:#3bcee2;}.cls-3{fill:#c1c1c1;opacity:0.5;}.cls-3,.cls-6{mix-blend-mode:multiply;}.cls-4{fill:#343643;}.cls-5{fill:#bcbbbd;}.cls-6{fill:#2a169b;opacity:0.65;}</style></defs><title>Asset 11</title><g class="cls-1"><g id="Layer_2" data-name="Layer 2"><g id="Layer_1-2" data-name="Layer 1"><path class="cls-2" d="M63.7,19.25a8.24,8.24,0,0,0-3.22.66,7.92,7.92,0,0,0,.23-1.84A7.74,7.74,0,0,0,53,10.33a8,8,0,0,0-2.45.4A9.76,9.76,0,0,0,31.68,9.42,12.76,12.76,0,1,0,8,18.58a8.45,8.45,0,0,0,.43,16.88H63.7a8.11,8.11,0,1,0,0-16.21Z"/><path class="cls-3" d="M52.19,35.5v-3a4.09,4.09,0,0,0-3.92-4.24h-1V22.67h0a10.23,10.23,0,0,0-20.43,0h0v5.55h-1a4.09,4.09,0,0,0-3.91,4.24v3ZM29.66,23.55h0a7.39,7.39,0,0,1,14.75,0h0v4.67H29.66Z"/><path class="cls-4" d="M42.38,22.67a10.23,10.23,0,0,0-20.43,0h0v16h2.85V23.55h0a7.39,7.39,0,0,1,14.75,0h0V38.63h2.85v-16Z"/><path class="cls-5" d="M43.38,54.24H20.94A4.09,4.09,0,0,1,17,50V32.46a4.09,4.09,0,0,1,3.91-4.24H43.38a4.09,4.09,0,0,1,3.92,4.24V50A4.09,4.09,0,0,1,43.38,54.24Z"/><path class="cls-6" d="M43.38,28.22H32v26H43.38A4.09,4.09,0,0,0,47.3,50V32.46A4.09,4.09,0,0,0,43.38,28.22Z"/><path class="cls-4" d="M34.71,39.63a2.55,2.55,0,1,0-3.84,2.18,4.66,4.66,0,0,0-.5,2.16c0,1.72.8,3.11,1.79,3.11S34,45.69,34,44a4.54,4.54,0,0,0-.5-2.16A2.53,2.53,0,0,0,34.71,39.63Z"/></g></g></g></svg>