<svg xmlns="http://www.w3.org/2000/svg" viewBox="0 0 62.87 58.84"><defs><style>.cls-1{isolation:isolate;}.cls-2{fill:#bcbbbd;}.cls-3{fill:#bababd;opacity:0.65;mix-blend-mode:multiply;}.cls-4{fill:#343643;}.cls-5{fill:#3bcee2;}.cls-6{fill:#ffaa27;}.cls-7{fill:#e29800;}.cls-8{fill:#737075;}.cls-9{fill:#2a169b;}.cls-10{fill:#272937;}</style></defs><title>Asset 8</title><g class="cls-1"><g id="Layer_2" data-name="Layer 2"><g id="Layer_1-2" data-name="Layer 1"><path class="cls-2" d="M52.85,45.42a7.18,7.18,0,0,0-2.68.51,5.44,5.44,0,0,0,.2-1.4A6.17,6.17,0,0,0,44,38.66a6.74,6.74,0,0,0-2,.31,8,8,0,0,0-8-6,8.09,8.09,0,0,0-7.68,5,10.47,10.47,0,0,0-10.21-7.15c-5.85,0-10.59,4.33-10.59,9.68a9,9,0,0,0,1.17,4.4A6.7,6.7,0,0,0,0,51.3c0,3.54,3.14,6.41,7,6.41H52.85a6.45,6.45,0,0,0,6.72-6.15C59.57,48.17,56.56,45.42,52.85,45.42Z"/><path class="cls-3" d="M57.77,47.31a7.31,7.31,0,0,0-3.16-1.68c-.07,0,0,.37-.09.36a70.42,70.42,0,0,1-4.3,8.73,2.1,2.1,0,0,0-1.48,1.34l-1-1h-.06a70.49,70.49,0,0,0,6.09-9.44,7.89,7.89,0,0,0-4,.42,80.15,80.15,0,0,1-5.08,8.58c-1.36.2-1.95,1.92-2.14,3.09.56-.06,1.26,0,1.83,0l.15-1,.64,1c1.08,0,2.19,0,3.17,0h1.83L50,57.33l.15-.6.65,1a15.38,15.38,0,0,0,4.43-.39l-2-2.18C54,53.93,56.2,50.44,57.77,47.31Z"/><path class="cls-4" d="M44.79,3.29S42.71,17.6,43.41,21.17,35,32.91,23.1,28c-3.86-1.58-4.85-4.6-3.52-7.87s6-2.53,6.21-.38S23.48,21.2,23.28,21c0,0,1.39-.27.36-1.13s-3.46,1.62.3,3.44S28.2,20,28.33,11.89,32.26-4.88,44.79,3.29Z"/><path class="cls-5" d="M48.87,34.09s-6.8.39-7.62-5.14a56.69,56.69,0,0,1-.44-10.23,5.75,5.75,0,0,1,3.08,4c.42,2.1.8,6.55,3,8.07.17.12,2.71.56,2.71.56Z"/><path class="cls-6" d="M40.09,3.74c-2.61,0-4.8-1.19-5.33,4.16h0a2,2,0,0,0,0,4.06h0a5.53,5.53,0,0,0,5.34,4.65,5.63,5.63,0,0,0,5.45-5.79C45.54,3.34,43.1,3.74,40.09,3.74Z"/><path class="cls-7" d="M49.75,41.78s2.69.19,1.56,3.16a68.28,68.28,0,0,1-4.92,10.14l2.91.51s4.86-7.39,6.22-11.4a3,3,0,0,0-2.78-4.06Z"/><path class="cls-6" d="M44.79,43s2,.82,1.82,1.79c-.25,1.79-2.75,5.51-5.5,9.9l2.91.46a62.57,62.57,0,0,0,6.25-9.51c1.24-2.64,1-3.93-2.88-4.43Z"/><path class="cls-4" d="M35.6,1.59s1.12,6.8,12.74,6.8C48.34,8.39,51.11-2.44,35.6,1.59Z"/><path class="cls-6" d="M34.72,24.89c.35.11,2.19.51,4.22.83a9.38,9.38,0,0,0,1-.56c1-.69,2.08-1.41,3.15-2a15.19,15.19,0,0,1-2.25-4.4s-2.11-.07-.57-4.36a5.84,5.84,0,0,0-2.13-.62s.39,4.13-1.59,4.69-4.29,1.11-4.64,4.09a12.28,12.28,0,0,1-.4,1.69A17,17,0,0,1,34.72,24.89Z"/><path class="cls-8" d="M26.76,36.54s-4.56,6.22,3,7.65c2.36.44,5.5-.27,7.9-.18a23.92,23.92,0,0,1,7.85,1.62,35.14,35.14,0,0,1,9.31-5.32s-2.25-2.07-15.7-4C39.15,36.32,30.72,32.38,26.76,36.54Z"/><path class="cls-9" d="M40.81,18.72h-.14c.23,1,1.74,4-.36,4.09-1.89.08-3.65-2.22-4.16-4.31-.7.1-1.92.09-2.52.15-.94.09-1.17.61-1.75,3.87-1,5.66-2.39,7.56-2.39,7.56s-1.41,3.57-2.73,6.46c0,0,7.52,3.25,14.19,1.24,0,0-1.13-6.74.33-9.78,0,0,2.84-.26,2.9-2.18S41.75,22.07,40.81,18.72Z"/><path class="cls-6" d="M49.37,31.33s3.21.14,2.55,2.17c-.49,1.54-2.67.88-3.39.59Z"/><path class="cls-4" d="M40.45,58.84H39s0-4,2.27-4.23l2.91.47,3.7,3.76H42.7L41,56.73Z"/><path class="cls-4" d="M46,58.77H44.57s0-3.9,2.19-4.09l2.82.45,3.59,3.64h-5l-1.66-2Z"/><path class="cls-4" d="M38.42,2.5,34.66,9.83S31.09.52,38.42,2.5Z"/><path class="cls-5" d="M27.21,31.87S29.49,16.51,34.54,19c0,0,2.86.56-2.66,9.74,0,0,1.5.92,7.27,2.31l-1.64,2.71S26.91,33.57,27.21,31.87Z"/><path class="cls-6" d="M37.07,33.5s4.21,1.63,4.5-.54-2-2.3-3-2.07Z"/><polygon class="cls-4" points="62.87 25.3 56.33 36.32 39.15 36.32 45.2 25.3 62.87 25.3"/><rect class="cls-10" x="34.28" y="36.32" width="21.92" height="1.98"/></g></g></g></svg>