<svg id="Layer_35" enable-background="new 0 0 64 64" height="512" viewBox="0 0 64 64" width="512" xmlns="http://www.w3.org/2000/svg" xmlns:xlink="http://www.w3.org/1999/xlink"><linearGradient id="SVGID_1_" gradientUnits="userSpaceOnUse" x1="32" x2="32" y1="63" y2="1"><stop offset="0" stop-color="#f22328"/><stop offset="1" stop-color="#fe9e1f"/></linearGradient><path d="m1 53h33v10h21v-10h8v-52h-62zm52 8h-3v-13h-2v13h-12v-9.913c0-1.693-1.209-3.142-2.874-3.443l-3.199-.582c-2.855-.52-4.927-3.002-4.927-5.904v-11.658c0-.827.673-1.5 1.5-1.5s1.5.673 1.5 1.5v9.5c0 2.206 1.794 4 4 4h4.22l2.238 8.956 3.542-3.542 3.542 3.542 2.05-8.203c3.179 1.39 5.408 4.561 5.408 8.247zm-16-25c0-2.757 2.243-5 5-5s5 2.243 5 5-2.243 5-5 5-5-2.243-5-5zm5 9.197-1.464-2.197h2.929zm-2.458 2.847-1.172-4.687 2.343 3.515zm6.087-4.686-1.171 4.686-1.171-1.171zm9.32 7.642c-.43-4.739-3.877-8.611-8.401-9.69 1.498-1.285 2.452-3.187 2.452-5.31 0-3.86-3.141-7-7-7s-7 3.14-7 7c0 1.958.81 3.728 2.111 5h-5.111c-1.103 0-2-.897-2-2v-9.5c0-1.93-1.57-3.5-3.5-3.5s-3.5 1.57-3.5 3.5v11.658c0 3.868 2.763 7.179 6.569 7.87l3.199.583c.684.124 1.175.703 1.216 1.389h-30.984v-40h58v40zm6.051-42h-12v-6h12zm-14-6v6h-44v-6zm-26.707 27.293-3.293 3.293v-.586h-12v12h12v-8.586l4.707-4.707zm-5.293 12.707h-8v-8h8v.586l-4 4-2.293-2.293-1.414 1.414 3.707 3.707 4-4zm2-23.414v-.586h-12v12h12v-8.586l4.707-4.707-1.414-1.414zm-2 9.414h-8v-8h8v.586l-4 4-2.293-2.293-1.414 1.414 3.707 3.707 4-4zm18-8h26v2h-26zm0 4h26v2h-26zm24 4h2v2h-2zm-4 0h2v2h-2zm-4 0h2v2h-2zm-8 22h2v2h-2zm0 4h2v2h-2zm-34-48h-2v-2h2zm4 0h-2v-2h2zm4 0h-2v-2h2z" fill="url(#SVGID_1_)"/></svg>