<svg id="Layer_5" enable-background="new 0 0 64 64" height="512" viewBox="0 0 64 64" width="512" xmlns="http://www.w3.org/2000/svg" xmlns:xlink="http://www.w3.org/1999/xlink"><linearGradient id="SVGID_1_" gradientUnits="userSpaceOnUse" x1="31.793" x2="31.793" y1="63.414" y2="1"><stop offset="0" stop-color="#f22328"/><stop offset="1" stop-color="#fe9e1f"/></linearGradient><path d="m60 1h-56c-1.654 0-3 1.346-3 3v38c0 1.654 1.346 3 3 3h1.586l-5 5 13.414 13.414 5.414-5.414-1.5-1.5.566-.566 3.788-.631c1.447-.242 2.761-.918 3.798-1.955l8.348-8.348h25.586c1.654 0 3-1.346 3-3v-38c0-1.654-1.346-3-3-3zm-56 2h56c.552 0 1 .449 1 1v5h-58v-5c0-.551.448-1 1-1zm3.5 43.086-1.086-1.086h1.586v.586zm6.5 14.5-10.586-10.586 2.586-2.586 10.586 10.586zm10.652-8.652c-.741.741-1.68 1.224-2.713 1.396l-4.42.736-1.02 1.02-7.585-7.586 1.086-1.086v-4.929c0-1.336.521-2.592 1.465-3.536l1.527-1.527c1.295-1.293 2.008-3.015 2.008-4.847v-1.031c0-.409.511-.677.848-.452 1.347.903 2.152 2.41 2.152 4.033v.461l-3.707 3.707-.051.051 1.414 1.414.051-.051 4.293-4.293 10.086-10.086c.209-.208.498-.328.793-.328.618 0 1.121.503 1.121 1.121 0 .3-.116.581-.328.793l-6 6-2.379 2.379 1.414 1.414 2.379-2.379c.209-.209.498-.328.793-.328.618 0 1.121.503 1.121 1.121 0 .295-.119.584-.328.793l-2.379 2.379 1.414 1.414 2.379-2.379c.209-.209.498-.328.793-.328.618 0 1.121.503 1.121 1.121 0 .295-.119.584-.328.793l-2.379 2.379 1.414 1.414 2.379-2.379c.209-.209.498-.328.793-.328.618 0 1.121.503 1.121 1.121 0 .295-.119.584-.328.793zm7.762-22.934.672-.672c.376-.375.63-.835.775-1.331l.151-.052.104-.043c.604-.288 1.142-.694 1.598-1.208l.376-.423-.601-1.918 1.011-.761 1.011.761-.601 1.918.376.423c.456.513.994.919 1.598 1.208l.548.262 1.568-1.182 1.568 1.182.548-.262c.604-.288 1.142-.694 1.598-1.208l.376-.423-.601-1.918 1.011-.761 1.011.761-.601 1.918.376.423c.456.513.994.919 1.598 1.208l.548.262 1.568-1.182 1.568 1.182.548-.262c.604-.288 1.142-.694 1.598-1.208l.376-.423-.601-1.918 1.567-1.18-.062-.566c-.064-.587-.318-1.289-.753-2.087l-.286-.526-1.8.013-.601-1.788-.562-.116c-.664-.137-1.32-.137-1.984 0l-.566.117-.589 1.785-1.914-.008-.285.524c-.071.131-.137.274-.2.422-.067-.139-.133-.277-.212-.422l-.286-.526-1.8.013-.601-1.788-.562-.116c-.664-.137-1.32-.137-1.984 0l-.566.117-.589 1.785-1.914-.008-.285.524c-.071.131-.137.274-.2.422-.067-.139-.133-.277-.212-.422l-.286-.526-1.8.013-.601-1.788-.562-.116c-.664-.137-1.32-.137-1.984 0l-.566.117-.589 1.785-1.914-.008-.285.524c-.323.592-.57 1.392-.647 2.087l-.062.566 1.567 1.18-.33 1.052-3.184 3.178v-9.586c0-1.654 1.346-3 3-3h26c1.654 0 3 1.346 3 3v8c0 1.654-1.346 3-3 3h-2.414l-5.879 5.879c-.238.239-.707.045-.707-.293v-5.586zm-3.316-7.708c.026-.098.056-.195.088-.29l2.112.009.662-2.011h.084l.678 2.018 2.024-.015c.048.109.091.213.126.312l-1.713 1.29.668 2.134c-.038.031-.083.05-.122.078-.496-1.07-1.572-1.817-2.826-1.817-.056 0-.111.014-.167.017l.129-.412zm13.729 3.446c-.024.02-.05.04-.076.059l-1.751-1.319-1.751 1.319c-.026-.019-.052-.039-.076-.059l.668-2.134-1.743-1.312c.026-.098.056-.195.088-.29l2.112.009.662-2.011h.084l.678 2.018 2.024-.015c.048.109.091.213.126.312l-1.713 1.29zm9 0c-.024.02-.05.04-.076.059l-1.751-1.319-1.751 1.319c-.026-.019-.052-.039-.076-.059l.668-2.134-1.743-1.312c.026-.098.056-.195.088-.29l2.112.009.662-2.011h.084l.678 2.018 2.024-.015c.048.109.091.213.126.312l-1.713 1.29zm8.173 18.262h-23.646c.408-.539.646-1.199.646-1.879 0-1.683-1.342-3.051-3.011-3.11-.058-1.631-1.369-2.942-3-3-.044-1.223-.787-2.267-1.847-2.739l1.272-1.272h12.586v3.586c0 1.331 1.083 2.414 2.414 2.414.636 0 1.258-.258 1.707-.707l5.293-5.293h1.586c2.757 0 5-2.243 5-5v-8c0-2.757-2.243-5-5-5h-26c-2.757 0-5 2.243-5 5v11.586l-3.153 3.153c-.359-1.743-1.375-3.296-2.887-4.309-.421-.282-.91-.43-1.416-.43-1.402 0-2.544 1.142-2.544 2.544v1.031c0 1.297-.505 2.517-1.422 3.433l-1.527 1.527c-1.322 1.322-2.051 3.08-2.051 4.95v1.515h-4c-.552 0-1-.448-1-1v-31h58v31c0 .552-.448 1-1 1zm-45-36h-2v-2h2zm-4 0h-2v-2h2zm-4 0h-2v-2h2zm50 32h2v2h-2zm-8 0h2v2h-2zm4 0h2v2h-2zm-2-4h8v2h-8zm-44-20h-2v-2h2zm2-2h12v2h-12zm-4 4h16v2h-16zm0 4h16v2h-16zm0 4h8v2h-8z" fill="url(#SVGID_1_)"/></svg>