<?xml version="1.0" encoding="iso-8859-1"?>
<!-- Generator: Adobe Illustrator 22.1.0, SVG Export Plug-In . SVG Version: 6.00 Build 0)  -->
<svg xmlns="http://www.w3.org/2000/svg" xmlns:xlink="http://www.w3.org/1999/xlink" version="1.1" id="Layer_1_1_" x="0px" y="0px" viewBox="0 0 64 64" style="enable-background:new 0 0 64 64;" xml:space="preserve" width="512" height="512">
<linearGradient id="SVGID_1_" gradientUnits="userSpaceOnUse" x1="32" y1="63" x2="32" y2="1">
	<stop offset="0" style="stop-color:#f22328"/>
	<stop offset="1" style="stop-color:#fe9e1f"/>
</linearGradient>
<path style="fill:url(#SVGID_1_);" d="M46,59c1.654,0,3-1.346,3-3s-1.346-3-3-3s-3,1.346-3,3S44.346,59,46,59z M46,55  c0.552,0,1,0.449,1,1s-0.448,1-1,1s-1-0.449-1-1S45.448,55,46,55z M29,53H15v6h14V53z M23,55v2h-2v-2H23z M17,55h2v2h-2V55z M27,57  h-2v-2h2V57z M15,23h14v-6H15V23z M21,21v-2h2v2H21z M27,21h-2v-2h2V21z M17,19h2v2h-2V19z M46,35c-1.654,0-3,1.346-3,3s1.346,3,3,3  s3-1.346,3-3S47.654,35,46,35z M46,39c-0.552,0-1-0.449-1-1s0.448-1,1-1s1,0.449,1,1S46.552,39,46,39z M15,41h14v-6H15V41z M21,39  v-2h2v2H21z M27,39h-2v-2h2V39z M17,37h2v2h-2V37z M47,8c-4.963,0-9,4.038-9,9s4.037,9,9,9s9-4.038,9-9S51.963,8,47,8z M47,24  c-3.859,0-7-3.14-7-7s3.141-7,7-7s7,3.14,7,7S50.859,24,47,24z M47,12c-2.757,0-5,2.243-5,5s2.243,5,5,5s5-2.243,5-5  S49.757,12,47,12z M47,20c-1.654,0-3-1.346-3-3s1.346-3,3-3s3,1.346,3,3S48.654,20,47,20z M58.932,11.868l2.048-3.516L55.647,3.02  l-3.516,2.048c-0.107-0.046-0.216-0.091-0.324-0.135L50.771,1h-7.541l-1.037,3.933c-0.108,0.043-0.217,0.088-0.324,0.135  L38.353,3.02l-5.332,5.332l2.048,3.516c-0.047,0.108-0.092,0.216-0.135,0.324L31.87,13H14c-1.654,0-3,1.346-3,3v8  c0,1.654,1.346,3,3,3h1v4h-1c-1.654,0-3,1.346-3,3v1H5V18.816C6.161,18.402,7,17.302,7,16c0-1.654-1.346-3-3-3s-3,1.346-3,3  c0,1.302,0.839,2.402,2,2.816V37h8v2H3v18.184C1.839,57.598,1,58.698,1,60c0,1.654,1.346,3,3,3s3-1.346,3-3  c0-1.302-0.839-2.402-2-2.816V41h6v1c0,1.654,1.346,3,3,3h1v4h-1c-1.654,0-3,1.346-3,3v8c0,1.654,1.346,3,3,3h36  c1.654,0,3-1.346,3-3v-8c0-1.654-1.346-3-3-3h-1v-4h1c1.654,0,3-1.346,3-3v-8c0-1.216-0.73-2.261-1.773-2.731l0.581-2.202  c0.108-0.043,0.217-0.088,0.324-0.135l3.516,2.048l5.332-5.332l-2.048-3.516c0.047-0.108,0.092-0.216,0.135-0.324L63,20.771v-7.541  l-3.934-1.038C59.023,12.083,58.979,11.976,58.932,11.868z M4,15c0.552,0,1,0.449,1,1s-0.448,1-1,1s-1-0.449-1-1S3.448,15,4,15z   M4,61c-0.552,0-1-0.449-1-1s0.448-1,1-1s1,0.449,1,1S4.552,61,4,61z M13,24v-8c0-0.551,0.448-1,1-1h17v5.771l3.934,1.038  c0.043,0.108,0.088,0.216,0.135,0.324L33.398,25H14C13.448,25,13,24.551,13,24z M17,27h17.373l3.98,3.98l3.516-2.048  c0.107,0.046,0.216,0.091,0.324,0.135L42.702,31H17V27z M51,52v8c0,0.551-0.448,1-1,1H14c-0.552,0-1-0.449-1-1v-8  c0-0.551,0.448-1,1-1h36C50.552,51,51,51.449,51,52z M47,49H17v-4h30V49z M51,42c0,0.551-0.448,1-1,1H14c-0.552,0-1-0.449-1-1v-8  c0-0.551,0.448-1,1-1h36c0.552,0,1,0.449,1,1V42z M61,19.229l-3.455,0.912l-0.176,0.5c-0.132,0.374-0.287,0.749-0.463,1.114  l-0.229,0.478l1.799,3.089l-3.152,3.153l-3.09-1.8l-0.479,0.23c-0.363,0.175-0.738,0.331-1.113,0.462l-0.501,0.176L49.23,31H44.77  l-0.911-3.455l-0.501-0.176c-0.375-0.132-0.75-0.288-1.113-0.462l-0.479-0.23l-3.09,1.8l-3.152-3.153l1.799-3.089l-0.229-0.478  c-0.176-0.366-0.331-0.741-0.463-1.114l-0.176-0.5L33,19.229v-4.459l3.455-0.912l0.176-0.5c0.132-0.374,0.287-0.749,0.463-1.114  l0.229-0.478l-1.799-3.089l3.152-3.153l3.09,1.8l0.479-0.23c0.363-0.175,0.738-0.331,1.113-0.462l0.501-0.176L44.771,3h4.459  l0.911,3.455l0.501,0.176c0.375,0.132,0.75,0.288,1.113,0.462l0.479,0.23l3.09-1.8l3.152,3.153l-1.799,3.089l0.229,0.478  c0.176,0.366,0.331,0.741,0.463,1.114l0.176,0.5L61,14.771V19.229z"/>
</svg>
